  0
SECTION
  2
HEADER
  9
$EXTMIN
 10
2.159000
 20
1.117600
  9
$EXTMAX
 10
83.235800
 20
34.061400
  9
$LIMMIN
 10
2.159000
 20
1.117600
  9
$LIMMAX
 10
83.235800
 20
34.061400
  9
$FILLMODE
 70
  1
  0
ENDSEC
  0
SECTION
  2
TABLES
  0
TABLE
  2
LTYPE
 70
  1
  0
LTYPE
  2
CONTINUOUS
 70
 64
  3
Solid line
 72
 65
 73
  0
 40
0.0
  0
ENDTAB
  0
TABLE
  2
LAYER
 70
 1
  0
LAYER
  2
0
 70
  0
 62
7
  6
CONTINUOUS
  0
LAYER
  2
gto
 70
  0
 62
2
  6
CONTINUOUS
  0
LAYER
  2
gtl
 70
  0
 62
1
  6
CONTINUOUS
  0
LAYER
  2
gbl
 70
  0
 62
5
  6
CONTINUOUS
  0
LAYER
  2
gd1
 70
  0
 62
1
  6
CONTINUOUS
  0
LAYER
  2
gg1
 70
  0
 62
1
  6
CONTINUOUS
  0
ENDTAB
  0
TABLE
  2
STYLE
 70
  1
  0
STYLE
  2
STANDARD
 70
  0
 40
0.0
 41
1.0
 50
0.0
 71
  0
 42
0.2
  3
txt
  4

  0
ENDTAB
  0
ENDSEC
  0
SECTION
  2
BLOCKS
  0
BLOCK
  8
0
  2
D10
 70
64
 10
0.0
 20
0.0
  3
D10
  0
CIRCLE
  8
0
 10
0.000000
 20
0.000000
 40
0.100000
 0
ENDBLK
  8
0
  0
BLOCK
  8
0
  2
D11
 70
64
 10
0.0
 20
0.0
  3
D11
  0
CIRCLE
  8
0
 10
0.000000
 20
0.000000
 40
0.125000
 0
ENDBLK
  8
0
  0
BLOCK
  8
0
  2
D12
 70
64
 10
0.0
 20
0.0
  3
D12
  0
CIRCLE
  8
0
 10
0.000000
 20
0.000000
 40
0.065000
 0
ENDBLK
  8
0
  0
BLOCK
  8
0
  2
D13
 70
64
 10
0.0
 20
0.0
  3
D13
  0
CIRCLE
  8
0
 10
0.000000
 20
0.000000
 40
0.100000
 0
ENDBLK
  8
0
  0
BLOCK
  8
0
  2
D14
 70
64
 10
0.0
 20
0.0
  3
D14
  0
POLYLINE
  8
0
 66
1
 10
0.0
 20
0.0
 40
0
 41
0
 70
1
  0
VERTEX
  8
0
 10
2.247900
 20
1.747520
 42
0
  0
VERTEX
  8
0
 10
-2.247900
 20
1.747520
 42
0
  0
VERTEX
  8
0
 10
-2.247900
 20
-1.747520
 42
0
  0
VERTEX
  8
0
 10
2.247900
 20
-1.747520
 42
0
  0
SEQEND
  8
0
  0
CIRCLE
  8
0
 10
-2.247900
 20
0.000000
 40
1.749997
  0
CIRCLE
  8
0
 10
2.247900
 20
0.000000
 40
1.749997
 0
ENDBLK
  8
0
  0
BLOCK
  8
0
  2
D15
 70
64
 10
0.0
 20
0.0
  3
D15
  0
CIRCLE
  8
0
 10
0.000000
 20
0.000000
 40
0.379999
 0
ENDBLK
  8
0
  0
BLOCK
  8
0
  2
D16
 70
64
 10
0.0
 20
0.0
  3
D16
  0
CIRCLE
  8
0
 10
0.000000
 20
0.000000
 40
1.804996
 0
ENDBLK
  8
0
  0
BLOCK
  8
0
  2
D17
 70
64
 10
0.0
 20
0.0
  3
D17
  0
CIRCLE
  8
0
 10
0.000000
 20
0.000000
 40
0.319999
 0
ENDBLK
  8
0
  0
BLOCK
  8
0
  2
D18
 70
64
 10
0.0
 20
0.0
  3
D18
  0
CIRCLE
  8
0
 10
0.000000
 20
0.000000
 40
1.779996
 0
ENDBLK
  8
0
  0
BLOCK
  8
0
  2
D19
 70
64
 10
0.0
 20
0.0
  3
D19
  0
CIRCLE
  8
0
 10
0.000000
 20
0.000000
 40
1.999996
 0
ENDBLK
  8
0
  0
BLOCK
  8
0
  2
D20
 70
64
 10
0.0
 20
0.0
  3
D20
  0
POLYLINE
  8
0
 66
1
 10
0.0
 20
0.0
 40
0
 41
0
 70
1
  0
VERTEX
  8
0
 10
1.747520
 20
0.749300
 42
0
  0
VERTEX
  8
0
 10
-1.747520
 20
0.749300
 42
0
  0
VERTEX
  8
0
 10
-1.747520
 20
-0.749300
 42
0
  0
VERTEX
  8
0
 10
1.747520
 20
-0.749300
 42
0
  0
SEQEND
  8
0
  0
CIRCLE
  8
0
 10
0.000000
 20
0.749300
 40
1.749997
  0
CIRCLE
  8
0
 10
0.000000
 20
-0.749300
 40
1.749997
 0
ENDBLK
  8
0
  0
BLOCK
  8
0
  2
D21
 70
64
 10
0.0
 20
0.0
  3
D21
  0
POLYLINE
  8
0
 66
1
 10
0.0
 20
0.0
 70
1
 40
0.0
 41
0.0
  0
VERTEX
  8
0
 10
-0.794998
 20
-0.794998
  0
VERTEX
  8
0
 10
0.794998
 20
-0.794998
  0
VERTEX
  8
0
 10
0.794998
 20
0.794998
  0
VERTEX
  8
0
 10
-0.794998
 20
0.794998
  0
SEQEND
  8
0
 0
ENDBLK
  8
0
  0
BLOCK
  8
0
  2
D22
 70
64
 10
0.0
 20
0.0
  3
D22
  0
CIRCLE
  8
0
 10
0.000000
 20
0.000000
 40
0.794998
 0
ENDBLK
  8
0
  0
BLOCK
  8
0
  2
D23
 70
64
 10
0.0
 20
0.0
  3
D23
  0
CIRCLE
  8
0
 10
0.000000
 20
0.000000
 40
0.749999
 0
ENDBLK
  8
0
  0
BLOCK
  8
0
  2
D24
 70
64
 10
0.0
 20
0.0
  3
D24
  0
POLYLINE
  8
0
 66
1
 10
0.0
 20
0.0
 70
1
 40
0.0
 41
0.0
  0
VERTEX
  8
0
 10
-0.749999
 20
-0.749999
  0
VERTEX
  8
0
 10
0.749999
 20
-0.749999
  0
VERTEX
  8
0
 10
0.749999
 20
0.749999
  0
VERTEX
  8
0
 10
-0.749999
 20
0.749999
  0
SEQEND
  8
0
 0
ENDBLK
  8
0
  0
BLOCK
  8
0
  2
D25
 70
64
 10
0.0
 20
0.0
  3
D25
  0
CIRCLE
  8
0
 10
0.000000
 20
0.000000
 40
0.254999
 0
ENDBLK
  8
0
  0
BLOCK
  8
0
  2
D26
 70
64
 10
0.0
 20
0.0
  3
D26
  0
CIRCLE
  8
0
 10
0.000000
 20
0.000000
 40
0.025000
 0
ENDBLK
  8
0
  0
BLOCK
  8
0
  2
D27
 70
64
 10
0.0
 20
0.0
  3
D27
  0
CIRCLE
  8
0
 10
0.000000
 20
0.000000
 40
0.035000
 0
ENDBLK
  8
0
  0
ENDSEC
  0
SECTION
  2
ENTITIES
  0
POLYLINE
  8
gto
 62
2
 40
0.000000
 41
0.000000
 66
  1
  0
VERTEX
  8
gto
 10
62.100124
 20
18.360037
  0
VERTEX
  8
gto
 10
62.100124
 20
18.360037
  0
VERTEX
  8
gto
 10
62.100124
 20
18.360037
 42
1.000000
  0
VERTEX
  8
gto
 10
61.900124
 20
18.360037
  0
VERTEX
  8
gto
 10
61.900124
 20
18.360037
  0
VERTEX
  8
gto
 10
61.900124
 20
18.360037
 42
1.000000
  0
VERTEX
  8
gto
 10
62.100124
 20
18.360037
  0
VERTEX
  8
gto
 10
62.100124
 20
18.360037
  0
SEQEND
  8
gto
  0
POLYLINE
  8
gto
 62
2
 40
0.000000
 41
0.000000
 66
  1
  0
VERTEX
  8
gto
 10
68.680137
 20
18.360037
  0
VERTEX
  8
gto
 10
68.680137
 20
18.360037
  0
VERTEX
  8
gto
 10
68.680137
 20
18.360037
 42
1.000000
  0
VERTEX
  8
gto
 10
68.480137
 20
18.360037
  0
VERTEX
  8
gto
 10
68.480137
 20
18.360037
  0
VERTEX
  8
gto
 10
68.480137
 20
18.360037
 42
1.000000
  0
VERTEX
  8
gto
 10
68.680137
 20
18.360037
  0
VERTEX
  8
gto
 10
68.680137
 20
18.360037
  0
SEQEND
  8
gto
  0
POLYLINE
  8
gto
 62
2
 40
0.000000
 41
0.000000
 66
  1
  0
VERTEX
  8
gto
 10
27.430055
 20
3.800008
  0
VERTEX
  8
gto
 10
57.910116
 20
3.800008
  0
SEQEND
  8
gto
  0
POLYLINE
  8
gto
 62
2
 40
0.000000
 41
0.000000
 66
  1
  0
VERTEX
  8
gto
 10
27.430055
 20
8.880018
  0
VERTEX
  8
gto
 10
57.910116
 20
8.880018
  0
SEQEND
  8
gto
  0
POLYLINE
  8
gto
 62
2
 40
0.000000
 41
0.000000
 66
  1
  0
VERTEX
  8
gto
 10
27.430055
 20
3.800008
  0
VERTEX
  8
gto
 10
27.430055
 20
8.880018
  0
SEQEND
  8
gto
  0
POLYLINE
  8
gto
 62
2
 40
0.000000
 41
0.000000
 66
  1
  0
VERTEX
  8
gto
 10
57.910116
 20
3.800008
  0
VERTEX
  8
gto
 10
57.910116
 20
8.880018
  0
SEQEND
  8
gto
  0
POLYLINE
  8
gto
 62
2
 40
0.000000
 41
0.000000
 66
  1
  0
VERTEX
  8
gto
 10
15.160030
 20
23.100046
  0
VERTEX
  8
gto
 10
15.160030
 20
24.100048
  0
SEQEND
  8
gto
  0
POLYLINE
  8
gto
 62
2
 40
0.000000
 41
0.000000
 66
  1
  0
VERTEX
  8
gto
 10
20.160040
 20
23.100046
  0
VERTEX
  8
gto
 10
20.160040
 20
24.100048
  0
SEQEND
  8
gto
  0
POLYLINE
  8
gto
 62
2
 40
0.000000
 41
0.000000
 66
  1
  0
VERTEX
  8
gto
 10
17.660035
 20
20.890042
  0
VERTEX
  8
gto
 10
17.660035
 20
23.100046
  0
SEQEND
  8
gto
  0
POLYLINE
  8
gto
 62
2
 40
0.000000
 41
0.000000
 66
  1
  0
VERTEX
  8
gto
 10
12.710025
 20
23.100046
  0
VERTEX
  8
gto
 10
28.580057
 20
23.100046
  0
SEQEND
  8
gto
  0
POLYLINE
  8
gto
 62
2
 40
0.000000
 41
0.000000
 66
  1
  0
VERTEX
  8
gto
 10
12.710025
 20
20.890042
  0
VERTEX
  8
gto
 10
12.710025
 20
31.310063
  0
VERTEX
  8
gto
 10
28.580057
 20
31.310063
  0
SEQEND
  8
gto
  0
POLYLINE
  8
gto
 62
2
 40
0.000000
 41
0.000000
 66
  1
  0
VERTEX
  8
gto
 10
12.710025
 20
20.890042
  0
VERTEX
  8
gto
 10
28.580057
 20
20.890042
  0
SEQEND
  8
gto
  0
POLYLINE
  8
gto
 62
2
 40
0.000000
 41
0.000000
 66
  1
  0
VERTEX
  8
gto
 10
17.660035
 20
26.100052
  0
VERTEX
  8
gto
 10
17.660035
 20
31.310063
  0
SEQEND
  8
gto
  0
POLYLINE
  8
gto
 62
2
 40
0.000000
 41
0.000000
 66
  1
  0
VERTEX
  8
gto
 10
22.740045
 20
26.100052
  0
VERTEX
  8
gto
 10
22.740045
 20
31.310063
  0
SEQEND
  8
gto
  0
POLYLINE
  8
gto
 62
2
 40
0.000000
 41
0.000000
 66
  1
  0
VERTEX
  8
gto
 10
28.580057
 20
20.890042
  0
VERTEX
  8
gto
 10
28.580057
 20
31.310063
  0
SEQEND
  8
gto
  0
POLYLINE
  8
gto
 62
2
 40
0.000000
 41
0.000000
 66
  1
  0
VERTEX
  8
gto
 10
22.740045
 20
20.890042
  0
VERTEX
  8
gto
 10
22.740045
 20
23.100046
  0
SEQEND
  8
gto
  0
POLYLINE
  8
gto
 62
2
 40
0.000000
 41
0.000000
 66
  1
  0
VERTEX
  8
gto
 10
25.240050
 20
23.100046
  0
VERTEX
  8
gto
 10
25.240050
 20
24.100048
  0
SEQEND
  8
gto
  0
POLYLINE
  8
gto
 62
2
 40
0.000000
 41
0.000000
 66
  1
  0
VERTEX
  8
gto
 10
75.140150
 20
23.100046
  0
VERTEX
  8
gto
 10
75.140150
 20
24.100048
  0
SEQEND
  8
gto
  0
POLYLINE
  8
gto
 62
2
 40
0.000000
 41
0.000000
 66
  1
  0
VERTEX
  8
gto
 10
80.140160
 20
23.100046
  0
VERTEX
  8
gto
 10
80.140160
 20
24.100048
  0
SEQEND
  8
gto
  0
POLYLINE
  8
gto
 62
2
 40
0.000000
 41
0.000000
 66
  1
  0
VERTEX
  8
gto
 10
77.640155
 20
20.770042
  0
VERTEX
  8
gto
 10
77.640155
 20
23.100046
  0
SEQEND
  8
gto
  0
POLYLINE
  8
gto
 62
2
 40
0.000000
 41
0.000000
 66
  1
  0
VERTEX
  8
gto
 10
72.430145
 20
23.100046
  0
VERTEX
  8
gto
 10
83.100166
 20
23.100046
  0
SEQEND
  8
gto
  0
POLYLINE
  8
gto
 62
2
 40
0.000000
 41
0.000000
 66
  1
  0
VERTEX
  8
gto
 10
72.430145
 20
20.770042
  0
VERTEX
  8
gto
 10
72.430145
 20
31.310063
  0
VERTEX
  8
gto
 10
83.100166
 20
31.310063
  0
VERTEX
  8
gto
 10
83.100166
 20
20.770042
  0
SEQEND
  8
gto
  0
POLYLINE
  8
gto
 62
2
 40
0.000000
 41
0.000000
 66
  1
  0
VERTEX
  8
gto
 10
72.430145
 20
20.770042
  0
VERTEX
  8
gto
 10
83.100166
 20
20.770042
  0
SEQEND
  8
gto
  0
POLYLINE
  8
gto
 62
2
 40
0.000000
 41
0.000000
 66
  1
  0
VERTEX
  8
gto
 10
77.640155
 20
31.310063
  0
VERTEX
  8
gto
 10
77.640155
 20
26.100052
  0
SEQEND
  8
gto
  0
POLYLINE
  8
gto
 62
2
 40
0.000000
 41
0.000000
 66
  1
  0
VERTEX
  8
gto
 10
7.480015
 20
31.310063
  0
VERTEX
  8
gto
 10
7.490015
 20
26.100052
  0
SEQEND
  8
gto
  0
POLYLINE
  8
gto
 62
2
 40
0.000000
 41
0.000000
 66
  1
  0
VERTEX
  8
gto
 10
2.280005
 20
20.770042
  0
VERTEX
  8
gto
 10
12.950026
 20
20.770042
  0
SEQEND
  8
gto
  0
POLYLINE
  8
gto
 62
2
 40
0.000000
 41
0.000000
 66
  1
  0
VERTEX
  8
gto
 10
12.940026
 20
31.310063
  0
VERTEX
  8
gto
 10
12.950026
 20
20.770042
  0
SEQEND
  8
gto
  0
POLYLINE
  8
gto
 62
2
 40
0.000000
 41
0.000000
 66
  1
  0
VERTEX
  8
gto
 10
2.280005
 20
31.310063
  0
VERTEX
  8
gto
 10
12.940026
 20
31.310063
  0
SEQEND
  8
gto
  0
POLYLINE
  8
gto
 62
2
 40
0.000000
 41
0.000000
 66
  1
  0
VERTEX
  8
gto
 10
2.280005
 20
20.770042
  0
VERTEX
  8
gto
 10
2.280005
 20
31.310063
  0
SEQEND
  8
gto
  0
POLYLINE
  8
gto
 62
2
 40
0.000000
 41
0.000000
 66
  1
  0
VERTEX
  8
gto
 10
2.280005
 20
23.100046
  0
VERTEX
  8
gto
 10
12.950026
 20
23.100046
  0
SEQEND
  8
gto
  0
POLYLINE
  8
gto
 62
2
 40
0.000000
 41
0.000000
 66
  1
  0
VERTEX
  8
gto
 10
7.490015
 20
20.770042
  0
VERTEX
  8
gto
 10
7.490015
 20
23.100046
  0
SEQEND
  8
gto
  0
POLYLINE
  8
gto
 62
2
 40
0.000000
 41
0.000000
 66
  1
  0
VERTEX
  8
gto
 10
9.990020
 20
23.100046
  0
VERTEX
  8
gto
 10
9.990020
 20
24.100048
  0
SEQEND
  8
gto
  0
POLYLINE
  8
gto
 62
2
 40
0.000000
 41
0.000000
 66
  1
  0
VERTEX
  8
gto
 10
4.990010
 20
23.100046
  0
VERTEX
  8
gto
 10
4.990010
 20
24.100048
  0
SEQEND
  8
gto
  0
POLYLINE
  8
gto
 62
2
 40
0.000000
 41
0.000000
 66
  1
  0
VERTEX
  8
gto
 10
30.400061
 20
23.100046
  0
VERTEX
  8
gto
 10
30.400061
 20
24.100048
  0
SEQEND
  8
gto
  0
POLYLINE
  8
gto
 62
2
 40
0.000000
 41
0.000000
 66
  1
  0
VERTEX
  8
gto
 10
35.400071
 20
23.100046
  0
VERTEX
  8
gto
 10
35.400071
 20
24.100048
  0
SEQEND
  8
gto
  0
POLYLINE
  8
gto
 62
2
 40
0.000000
 41
0.000000
 66
  1
  0
VERTEX
  8
gto
 10
32.900066
 20
20.890042
  0
VERTEX
  8
gto
 10
32.900066
 20
23.100046
  0
SEQEND
  8
gto
  0
POLYLINE
  8
gto
 62
2
 40
0.000000
 41
0.000000
 66
  1
  0
VERTEX
  8
gto
 10
27.950056
 20
23.100046
  0
VERTEX
  8
gto
 10
43.820088
 20
23.100046
  0
SEQEND
  8
gto
  0
POLYLINE
  8
gto
 62
2
 40
0.000000
 41
0.000000
 66
  1
  0
VERTEX
  8
gto
 10
27.950056
 20
20.890042
  0
VERTEX
  8
gto
 10
27.950056
 20
31.310063
  0
VERTEX
  8
gto
 10
43.820088
 20
31.310063
  0
SEQEND
  8
gto
  0
POLYLINE
  8
gto
 62
2
 40
0.000000
 41
0.000000
 66
  1
  0
VERTEX
  8
gto
 10
27.950056
 20
20.890042
  0
VERTEX
  8
gto
 10
43.820088
 20
20.890042
  0
SEQEND
  8
gto
  0
POLYLINE
  8
gto
 62
2
 40
0.000000
 41
0.000000
 66
  1
  0
VERTEX
  8
gto
 10
32.900066
 20
26.100052
  0
VERTEX
  8
gto
 10
32.900066
 20
31.310063
  0
SEQEND
  8
gto
  0
POLYLINE
  8
gto
 62
2
 40
0.000000
 41
0.000000
 66
  1
  0
VERTEX
  8
gto
 10
37.980076
 20
26.100052
  0
VERTEX
  8
gto
 10
37.980076
 20
31.310063
  0
SEQEND
  8
gto
  0
POLYLINE
  8
gto
 62
2
 40
0.000000
 41
0.000000
 66
  1
  0
VERTEX
  8
gto
 10
43.820088
 20
20.890042
  0
VERTEX
  8
gto
 10
43.820088
 20
31.310063
  0
SEQEND
  8
gto
  0
POLYLINE
  8
gto
 62
2
 40
0.000000
 41
0.000000
 66
  1
  0
VERTEX
  8
gto
 10
37.980076
 20
20.890042
  0
VERTEX
  8
gto
 10
37.980076
 20
23.100046
  0
SEQEND
  8
gto
  0
POLYLINE
  8
gto
 62
2
 40
0.000000
 41
0.000000
 66
  1
  0
VERTEX
  8
gto
 10
40.480081
 20
23.100046
  0
VERTEX
  8
gto
 10
40.480081
 20
24.100048
  0
SEQEND
  8
gto
  0
POLYLINE
  8
gto
 62
2
 40
0.000000
 41
0.000000
 66
  1
  0
VERTEX
  8
gto
 10
45.640091
 20
23.100046
  0
VERTEX
  8
gto
 10
45.640091
 20
24.100048
  0
SEQEND
  8
gto
  0
POLYLINE
  8
gto
 62
2
 40
0.000000
 41
0.000000
 66
  1
  0
VERTEX
  8
gto
 10
50.640101
 20
23.100046
  0
VERTEX
  8
gto
 10
50.640101
 20
24.100048
  0
SEQEND
  8
gto
  0
POLYLINE
  8
gto
 62
2
 40
0.000000
 41
0.000000
 66
  1
  0
VERTEX
  8
gto
 10
48.140096
 20
20.770042
  0
VERTEX
  8
gto
 10
48.140096
 20
23.100046
  0
SEQEND
  8
gto
  0
POLYLINE
  8
gto
 62
2
 40
0.000000
 41
0.000000
 66
  1
  0
VERTEX
  8
gto
 10
42.930086
 20
23.100046
  0
VERTEX
  8
gto
 10
53.600107
 20
23.100046
  0
SEQEND
  8
gto
  0
POLYLINE
  8
gto
 62
2
 40
0.000000
 41
0.000000
 66
  1
  0
VERTEX
  8
gto
 10
42.930086
 20
20.770042
  0
VERTEX
  8
gto
 10
42.930086
 20
31.310063
  0
VERTEX
  8
gto
 10
53.600107
 20
31.310063
  0
VERTEX
  8
gto
 10
53.600107
 20
20.770042
  0
SEQEND
  8
gto
  0
POLYLINE
  8
gto
 62
2
 40
0.000000
 41
0.000000
 66
  1
  0
VERTEX
  8
gto
 10
42.930086
 20
20.770042
  0
VERTEX
  8
gto
 10
53.600107
 20
20.770042
  0
SEQEND
  8
gto
  0
POLYLINE
  8
gto
 62
2
 40
0.000000
 41
0.000000
 66
  1
  0
VERTEX
  8
gto
 10
48.140096
 20
26.100052
  0
VERTEX
  8
gto
 10
48.140096
 20
31.310063
  0
SEQEND
  8
gto
  0
POLYLINE
  8
gto
 62
2
 40
0.000000
 41
0.000000
 66
  1
  0
VERTEX
  8
gto
 10
27.570055
 20
11.240022
  0
VERTEX
  8
gto
 10
28.080056
 20
11.240022
  0
VERTEX
  8
gto
 10
27.830056
 20
11.240022
  0
VERTEX
  8
gto
 10
27.830056
 20
9.710019
  0
VERTEX
  8
gto
 10
27.570055
 20
9.710019
  0
VERTEX
  8
gto
 10
28.080056
 20
9.710019
  0
SEQEND
  8
gto
  0
POLYLINE
  8
gto
 62
2
 40
0.000000
 41
0.000000
 66
  1
  0
VERTEX
  8
gto
 10
28.840058
 20
9.710019
  0
VERTEX
  8
gto
 10
28.840058
 20
11.240022
  0
VERTEX
  8
gto
 10
29.860060
 20
9.710019
  0
VERTEX
  8
gto
 10
29.860060
 20
11.240022
  0
SEQEND
  8
gto
  0
POLYLINE
  8
gto
 62
2
 40
0.000000
 41
0.000000
 66
  1
  0
VERTEX
  8
gto
 10
30.370061
 20
9.710019
  0
VERTEX
  8
gto
 10
30.370061
 20
11.240022
  0
VERTEX
  8
gto
 10
31.130062
 20
11.240022
  0
VERTEX
  8
gto
 10
31.380063
 20
10.980022
  0
VERTEX
  8
gto
 10
31.380063
 20
10.480021
  0
VERTEX
  8
gto
 10
31.130062
 20
10.220020
  0
VERTEX
  8
gto
 10
30.370061
 20
10.220020
  0
SEQEND
  8
gto
  0
POLYLINE
  8
gto
 62
2
 40
0.000000
 41
0.000000
 66
  1
  0
VERTEX
  8
gto
 10
31.890064
 20
11.240022
  0
VERTEX
  8
gto
 10
31.890064
 20
9.970020
  0
VERTEX
  8
gto
 10
32.140064
 20
9.710019
  0
VERTEX
  8
gto
 10
32.650065
 20
9.710019
  0
VERTEX
  8
gto
 10
32.900066
 20
9.970020
  0
VERTEX
  8
gto
 10
32.900066
 20
11.240022
  0
SEQEND
  8
gto
  0
POLYLINE
  8
gto
 62
2
 40
0.000000
 41
0.000000
 66
  1
  0
VERTEX
  8
gto
 10
33.410067
 20
11.240022
  0
VERTEX
  8
gto
 10
34.430069
 20
11.240022
  0
VERTEX
  8
gto
 10
33.920068
 20
11.240022
  0
VERTEX
  8
gto
 10
33.920068
 20
9.710019
  0
SEQEND
  8
gto
  0
POLYLINE
  8
gto
 62
2
 40
0.000000
 41
0.000000
 66
  1
  0
VERTEX
  8
gto
 10
46.510093
 20
33.460067
  0
VERTEX
  8
gto
 10
46.250093
 20
33.710067
  0
VERTEX
  8
gto
 10
45.750092
 20
33.710067
  0
VERTEX
  8
gto
 10
45.490091
 20
33.460067
  0
VERTEX
  8
gto
 10
45.490091
 20
32.440065
  0
VERTEX
  8
gto
 10
45.750092
 20
32.190064
  0
VERTEX
  8
gto
 10
46.250093
 20
32.190064
  0
VERTEX
  8
gto
 10
46.510093
 20
32.440065
  0
SEQEND
  8
gto
  0
POLYLINE
  8
gto
 62
2
 40
0.000000
 41
0.000000
 66
  1
  0
VERTEX
  8
gto
 10
47.780096
 20
33.710067
  0
VERTEX
  8
gto
 10
47.270095
 20
33.710067
  0
VERTEX
  8
gto
 10
47.010094
 20
33.460067
  0
VERTEX
  8
gto
 10
47.010094
 20
32.440065
  0
VERTEX
  8
gto
 10
47.270095
 20
32.190064
  0
VERTEX
  8
gto
 10
47.780096
 20
32.190064
  0
VERTEX
  8
gto
 10
48.030096
 20
32.440065
  0
VERTEX
  8
gto
 10
48.030096
 20
33.460067
  0
VERTEX
  8
gto
 10
47.780096
 20
33.710067
  0
SEQEND
  8
gto
  0
POLYLINE
  8
gto
 62
2
 40
0.000000
 41
0.000000
 66
  1
  0
VERTEX
  8
gto
 10
48.540097
 20
32.190064
  0
VERTEX
  8
gto
 10
48.540097
 20
33.710067
  0
VERTEX
  8
gto
 10
49.550099
 20
32.190064
  0
VERTEX
  8
gto
 10
49.550099
 20
33.710067
  0
SEQEND
  8
gto
  0
POLYLINE
  8
gto
 62
2
 40
0.000000
 41
0.000000
 66
  1
  0
VERTEX
  8
gto
 10
50.060100
 20
33.460067
  0
VERTEX
  8
gto
 10
50.320101
 20
33.710067
  0
VERTEX
  8
gto
 10
50.820102
 20
33.710067
  0
VERTEX
  8
gto
 10
51.080102
 20
33.460067
  0
VERTEX
  8
gto
 10
51.080102
 20
33.200066
  0
VERTEX
  8
gto
 10
50.820102
 20
32.950066
  0
VERTEX
  8
gto
 10
50.570101
 20
32.950066
  0
VERTEX
  8
gto
 10
50.820102
 20
32.950066
  0
VERTEX
  8
gto
 10
51.080102
 20
32.700065
  0
VERTEX
  8
gto
 10
51.080102
 20
32.440065
  0
VERTEX
  8
gto
 10
50.820102
 20
32.190064
  0
VERTEX
  8
gto
 10
50.320101
 20
32.190064
  0
VERTEX
  8
gto
 10
50.060100
 20
32.440065
  0
SEQEND
  8
gto
  0
POLYLINE
  8
gto
 62
2
 40
0.000000
 41
0.000000
 66
  1
  0
VERTEX
  8
gto
 10
34.110068
 20
33.460067
  0
VERTEX
  8
gto
 10
33.860068
 20
33.710067
  0
VERTEX
  8
gto
 10
33.350067
 20
33.710067
  0
VERTEX
  8
gto
 10
33.100066
 20
33.460067
  0
VERTEX
  8
gto
 10
33.100066
 20
32.440065
  0
VERTEX
  8
gto
 10
33.350067
 20
32.190064
  0
VERTEX
  8
gto
 10
33.860068
 20
32.190064
  0
VERTEX
  8
gto
 10
34.110068
 20
32.440065
  0
SEQEND
  8
gto
  0
POLYLINE
  8
gto
 62
2
 40
0.000000
 41
0.000000
 66
  1
  0
VERTEX
  8
gto
 10
35.380071
 20
33.710067
  0
VERTEX
  8
gto
 10
34.870070
 20
33.710067
  0
VERTEX
  8
gto
 10
34.620069
 20
33.460067
  0
VERTEX
  8
gto
 10
34.620069
 20
32.440065
  0
VERTEX
  8
gto
 10
34.870070
 20
32.190064
  0
VERTEX
  8
gto
 10
35.380071
 20
32.190064
  0
VERTEX
  8
gto
 10
35.640071
 20
32.440065
  0
VERTEX
  8
gto
 10
35.640071
 20
33.460067
  0
VERTEX
  8
gto
 10
35.380071
 20
33.710067
  0
SEQEND
  8
gto
  0
POLYLINE
  8
gto
 62
2
 40
0.000000
 41
0.000000
 66
  1
  0
VERTEX
  8
gto
 10
36.140072
 20
32.190064
  0
VERTEX
  8
gto
 10
36.140072
 20
33.710067
  0
VERTEX
  8
gto
 10
37.160074
 20
32.190064
  0
VERTEX
  8
gto
 10
37.160074
 20
33.710067
  0
SEQEND
  8
gto
  0
POLYLINE
  8
gto
 62
2
 40
0.000000
 41
0.000000
 66
  1
  0
VERTEX
  8
gto
 10
38.680077
 20
32.190064
  0
VERTEX
  8
gto
 10
37.670075
 20
32.190064
  0
VERTEX
  8
gto
 10
38.680077
 20
33.200066
  0
VERTEX
  8
gto
 10
38.680077
 20
33.460067
  0
VERTEX
  8
gto
 10
38.430077
 20
33.710067
  0
VERTEX
  8
gto
 10
37.920076
 20
33.710067
  0
VERTEX
  8
gto
 10
37.670075
 20
33.460067
  0
SEQEND
  8
gto
  0
POLYLINE
  8
gto
 62
2
 40
0.000000
 41
0.000000
 66
  1
  0
VERTEX
  8
gto
 10
19.130038
 20
33.460067
  0
VERTEX
  8
gto
 10
18.870038
 20
33.710067
  0
VERTEX
  8
gto
 10
18.360037
 20
33.710067
  0
VERTEX
  8
gto
 10
18.110036
 20
33.460067
  0
VERTEX
  8
gto
 10
18.110036
 20
32.440065
  0
VERTEX
  8
gto
 10
18.360037
 20
32.190064
  0
VERTEX
  8
gto
 10
18.870038
 20
32.190064
  0
VERTEX
  8
gto
 10
19.130038
 20
32.440065
  0
SEQEND
  8
gto
  0
POLYLINE
  8
gto
 62
2
 40
0.000000
 41
0.000000
 66
  1
  0
VERTEX
  8
gto
 10
20.400041
 20
33.710067
  0
VERTEX
  8
gto
 10
19.890040
 20
33.710067
  0
VERTEX
  8
gto
 10
19.630039
 20
33.460067
  0
VERTEX
  8
gto
 10
19.630039
 20
32.440065
  0
VERTEX
  8
gto
 10
19.890040
 20
32.190064
  0
VERTEX
  8
gto
 10
20.400041
 20
32.190064
  0
VERTEX
  8
gto
 10
20.650041
 20
32.440065
  0
VERTEX
  8
gto
 10
20.650041
 20
33.460067
  0
VERTEX
  8
gto
 10
20.400041
 20
33.710067
  0
SEQEND
  8
gto
  0
POLYLINE
  8
gto
 62
2
 40
0.000000
 41
0.000000
 66
  1
  0
VERTEX
  8
gto
 10
21.160042
 20
32.190064
  0
VERTEX
  8
gto
 10
21.160042
 20
33.710067
  0
VERTEX
  8
gto
 10
22.170044
 20
32.190064
  0
VERTEX
  8
gto
 10
22.170044
 20
33.710067
  0
SEQEND
  8
gto
  0
POLYLINE
  8
gto
 62
2
 40
0.000000
 41
0.000000
 66
  1
  0
VERTEX
  8
gto
 10
22.680045
 20
32.190064
  0
VERTEX
  8
gto
 10
23.190046
 20
32.190064
  0
VERTEX
  8
gto
 10
22.930046
 20
32.190064
  0
VERTEX
  8
gto
 10
22.930046
 20
33.710067
  0
VERTEX
  8
gto
 10
22.680045
 20
33.460067
  0
SEQEND
  8
gto
  0
POLYLINE
  8
gto
 62
2
 40
0.000000
 41
0.000000
 66
  1
  0
VERTEX
  8
gto
 10
69.090138
 20
33.940068
  0
VERTEX
  8
gto
 10
68.070136
 20
33.940068
  0
VERTEX
  8
gto
 10
68.070136
 20
32.420065
  0
VERTEX
  8
gto
 10
69.090138
 20
32.420065
  0
SEQEND
  8
gto
  0
POLYLINE
  8
gto
 62
2
 40
0.000000
 41
0.000000
 66
  1
  0
VERTEX
  8
gto
 10
68.070136
 20
33.180066
  0
VERTEX
  8
gto
 10
68.580137
 20
33.180066
  0
SEQEND
  8
gto
  0
POLYLINE
  8
gto
 62
2
 40
0.000000
 41
0.000000
 66
  1
  0
VERTEX
  8
gto
 10
69.600139
 20
32.420065
  0
VERTEX
  8
gto
 10
70.100140
 20
32.420065
  0
VERTEX
  8
gto
 10
69.850140
 20
32.420065
  0
VERTEX
  8
gto
 10
69.850140
 20
33.940068
  0
VERTEX
  8
gto
 10
69.600139
 20
33.690067
  0
SEQEND
  8
gto
  0
POLYLINE
  8
gto
 62
2
 40
0.000000
 41
0.000000
 66
  1
  0
VERTEX
  8
gto
 10
62.280125
 20
33.940068
  0
VERTEX
  8
gto
 10
61.260123
 20
33.940068
  0
VERTEX
  8
gto
 10
61.260123
 20
32.420065
  0
VERTEX
  8
gto
 10
62.280125
 20
32.420065
  0
SEQEND
  8
gto
  0
POLYLINE
  8
gto
 62
2
 40
0.000000
 41
0.000000
 66
  1
  0
VERTEX
  8
gto
 10
61.260123
 20
33.180066
  0
VERTEX
  8
gto
 10
61.770124
 20
33.180066
  0
SEQEND
  8
gto
  0
POLYLINE
  8
gto
 62
2
 40
0.000000
 41
0.000000
 66
  1
  0
VERTEX
  8
gto
 10
62.790126
 20
33.690067
  0
VERTEX
  8
gto
 10
63.040126
 20
33.940068
  0
VERTEX
  8
gto
 10
63.550127
 20
33.940068
  0
VERTEX
  8
gto
 10
63.800128
 20
33.690067
  0
VERTEX
  8
gto
 10
63.800128
 20
32.670065
  0
VERTEX
  8
gto
 10
63.550127
 20
32.420065
  0
VERTEX
  8
gto
 10
63.040126
 20
32.420065
  0
VERTEX
  8
gto
 10
62.790126
 20
32.670065
  0
VERTEX
  8
gto
 10
62.790126
 20
33.690067
  0
SEQEND
  8
gto
  0
POLYLINE
  8
gto
 62
2
 40
0.000000
 41
0.000000
 66
  1
  0
VERTEX
  8
gto
 10
5.610011
 20
33.710067
  0
VERTEX
  8
gto
 10
5.610011
 20
32.190064
  0
VERTEX
  8
gto
 10
5.610011
 20
32.950066
  0
VERTEX
  8
gto
 10
6.630013
 20
32.950066
  0
VERTEX
  8
gto
 10
6.630013
 20
33.710067
  0
VERTEX
  8
gto
 10
6.630013
 20
32.190064
  0
SEQEND
  8
gto
  0
POLYLINE
  8
gto
 62
2
 40
0.000000
 41
0.000000
 66
  1
  0
VERTEX
  8
gto
 10
8.150016
 20
33.710067
  0
VERTEX
  8
gto
 10
7.140014
 20
33.710067
  0
VERTEX
  8
gto
 10
7.140014
 20
32.190064
  0
VERTEX
  8
gto
 10
8.150016
 20
32.190064
  0
SEQEND
  8
gto
  0
POLYLINE
  8
gto
 62
2
 40
0.000000
 41
0.000000
 66
  1
  0
VERTEX
  8
gto
 10
7.140014
 20
32.950066
  0
VERTEX
  8
gto
 10
7.640015
 20
32.950066
  0
SEQEND
  8
gto
  0
POLYLINE
  8
gto
 62
2
 40
0.000000
 41
0.000000
 66
  1
  0
VERTEX
  8
gto
 10
8.660017
 20
33.460067
  0
VERTEX
  8
gto
 10
8.910018
 20
33.710067
  0
VERTEX
  8
gto
 10
9.420019
 20
33.710067
  0
VERTEX
  8
gto
 10
9.680019
 20
33.460067
  0
VERTEX
  8
gto
 10
9.680019
 20
32.440065
  0
VERTEX
  8
gto
 10
9.420019
 20
32.190064
  0
VERTEX
  8
gto
 10
8.910018
 20
32.190064
  0
VERTEX
  8
gto
 10
8.660017
 20
32.440065
  0
VERTEX
  8
gto
 10
8.660017
 20
33.460067
  0
SEQEND
  8
gto
  0
POLYLINE
  8
gto
 62
2
 40
0.000000
 41
0.000000
 66
  1
  0
VERTEX
  8
gto
 10
76.020152
 20
33.710067
  0
VERTEX
  8
gto
 10
76.020152
 20
32.190064
  0
VERTEX
  8
gto
 10
76.020152
 20
32.950066
  0
VERTEX
  8
gto
 10
77.040154
 20
32.950066
  0
VERTEX
  8
gto
 10
77.040154
 20
33.710067
  0
VERTEX
  8
gto
 10
77.040154
 20
32.190064
  0
SEQEND
  8
gto
  0
POLYLINE
  8
gto
 62
2
 40
0.000000
 41
0.000000
 66
  1
  0
VERTEX
  8
gto
 10
78.560157
 20
33.710067
  0
VERTEX
  8
gto
 10
77.550155
 20
33.710067
  0
VERTEX
  8
gto
 10
77.550155
 20
32.190064
  0
VERTEX
  8
gto
 10
78.560157
 20
32.190064
  0
SEQEND
  8
gto
  0
POLYLINE
  8
gto
 62
2
 40
0.000000
 41
0.000000
 66
  1
  0
VERTEX
  8
gto
 10
77.550155
 20
32.950066
  0
VERTEX
  8
gto
 10
78.050156
 20
32.950066
  0
SEQEND
  8
gto
  0
POLYLINE
  8
gto
 62
2
 40
0.000000
 41
0.000000
 66
  1
  0
VERTEX
  8
gto
 10
79.070158
 20
32.190064
  0
VERTEX
  8
gto
 10
79.580159
 20
32.190064
  0
VERTEX
  8
gto
 10
79.320159
 20
32.190064
  0
VERTEX
  8
gto
 10
79.320159
 20
33.710067
  0
VERTEX
  8
gto
 10
79.070158
 20
33.460067
  0
SEQEND
  8
gto
  0
POLYLINE
  8
gto
 62
2
 40
0.000000
 41
0.000000
 66
  1
  0
VERTEX
  8
gto
 10
65.400131
 20
18.970038
  0
VERTEX
  8
gto
 10
65.400131
 20
31.370063
  0
SEQEND
  8
gto
  0
POLYLINE
  8
gto
 62
2
 40
0.000000
 41
0.000000
 66
  1
  0
VERTEX
  8
gto
 10
59.650119
 20
31.370063
  0
VERTEX
  8
gto
 10
65.400131
 20
31.370063
  0
SEQEND
  8
gto
  0
POLYLINE
  8
gto
 62
2
 40
0.000000
 41
0.000000
 66
  1
  0
VERTEX
  8
gto
 10
59.650119
 20
18.970038
  0
VERTEX
  8
gto
 10
59.650119
 20
31.370063
  0
SEQEND
  8
gto
  0
POLYLINE
  8
gto
 62
2
 40
0.000000
 41
0.000000
 66
  1
  0
VERTEX
  8
gto
 10
59.650119
 20
18.970038
  0
VERTEX
  8
gto
 10
65.400131
 20
18.970038
  0
SEQEND
  8
gto
  0
POLYLINE
  8
gto
 62
2
 40
0.000000
 41
0.000000
 66
  1
  0
VERTEX
  8
gto
 10
71.970144
 20
18.970038
  0
VERTEX
  8
gto
 10
71.970144
 20
31.370063
  0
SEQEND
  8
gto
  0
POLYLINE
  8
gto
 62
2
 40
0.000000
 41
0.000000
 66
  1
  0
VERTEX
  8
gto
 10
66.220132
 20
31.370063
  0
VERTEX
  8
gto
 10
71.970144
 20
31.370063
  0
SEQEND
  8
gto
  0
POLYLINE
  8
gto
 62
2
 40
0.000000
 41
0.000000
 66
  1
  0
VERTEX
  8
gto
 10
66.220132
 20
18.970038
  0
VERTEX
  8
gto
 10
66.220132
 20
31.370063
  0
SEQEND
  8
gto
  0
POLYLINE
  8
gto
 62
2
 40
0.000000
 41
0.000000
 66
  1
  0
VERTEX
  8
gto
 10
66.220132
 20
18.970038
  0
VERTEX
  8
gto
 10
71.970144
 20
18.970038
  0
SEQEND
  8
gto
  0
POLYLINE
  8
gto
 62
2
 40
0.000000
 41
0.000000
 66
  1
  0
VERTEX
  8
gto
 10
59.010118
 20
7.110014
  0
VERTEX
  8
gto
 10
58.160116
 20
7.110014
  0
VERTEX
  8
gto
 10
59.010118
 20
7.950016
  0
VERTEX
  8
gto
 10
59.010118
 20
8.160016
  0
VERTEX
  8
gto
 10
58.800118
 20
8.380017
  0
VERTEX
  8
gto
 10
58.380117
 20
8.380017
  0
VERTEX
  8
gto
 10
58.160116
 20
8.160016
  0
SEQEND
  8
gto
  0
POLYLINE
  8
gto
 62
2
 40
0.000000
 41
0.000000
 66
  1
  0
VERTEX
  8
gto
 10
60.070120
 20
7.110014
  0
VERTEX
  8
gto
 10
60.070120
 20
8.380017
  0
VERTEX
  8
gto
 10
59.430119
 20
7.740015
  0
VERTEX
  8
gto
 10
60.280121
 20
7.740015
  0
SEQEND
  8
gto
  0
POLYLINE
  8
gto
 62
2
 40
0.000000
 41
0.000000
 66
  1
  0
VERTEX
  8
gto
 10
59.010118
 20
4.570009
  0
VERTEX
  8
gto
 10
58.160116
 20
4.570009
  0
VERTEX
  8
gto
 10
59.010118
 20
5.410011
  0
VERTEX
  8
gto
 10
59.010118
 20
5.620011
  0
VERTEX
  8
gto
 10
58.800118
 20
5.840012
  0
VERTEX
  8
gto
 10
58.380117
 20
5.840012
  0
VERTEX
  8
gto
 10
58.160116
 20
5.620011
  0
SEQEND
  8
gto
  0
POLYLINE
  8
gto
 62
2
 40
0.000000
 41
0.000000
 66
  1
  0
VERTEX
  8
gto
 10
59.430119
 20
5.620011
  0
VERTEX
  8
gto
 10
59.650119
 20
5.840012
  0
VERTEX
  8
gto
 10
60.070120
 20
5.840012
  0
VERTEX
  8
gto
 10
60.280121
 20
5.620011
  0
VERTEX
  8
gto
 10
60.280121
 20
5.410011
  0
VERTEX
  8
gto
 10
60.070120
 20
5.200010
  0
VERTEX
  8
gto
 10
59.860120
 20
5.200010
  0
VERTEX
  8
gto
 10
60.070120
 20
5.200010
  0
VERTEX
  8
gto
 10
60.280121
 20
4.990010
  0
VERTEX
  8
gto
 10
60.280121
 20
4.780010
  0
VERTEX
  8
gto
 10
60.070120
 20
4.570009
  0
VERTEX
  8
gto
 10
59.650119
 20
4.570009
  0
VERTEX
  8
gto
 10
59.430119
 20
4.780010
  0
SEQEND
  8
gto
  0
POLYLINE
  8
gto
 62
2
 40
0.000000
 41
0.000000
 66
  1
  0
VERTEX
  8
gto
 10
27.010054
 20
7.110014
  0
VERTEX
  8
gto
 10
26.160052
 20
7.110014
  0
VERTEX
  8
gto
 10
27.010054
 20
7.950016
  0
VERTEX
  8
gto
 10
27.010054
 20
8.160016
  0
VERTEX
  8
gto
 10
26.790054
 20
8.380017
  0
VERTEX
  8
gto
 10
26.370053
 20
8.380017
  0
VERTEX
  8
gto
 10
26.160052
 20
8.160016
  0
SEQEND
  8
gto
  0
POLYLINE
  8
gto
 62
2
 40
0.000000
 41
0.000000
 66
  1
  0
VERTEX
  8
gto
 10
26.160052
 20
4.570009
  0
VERTEX
  8
gto
 10
26.580053
 20
4.570009
  0
VERTEX
  8
gto
 10
26.370053
 20
4.570009
  0
VERTEX
  8
gto
 10
26.370053
 20
5.840012
  0
VERTEX
  8
gto
 10
26.160052
 20
5.620011
  0
SEQEND
  8
gto
  0
INSERT
  8
gtl
  2
D14
 10
7.720015
 20
7.620015
 41
1.0
 42
1.0
 43
1.0
 50
0.0
  0
POLYLINE
  8
gtl
 62
1
 40
0.000000
 41
0.000000
 66
  1
  0
VERTEX
  8
gtl
 10
36.320073
 20
19.340039
  0
VERTEX
  8
gtl
 10
40.140080
 20
23.160046
  0
VERTEX
  8
gtl
 10
40.140080
 20
26.110052
  0
VERTEX
  8
gtl
 10
40.150080
 20
26.120052
  0
SEQEND
  8
gtl
  0
POLYLINE
  8
gtl
 62
1
 40
0.000000
 41
0.000000
 66
  1
  0
VERTEX
  8
gtl
 10
30.360061
 20
26.100052
  0
VERTEX
  8
gtl
 10
30.380061
 20
26.080052
  0
SEQEND
  8
gtl
  0
POLYLINE
  8
gtl
 62
1
 40
0.000000
 41
0.000000
 66
  1
  0
VERTEX
  8
gtl
 10
30.380061
 20
17.120034
  0
VERTEX
  8
gtl
 10
33.720067
 20
13.770028
  0
SEQEND
  8
gtl
  0
POLYLINE
  8
gtl
 62
1
 40
0.000000
 41
0.000000
 66
  1
  0
VERTEX
  8
gtl
 10
30.380061
 20
17.120034
  0
VERTEX
  8
gtl
 10
30.380061
 20
26.080052
  0
SEQEND
  8
gtl
  0
POLYLINE
  8
gtl
 62
1
 40
0.000000
 41
0.000000
 66
  1
  0
VERTEX
  8
gtl
 10
50.680101
 20
23.280047
  0
VERTEX
  8
gtl
 10
50.680101
 20
26.120052
  0
SEQEND
  8
gtl
  0
POLYLINE
  8
gtl
 62
1
 40
0.000000
 41
0.000000
 66
  1
  0
VERTEX
  8
gtl
 10
42.050084
 20
20.420041
  0
VERTEX
  8
gtl
 10
47.830096
 20
20.420041
  0
VERTEX
  8
gtl
 10
50.680101
 20
23.280047
  0
SEQEND
  8
gtl
  0
POLYLINE
  8
gtl
 62
1
 40
0.000000
 41
0.000000
 66
  1
  0
VERTEX
  8
gtl
 10
38.860078
 20
17.240034
  0
VERTEX
  8
gtl
 10
42.050084
 20
20.420041
  0
SEQEND
  8
gtl
  0
POLYLINE
  8
gtl
 62
1
 40
0.000000
 41
0.000000
 66
  1
  0
VERTEX
  8
gtl
 10
62.720125
 20
11.850024
  0
VERTEX
  8
gtl
 10
68.570137
 20
17.700035
  0
SEQEND
  8
gtl
  0
POLYLINE
  8
gtl
 62
1
 40
0.000000
 41
0.000000
 66
  1
  0
VERTEX
  8
gtl
 10
56.000112
 20
16.000032
  0
VERTEX
  8
gtl
 10
61.500123
 20
21.500043
  0
SEQEND
  8
gtl
  0
POLYLINE
  8
gtl
 62
1
 40
0.000000
 41
0.000000
 66
  1
  0
VERTEX
  8
gtl
 10
60.780122
 20
13.820028
  0
VERTEX
  8
gtl
 10
66.050132
 20
19.100038
  0
SEQEND
  8
gtl
  0
POLYLINE
  8
gtl
 62
1
 40
0.000000
 41
0.000000
 66
  1
  0
VERTEX
  8
gtl
 10
68.570137
 20
17.700035
  0
VERTEX
  8
gtl
 10
68.570137
 20
21.310043
  0
SEQEND
  8
gtl
  0
POLYLINE
  8
gtl
 62
1
 40
0.000000
 41
0.000000
 66
  1
  0
VERTEX
  8
gtl
 10
66.050132
 20
24.000048
  0
VERTEX
  8
gtl
 10
68.570137
 20
26.520053
  0
SEQEND
  8
gtl
  0
POLYLINE
  8
gtl
 62
1
 40
0.000000
 41
0.000000
 66
  1
  0
VERTEX
  8
gtl
 10
66.050132
 20
19.100038
  0
VERTEX
  8
gtl
 10
66.050132
 20
24.000048
  0
SEQEND
  8
gtl
  0
POLYLINE
  8
gtl
 62
1
 40
0.000000
 41
0.000000
 66
  1
  0
VERTEX
  8
gtl
 10
61.500123
 20
26.500053
  0
VERTEX
  8
gtl
 10
62.000124
 20
26.500053
  0
SEQEND
  8
gtl
  0
POLYLINE
  8
gtl
 62
1
 40
0.000000
 41
0.000000
 66
  1
  0
VERTEX
  8
gtl
 10
53.100106
 20
18.100036
  0
VERTEX
  8
gtl
 10
61.500123
 20
26.500053
  0
SEQEND
  8
gtl
  0
POLYLINE
  8
gtl
 62
1
 40
0.000000
 41
0.000000
 66
  1
  0
VERTEX
  8
gtl
 10
61.500123
 20
21.500043
  0
VERTEX
  8
gtl
 10
62.000124
 20
21.500043
  0
SEQEND
  8
gtl
  0
POLYLINE
  8
gtl
 62
1
 40
0.000000
 41
0.000000
 66
  1
  0
VERTEX
  8
gtl
 10
43.780088
 20
13.830028
  0
VERTEX
  8
gtl
 10
45.950092
 20
16.000032
  0
SEQEND
  8
gtl
  0
POLYLINE
  8
gtl
 62
1
 40
0.000000
 41
0.000000
 66
  1
  0
VERTEX
  8
gtl
 10
49.020098
 20
10.620021
  0
VERTEX
  8
gtl
 10
50.250101
 20
11.850024
  0
SEQEND
  8
gtl
  0
POLYLINE
  8
gtl
 62
1
 40
0.000000
 41
0.000000
 66
  1
  0
VERTEX
  8
gtl
 10
48.050096
 20
13.820028
  0
VERTEX
  8
gtl
 10
60.780122
 20
13.820028
  0
SEQEND
  8
gtl
  0
POLYLINE
  8
gtl
 62
1
 40
0.000000
 41
0.000000
 66
  1
  0
VERTEX
  8
gtl
 10
49.020098
 20
7.610015
  0
VERTEX
  8
gtl
 10
49.020098
 20
10.620021
  0
SEQEND
  8
gtl
  0
POLYLINE
  8
gtl
 62
1
 40
0.000000
 41
0.000000
 66
  1
  0
VERTEX
  8
gtl
 10
46.480093
 20
7.610015
  0
VERTEX
  8
gtl
 10
46.480093
 20
12.260025
  0
VERTEX
  8
gtl
 10
48.050096
 20
13.820028
  0
SEQEND
  8
gtl
  0
POLYLINE
  8
gtl
 62
1
 40
0.000000
 41
0.000000
 66
  1
  0
VERTEX
  8
gtl
 10
45.950092
 20
16.000032
  0
VERTEX
  8
gtl
 10
56.000112
 20
16.000032
  0
SEQEND
  8
gtl
  0
POLYLINE
  8
gtl
 62
1
 40
0.000000
 41
0.000000
 66
  1
  0
VERTEX
  8
gtl
 10
44.030088
 20
18.100036
  0
VERTEX
  8
gtl
 10
53.100106
 20
18.100036
  0
SEQEND
  8
gtl
  0
POLYLINE
  8
gtl
 62
1
 40
0.000000
 41
0.000000
 66
  1
  0
VERTEX
  8
gtl
 10
43.780088
 20
7.780016
  0
VERTEX
  8
gtl
 10
43.780088
 20
13.830028
  0
SEQEND
  8
gtl
  0
POLYLINE
  8
gtl
 62
1
 40
0.000000
 41
0.000000
 66
  1
  0
VERTEX
  8
gtl
 10
50.250101
 20
11.850024
  0
VERTEX
  8
gtl
 10
62.720125
 20
11.850024
  0
SEQEND
  8
gtl
  0
POLYLINE
  8
gtl
 62
1
 40
0.000000
 41
0.000000
 66
  1
  0
VERTEX
  8
gtl
 10
41.380083
 20
15.450031
  0
VERTEX
  8
gtl
 10
44.030088
 20
18.100036
  0
SEQEND
  8
gtl
  0
POLYLINE
  8
gtl
 62
1
 40
0.000000
 41
0.000000
 66
  1
  0
VERTEX
  8
gtl
 10
41.380083
 20
7.640015
  0
VERTEX
  8
gtl
 10
41.380083
 20
15.450031
  0
SEQEND
  8
gtl
  0
POLYLINE
  8
gtl
 62
1
 40
0.000000
 41
0.000000
 66
  1
  0
VERTEX
  8
gtl
 10
38.860078
 20
7.610015
  0
VERTEX
  8
gtl
 10
38.860078
 20
17.240034
  0
SEQEND
  8
gtl
  0
POLYLINE
  8
gtl
 62
1
 40
0.000000
 41
0.000000
 66
  1
  0
VERTEX
  8
gtl
 10
33.720067
 20
7.670015
  0
VERTEX
  8
gtl
 10
33.720067
 20
13.770028
  0
SEQEND
  8
gtl
  0
POLYLINE
  8
gtl
 62
1
 40
0.000000
 41
0.000000
 66
  1
  0
VERTEX
  8
gtl
 10
36.320073
 20
7.610015
  0
VERTEX
  8
gtl
 10
36.320073
 20
19.340039
  0
SEQEND
  8
gtl
  0
POLYLINE
  8
gtl
 62
1
 40
0.000000
 41
0.000000
 66
  1
  0
VERTEX
  8
gtl
 10
7.720015
 20
7.620015
  0
VERTEX
  8
gtl
 10
13.520027
 20
7.620015
  0
VERTEX
  8
gtl
 10
19.600039
 20
1.550003
  0
SEQEND
  8
gtl
  0
POLYLINE
  8
gtl
 62
1
 40
0.000000
 41
0.000000
 66
  1
  0
VERTEX
  8
gtl
 10
51.920104
 20
1.550003
  0
VERTEX
  8
gtl
 10
54.100108
 20
3.720007
  0
SEQEND
  8
gtl
  0
POLYLINE
  8
gtl
 62
1
 40
0.000000
 41
0.000000
 66
  1
  0
VERTEX
  8
gtl
 10
19.600039
 20
1.550003
  0
VERTEX
  8
gtl
 10
51.920104
 20
1.550003
  0
SEQEND
  8
gtl
  0
POLYLINE
  8
gtl
 62
1
 40
0.000000
 41
0.000000
 66
  1
  0
VERTEX
  8
gtl
 10
54.100108
 20
3.720007
  0
VERTEX
  8
gtl
 10
54.100108
 20
5.070010
  0
SEQEND
  8
gtl
  0
POLYLINE
  8
gtl
 62
1
 40
0.000000
 41
0.000000
 66
  1
  0
VERTEX
  8
gtl
 10
20.200040
 20
26.120052
  0
VERTEX
  8
gtl
 10
20.270041
 20
26.050052
  0
SEQEND
  8
gtl
  0
POLYLINE
  8
gtl
 62
1
 40
0.000000
 41
0.000000
 66
  1
  0
VERTEX
  8
gtl
 10
20.270041
 20
20.750042
  0
VERTEX
  8
gtl
 10
20.270041
 20
26.050052
  0
SEQEND
  8
gtl
  0
POLYLINE
  8
gtl
 62
1
 40
0.000000
 41
0.000000
 66
  1
  0
VERTEX
  8
gtl
 10
57.380115
 20
8.470017
  0
VERTEX
  8
gtl
 10
67.300135
 20
8.470017
  0
SEQEND
  8
gtl
  0
POLYLINE
  8
gtl
 62
1
 40
0.000000
 41
0.000000
 66
  1
  0
VERTEX
  8
gtl
 10
25.030050
 20
8.470017
  0
VERTEX
  8
gtl
 10
27.800056
 20
8.470017
  0
SEQEND
  8
gtl
  0
POLYLINE
  8
gtl
 62
1
 40
0.000000
 41
0.000000
 66
  1
  0
VERTEX
  8
gtl
 10
69.270139
 20
4.150008
  0
VERTEX
  8
gtl
 10
80.180160
 20
15.050030
  0
SEQEND
  8
gtl
  0
POLYLINE
  8
gtl
 62
1
 40
0.000000
 41
0.000000
 66
  1
  0
VERTEX
  8
gtl
 10
75.100150
 20
16.280033
  0
VERTEX
  8
gtl
 10
75.100150
 20
25.800052
  0
SEQEND
  8
gtl
  0
POLYLINE
  8
gtl
 62
1
 40
0.000000
 41
0.000000
 66
  1
  0
VERTEX
  8
gtl
 10
67.300135
 20
8.470017
  0
VERTEX
  8
gtl
 10
75.100150
 20
16.280033
  0
SEQEND
  8
gtl
  0
POLYLINE
  8
gtl
 62
1
 40
0.000000
 41
0.000000
 66
  1
  0
VERTEX
  8
gtl
 10
80.180160
 20
15.050030
  0
VERTEX
  8
gtl
 10
80.180160
 20
25.760052
  0
SEQEND
  8
gtl
  0
POLYLINE
  8
gtl
 62
1
 40
0.000000
 41
0.000000
 66
  1
  0
VERTEX
  8
gtl
 10
57.300115
 20
4.150008
  0
VERTEX
  8
gtl
 10
69.270139
 20
4.150008
  0
SEQEND
  8
gtl
  0
POLYLINE
  8
gtl
 62
1
 40
0.000000
 41
0.000000
 66
  1
  0
VERTEX
  8
gtl
 10
10.020020
 20
23.480047
  0
VERTEX
  8
gtl
 10
25.030050
 20
8.470017
  0
SEQEND
  8
gtl
  0
POLYLINE
  8
gtl
 62
1
 40
0.000000
 41
0.000000
 66
  1
  0
VERTEX
  8
gtl
 10
10.020020
 20
23.480047
  0
VERTEX
  8
gtl
 10
10.020020
 20
26.120052
  0
SEQEND
  8
gtl
  0
POLYLINE
  8
gtl
 62
1
 40
0.000000
 41
0.000000
 66
  1
  0
VERTEX
  8
gtl
 10
41.380083
 20
7.640015
  0
VERTEX
  8
gtl
 10
41.400083
 20
7.610015
  0
SEQEND
  8
gtl
  0
POLYLINE
  8
gtl
 62
1
 40
0.000000
 41
0.000000
 66
  1
  0
VERTEX
  8
gtl
 10
43.780088
 20
7.780016
  0
VERTEX
  8
gtl
 10
43.940088
 20
7.610015
  0
SEQEND
  8
gtl
  0
POLYLINE
  8
gtl
 62
1
 40
0.000000
 41
0.000000
 66
  1
  0
VERTEX
  8
gtl
 10
31.240062
 20
7.610015
  0
VERTEX
  8
gtl
 10
31.240062
 20
9.780020
  0
SEQEND
  8
gtl
  0
POLYLINE
  8
gtl
 62
1
 40
0.000000
 41
0.000000
 66
  1
  0
VERTEX
  8
gtl
 10
33.720067
 20
7.670015
  0
VERTEX
  8
gtl
 10
33.780068
 20
7.610015
  0
SEQEND
  8
gtl
  0
POLYLINE
  8
gtl
 62
1
 40
0.000000
 41
0.000000
 66
  1
  0
VERTEX
  8
gtl
 10
20.270041
 20
20.750042
  0
VERTEX
  8
gtl
 10
31.240062
 20
9.780020
  0
SEQEND
  8
gtl
  0
POLYLINE
  8
gtl
 62
1
 40
0.000000
 41
0.000000
 66
  1
  0
VERTEX
  8
gtl
 10
22.820046
 20
4.180008
  0
VERTEX
  8
gtl
 10
27.900056
 20
4.180008
  0
SEQEND
  8
gtl
  0
POLYLINE
  8
gtl
 62
1
 40
0.000000
 41
0.000000
 66
  1
  0
VERTEX
  8
gtl
 10
4.970010
 20
22.030044
  0
VERTEX
  8
gtl
 10
22.820046
 20
4.180008
  0
SEQEND
  8
gtl
  0
POLYLINE
  8
gtl
 62
1
 40
0.000000
 41
0.000000
 66
  1
  0
VERTEX
  8
gtl
 10
4.970010
 20
22.030044
  0
VERTEX
  8
gtl
 10
4.970010
 20
26.090052
  0
SEQEND
  8
gtl
  0
POLYLINE
  8
gtl
 62
1
 40
0.000000
 41
0.000000
 66
  1
  0
VERTEX
  8
gtl
 10
4.950010
 20
26.120052
  0
VERTEX
  8
gtl
 10
4.970010
 20
26.090052
  0
SEQEND
  8
gtl
  0
INSERT
  8
gtl
  2
D19
 10
4.500009
 20
3.500007
 41
1.0
 42
1.0
 43
1.0
 50
0.0
  0
INSERT
  8
gtl
  2
D19
 10
56.500113
 20
26.500053
 41
1.0
 42
1.0
 43
1.0
 50
0.0
  0
INSERT
  8
gtl
  2
D19
 10
80.500161
 20
4.500009
 41
1.0
 42
1.0
 43
1.0
 50
0.0
  0
INSERT
  8
gtl
  2
D20
 10
15.120030
 20
26.100052
 41
1.0
 42
1.0
 43
1.0
 50
0.0
  0
INSERT
  8
gtl
  2
D20
 10
20.200040
 20
26.100052
 41
1.0
 42
1.0
 43
1.0
 50
0.0
  0
INSERT
  8
gtl
  2
D20
 10
25.280051
 20
26.100052
 41
1.0
 42
1.0
 43
1.0
 50
0.0
  0
INSERT
  8
gtl
  2
D20
 10
75.100150
 20
26.100052
 41
1.0
 42
1.0
 43
1.0
 50
0.0
  0
INSERT
  8
gtl
  2
D20
 10
80.180160
 20
26.100052
 41
1.0
 42
1.0
 43
1.0
 50
0.0
  0
INSERT
  8
gtl
  2
D20
 10
10.020020
 20
26.100052
 41
1.0
 42
1.0
 43
1.0
 50
0.0
  0
INSERT
  8
gtl
  2
D20
 10
4.950010
 20
26.100052
 41
1.0
 42
1.0
 43
1.0
 50
0.0
  0
INSERT
  8
gtl
  2
D20
 10
30.360061
 20
26.100052
 41
1.0
 42
1.0
 43
1.0
 50
0.0
  0
INSERT
  8
gtl
  2
D20
 10
35.440071
 20
26.100052
 41
1.0
 42
1.0
 43
1.0
 50
0.0
  0
INSERT
  8
gtl
  2
D20
 10
40.520081
 20
26.100052
 41
1.0
 42
1.0
 43
1.0
 50
0.0
  0
INSERT
  8
gtl
  2
D20
 10
45.600091
 20
26.100052
 41
1.0
 42
1.0
 43
1.0
 50
0.0
  0
INSERT
  8
gtl
  2
D20
 10
50.680101
 20
26.100052
 41
1.0
 42
1.0
 43
1.0
 50
0.0
  0
INSERT
  8
gtl
  2
D21
 10
62.000124
 20
21.420043
 41
1.0
 42
1.0
 43
1.0
 50
0.0
  0
INSERT
  8
gtl
  2
D21
 10
68.570137
 20
21.420043
 41
1.0
 42
1.0
 43
1.0
 50
0.0
  0
INSERT
  8
gtl
  2
D22
 10
62.000124
 20
23.920048
 41
1.0
 42
1.0
 43
1.0
 50
0.0
  0
INSERT
  8
gtl
  2
D22
 10
62.000124
 20
26.420053
 41
1.0
 42
1.0
 43
1.0
 50
0.0
  0
INSERT
  8
gtl
  2
D22
 10
62.000124
 20
28.920058
 41
1.0
 42
1.0
 43
1.0
 50
0.0
  0
INSERT
  8
gtl
  2
D22
 10
68.570137
 20
23.920048
 41
1.0
 42
1.0
 43
1.0
 50
0.0
  0
INSERT
  8
gtl
  2
D22
 10
68.570137
 20
26.420053
 41
1.0
 42
1.0
 43
1.0
 50
0.0
  0
INSERT
  8
gtl
  2
D22
 10
68.570137
 20
28.920058
 41
1.0
 42
1.0
 43
1.0
 50
0.0
  0
INSERT
  8
gtl
  2
D23
 10
56.640113
 20
7.610015
 41
1.0
 42
1.0
 43
1.0
 50
0.0
  0
INSERT
  8
gtl
  2
D23
 10
56.640113
 20
5.070010
 41
1.0
 42
1.0
 43
1.0
 50
0.0
  0
INSERT
  8
gtl
  2
D23
 10
54.100108
 20
7.610015
 41
1.0
 42
1.0
 43
1.0
 50
0.0
  0
INSERT
  8
gtl
  2
D23
 10
54.100108
 20
5.070010
 41
1.0
 42
1.0
 43
1.0
 50
0.0
  0
INSERT
  8
gtl
  2
D23
 10
51.560103
 20
7.610015
 41
1.0
 42
1.0
 43
1.0
 50
0.0
  0
INSERT
  8
gtl
  2
D23
 10
51.560103
 20
5.070010
 41
1.0
 42
1.0
 43
1.0
 50
0.0
  0
INSERT
  8
gtl
  2
D23
 10
49.020098
 20
7.610015
 41
1.0
 42
1.0
 43
1.0
 50
0.0
  0
INSERT
  8
gtl
  2
D23
 10
49.020098
 20
5.070010
 41
1.0
 42
1.0
 43
1.0
 50
0.0
  0
INSERT
  8
gtl
  2
D23
 10
46.480093
 20
7.610015
 41
1.0
 42
1.0
 43
1.0
 50
0.0
  0
INSERT
  8
gtl
  2
D23
 10
46.480093
 20
5.070010
 41
1.0
 42
1.0
 43
1.0
 50
0.0
  0
INSERT
  8
gtl
  2
D23
 10
43.940088
 20
7.610015
 41
1.0
 42
1.0
 43
1.0
 50
0.0
  0
INSERT
  8
gtl
  2
D23
 10
43.940088
 20
5.070010
 41
1.0
 42
1.0
 43
1.0
 50
0.0
  0
INSERT
  8
gtl
  2
D23
 10
41.400083
 20
7.610015
 41
1.0
 42
1.0
 43
1.0
 50
0.0
  0
INSERT
  8
gtl
  2
D23
 10
41.400083
 20
5.070010
 41
1.0
 42
1.0
 43
1.0
 50
0.0
  0
INSERT
  8
gtl
  2
D23
 10
38.860078
 20
7.610015
 41
1.0
 42
1.0
 43
1.0
 50
0.0
  0
INSERT
  8
gtl
  2
D23
 10
38.860078
 20
5.070010
 41
1.0
 42
1.0
 43
1.0
 50
0.0
  0
INSERT
  8
gtl
  2
D23
 10
36.320073
 20
7.610015
 41
1.0
 42
1.0
 43
1.0
 50
0.0
  0
INSERT
  8
gtl
  2
D23
 10
36.320073
 20
5.070010
 41
1.0
 42
1.0
 43
1.0
 50
0.0
  0
INSERT
  8
gtl
  2
D23
 10
33.780068
 20
7.610015
 41
1.0
 42
1.0
 43
1.0
 50
0.0
  0
INSERT
  8
gtl
  2
D23
 10
33.780068
 20
5.070010
 41
1.0
 42
1.0
 43
1.0
 50
0.0
  0
INSERT
  8
gtl
  2
D23
 10
31.240062
 20
7.610015
 41
1.0
 42
1.0
 43
1.0
 50
0.0
  0
INSERT
  8
gtl
  2
D23
 10
31.240062
 20
5.070010
 41
1.0
 42
1.0
 43
1.0
 50
0.0
  0
INSERT
  8
gtl
  2
D23
 10
28.700057
 20
7.610015
 41
1.0
 42
1.0
 43
1.0
 50
0.0
  0
INSERT
  8
gtl
  2
D24
 10
28.700057
 20
5.070010
 41
1.0
 42
1.0
 43
1.0
 50
0.0
  0
INSERT
  8
gbl
  2
D14
 10
7.550015
 20
11.600023
 41
1.0
 42
1.0
 43
1.0
 50
0.0
  0
INSERT
  8
gbl
  2
D14
 10
7.550015
 20
15.620031
 41
1.0
 42
1.0
 43
1.0
 50
0.0
  0
POLYLINE
  8
gbl
 62
5
 40
0.000000
 41
0.000000
 66
  1
  0
VERTEX
  8
gbl
 10
35.330071
 20
8.960018
  0
VERTEX
  8
gbl
 10
35.330071
 20
25.990052
  0
SEQEND
  8
gbl
  0
POLYLINE
  8
gbl
 62
5
 40
0.000000
 41
0.000000
 66
  1
  0
VERTEX
  8
gbl
 10
35.050070
 20
8.690017
  0
VERTEX
  8
gbl
 10
35.330071
 20
8.960018
  0
SEQEND
  8
gbl
  0
POLYLINE
  8
gbl
 62
5
 40
0.000000
 41
0.000000
 66
  1
  0
VERTEX
  8
gbl
 10
35.330071
 20
25.990052
  0
VERTEX
  8
gbl
 10
35.440071
 20
26.100052
  0
SEQEND
  8
gbl
  0
POLYLINE
  8
gbl
 62
5
 40
0.000000
 41
0.000000
 66
  1
  0
VERTEX
  8
gbl
 10
64.680129
 20
25.120050
  0
VERTEX
  8
gbl
 10
68.570137
 20
29.020058
  0
SEQEND
  8
gbl
  0
POLYLINE
  8
gbl
 62
5
 40
0.000000
 41
0.000000
 66
  1
  0
VERTEX
  8
gbl
 10
51.200102
 20
12.280025
  0
VERTEX
  8
gbl
 10
62.330125
 20
12.280025
  0
SEQEND
  8
gbl
  0
POLYLINE
  8
gbl
 62
5
 40
0.000000
 41
0.000000
 66
  1
  0
VERTEX
  8
gbl
 10
49.400099
 20
14.280029
  0
VERTEX
  8
gbl
 10
58.780118
 20
14.280029
  0
SEQEND
  8
gbl
  0
POLYLINE
  8
gbl
 62
5
 40
0.000000
 41
0.000000
 66
  1
  0
VERTEX
  8
gbl
 10
47.400095
 20
16.280033
  0
VERTEX
  8
gbl
 10
54.230108
 20
16.280033
  0
SEQEND
  8
gbl
  0
POLYLINE
  8
gbl
 62
5
 40
0.000000
 41
0.000000
 66
  1
  0
VERTEX
  8
gbl
 10
46.250093
 20
18.480037
  0
VERTEX
  8
gbl
 10
52.750106
 20
18.480037
  0
SEQEND
  8
gbl
  0
POLYLINE
  8
gbl
 62
5
 40
0.000000
 41
0.000000
 66
  1
  0
VERTEX
  8
gbl
 10
42.680085
 20
11.550023
  0
VERTEX
  8
gbl
 10
47.400095
 20
16.280033
  0
SEQEND
  8
gbl
  0
POLYLINE
  8
gbl
 62
5
 40
0.000000
 41
0.000000
 66
  1
  0
VERTEX
  8
gbl
 10
51.560103
 20
5.070010
  0
VERTEX
  8
gbl
 10
54.100108
 20
7.610015
  0
SEQEND
  8
gbl
  0
POLYLINE
  8
gbl
 62
5
 40
0.000000
 41
0.000000
 66
  1
  0
VERTEX
  8
gbl
 10
25.250051
 20
18.330037
  0
VERTEX
  8
gbl
 10
32.500065
 20
11.080022
  0
SEQEND
  8
gbl
  0
POLYLINE
  8
gbl
 62
5
 40
0.000000
 41
0.000000
 66
  1
  0
VERTEX
  8
gbl
 10
51.560103
 20
5.070010
  0
VERTEX
  8
gbl
 10
51.650103
 20
4.980010
  0
SEQEND
  8
gbl
  0
POLYLINE
  8
gbl
 62
5
 40
0.000000
 41
0.000000
 66
  1
  0
VERTEX
  8
gbl
 10
51.560103
 20
5.070010
  0
VERTEX
  8
gbl
 10
51.560103
 20
5.070010
  0
SEQEND
  8
gbl
  0
POLYLINE
  8
gbl
 62
5
 40
0.000000
 41
0.000000
 66
  1
  0
VERTEX
  8
gbl
 10
60.500121
 20
29.000058
  0
VERTEX
  8
gbl
 10
62.000124
 20
29.000058
  0
SEQEND
  8
gbl
  0
POLYLINE
  8
gbl
 62
5
 40
0.000000
 41
0.000000
 66
  1
  0
VERTEX
  8
gbl
 10
64.680129
 20
20.170040
  0
VERTEX
  8
gbl
 10
64.680129
 20
25.120050
  0
SEQEND
  8
gbl
  0
POLYLINE
  8
gbl
 62
5
 40
0.000000
 41
0.000000
 66
  1
  0
VERTEX
  8
gbl
 10
60.000120
 20
28.500057
  0
VERTEX
  8
gbl
 10
60.500121
 20
29.000058
  0
SEQEND
  8
gbl
  0
POLYLINE
  8
gbl
 62
5
 40
0.000000
 41
0.000000
 66
  1
  0
VERTEX
  8
gbl
 10
60.000120
 20
25.730051
  0
VERTEX
  8
gbl
 10
60.000120
 20
28.500057
  0
SEQEND
  8
gbl
  0
POLYLINE
  8
gbl
 62
5
 40
0.000000
 41
0.000000
 66
  1
  0
VERTEX
  8
gbl
 10
58.780118
 20
14.280029
  0
VERTEX
  8
gbl
 10
64.680129
 20
20.170040
  0
SEQEND
  8
gbl
  0
POLYLINE
  8
gbl
 62
5
 40
0.000000
 41
0.000000
 66
  1
  0
VERTEX
  8
gbl
 10
54.230108
 20
16.280033
  0
VERTEX
  8
gbl
 10
61.950124
 20
24.000048
  0
SEQEND
  8
gbl
  0
POLYLINE
  8
gbl
 62
5
 40
0.000000
 41
0.000000
 66
  1
  0
VERTEX
  8
gbl
 10
52.750106
 20
18.480037
  0
VERTEX
  8
gbl
 10
60.000120
 20
25.730051
  0
SEQEND
  8
gbl
  0
POLYLINE
  8
gbl
 62
5
 40
0.000000
 41
0.000000
 66
  1
  0
VERTEX
  8
gbl
 10
61.950124
 20
24.000048
  0
VERTEX
  8
gbl
 10
62.000124
 20
24.000048
  0
SEQEND
  8
gbl
  0
POLYLINE
  8
gbl
 62
5
 40
0.000000
 41
0.000000
 66
  1
  0
VERTEX
  8
gbl
 10
45.600091
 20
21.050042
  0
VERTEX
  8
gbl
 10
45.600091
 20
27.180054
  0
SEQEND
  8
gbl
  0
POLYLINE
  8
gbl
 62
5
 40
0.000000
 41
0.000000
 66
  1
  0
VERTEX
  8
gbl
 10
21.750044
 20
3.670007
  0
VERTEX
  8
gbl
 10
50.330101
 20
3.670007
  0
SEQEND
  8
gbl
  0
POLYLINE
  8
gbl
 62
5
 40
0.000000
 41
0.000000
 66
  1
  0
VERTEX
  8
gbl
 10
62.330125
 20
12.280025
  0
VERTEX
  8
gbl
 10
67.100134
 20
17.050034
  0
VERTEX
  8
gbl
 10
67.100134
 20
23.550047
  0
VERTEX
  8
gbl
 10
67.470135
 20
23.930048
  0
VERTEX
  8
gbl
 10
68.560137
 20
23.930048
  0
SEQEND
  8
gbl
  0
POLYLINE
  8
gbl
 62
5
 40
0.000000
 41
0.000000
 66
  1
  0
VERTEX
  8
gbl
 10
9.800020
 20
15.620031
  0
VERTEX
  8
gbl
 10
21.750044
 20
3.670007
  0
SEQEND
  8
gbl
  0
POLYLINE
  8
gbl
 62
5
 40
0.000000
 41
0.000000
 66
  1
  0
VERTEX
  8
gbl
 10
15.120030
 20
25.380051
  0
VERTEX
  8
gbl
 10
30.000060
 20
10.490021
  0
SEQEND
  8
gbl
  0
POLYLINE
  8
gbl
 62
5
 40
0.000000
 41
0.000000
 66
  1
  0
VERTEX
  8
gbl
 10
25.250051
 20
18.330037
  0
VERTEX
  8
gbl
 10
25.250051
 20
26.090052
  0
VERTEX
  8
gbl
 10
25.280051
 20
26.120052
  0
SEQEND
  8
gbl
  0
POLYLINE
  8
gbl
 62
5
 40
0.000000
 41
0.000000
 66
  1
  0
VERTEX
  8
gbl
 10
15.120030
 20
25.380051
  0
VERTEX
  8
gbl
 10
15.120030
 20
26.120052
  0
SEQEND
  8
gbl
  0
POLYLINE
  8
gbl
 62
5
 40
0.000000
 41
0.000000
 66
  1
  0
VERTEX
  8
gbl
 10
45.130090
 20
20.680041
  0
VERTEX
  8
gbl
 10
45.230090
 20
20.680041
  0
SEQEND
  8
gbl
  0
POLYLINE
  8
gbl
 62
5
 40
0.000000
 41
0.000000
 66
  1
  0
VERTEX
  8
gbl
 10
37.600075
 20
13.150026
  0
VERTEX
  8
gbl
 10
45.130090
 20
20.680041
  0
SEQEND
  8
gbl
  0
POLYLINE
  8
gbl
 62
5
 40
0.000000
 41
0.000000
 66
  1
  0
VERTEX
  8
gbl
 10
40.130080
 20
12.350025
  0
VERTEX
  8
gbl
 10
46.250093
 20
18.480037
  0
SEQEND
  8
gbl
  0
POLYLINE
  8
gbl
 62
5
 40
0.000000
 41
0.000000
 66
  1
  0
VERTEX
  8
gbl
 10
45.230090
 20
20.680041
  0
VERTEX
  8
gbl
 10
45.600091
 20
21.050042
  0
SEQEND
  8
gbl
  0
POLYLINE
  8
gbl
 62
5
 40
0.000000
 41
0.000000
 66
  1
  0
VERTEX
  8
gbl
 10
7.550015
 20
11.600023
  0
VERTEX
  8
gbl
 10
9.800020
 20
11.600023
  0
SEQEND
  8
gbl
  0
POLYLINE
  8
gbl
 62
5
 40
0.000000
 41
0.000000
 66
  1
  0
VERTEX
  8
gbl
 10
7.550015
 20
15.620031
  0
VERTEX
  8
gbl
 10
9.800020
 20
15.620031
  0
SEQEND
  8
gbl
  0
POLYLINE
  8
gbl
 62
5
 40
0.000000
 41
0.000000
 66
  1
  0
VERTEX
  8
gbl
 10
19.900040
 20
1.500003
  0
VERTEX
  8
gbl
 10
51.200102
 20
1.500003
  0
SEQEND
  8
gbl
  0
POLYLINE
  8
gbl
 62
5
 40
0.000000
 41
0.000000
 66
  1
  0
VERTEX
  8
gbl
 10
9.800020
 20
11.600023
  0
VERTEX
  8
gbl
 10
19.900040
 20
1.500003
  0
SEQEND
  8
gbl
  0
POLYLINE
  8
gbl
 62
5
 40
0.000000
 41
0.000000
 66
  1
  0
VERTEX
  8
gbl
 10
51.200102
 20
1.500003
  0
VERTEX
  8
gbl
 10
51.650103
 20
1.950004
  0
VERTEX
  8
gbl
 10
51.650103
 20
4.980010
  0
SEQEND
  8
gbl
  0
POLYLINE
  8
gbl
 62
5
 40
0.000000
 41
0.000000
 66
  1
  0
VERTEX
  8
gbl
 10
35.050070
 20
6.510013
  0
VERTEX
  8
gbl
 10
36.320073
 20
5.240010
  0
SEQEND
  8
gbl
  0
POLYLINE
  8
gbl
 62
5
 40
0.000000
 41
0.000000
 66
  1
  0
VERTEX
  8
gbl
 10
42.680085
 20
6.340013
  0
VERTEX
  8
gbl
 10
43.940088
 20
5.070010
  0
SEQEND
  8
gbl
  0
POLYLINE
  8
gbl
 62
5
 40
0.000000
 41
0.000000
 66
  1
  0
VERTEX
  8
gbl
 10
32.500065
 20
6.360013
  0
VERTEX
  8
gbl
 10
33.780068
 20
5.070010
  0
SEQEND
  8
gbl
  0
POLYLINE
  8
gbl
 62
5
 40
0.000000
 41
0.000000
 66
  1
  0
VERTEX
  8
gbl
 10
31.240062
 20
5.070010
  0
VERTEX
  8
gbl
 10
31.240062
 20
5.260011
  0
SEQEND
  8
gbl
  0
POLYLINE
  8
gbl
 62
5
 40
0.000000
 41
0.000000
 66
  1
  0
VERTEX
  8
gbl
 10
36.320073
 20
5.070010
  0
VERTEX
  8
gbl
 10
36.320073
 20
5.240010
  0
SEQEND
  8
gbl
  0
POLYLINE
  8
gbl
 62
5
 40
0.000000
 41
0.000000
 66
  1
  0
VERTEX
  8
gbl
 10
37.600075
 20
6.330013
  0
VERTEX
  8
gbl
 10
38.860078
 20
5.070010
  0
SEQEND
  8
gbl
  0
POLYLINE
  8
gbl
 62
5
 40
0.000000
 41
0.000000
 66
  1
  0
VERTEX
  8
gbl
 10
40.130080
 20
6.350013
  0
VERTEX
  8
gbl
 10
41.400083
 20
5.070010
  0
SEQEND
  8
gbl
  0
POLYLINE
  8
gbl
 62
5
 40
0.000000
 41
0.000000
 66
  1
  0
VERTEX
  8
gbl
 10
30.000060
 20
8.500017
  0
VERTEX
  8
gbl
 10
30.000060
 20
10.490021
  0
SEQEND
  8
gbl
  0
POLYLINE
  8
gbl
 62
5
 40
0.000000
 41
0.000000
 66
  1
  0
VERTEX
  8
gbl
 10
29.980060
 20
6.520013
  0
VERTEX
  8
gbl
 10
31.240062
 20
5.260011
  0
SEQEND
  8
gbl
  0
POLYLINE
  8
gbl
 62
5
 40
0.000000
 41
0.000000
 66
  1
  0
VERTEX
  8
gbl
 10
48.790098
 20
5.070010
  0
VERTEX
  8
gbl
 10
49.020098
 20
5.070010
  0
SEQEND
  8
gbl
  0
POLYLINE
  8
gbl
 62
5
 40
0.000000
 41
0.000000
 66
  1
  0
VERTEX
  8
gbl
 10
45.200090
 20
10.070020
  0
VERTEX
  8
gbl
 10
49.400099
 20
14.280029
  0
SEQEND
  8
gbl
  0
POLYLINE
  8
gbl
 62
5
 40
0.000000
 41
0.000000
 66
  1
  0
VERTEX
  8
gbl
 10
45.200090
 20
6.360013
  0
VERTEX
  8
gbl
 10
46.480093
 20
5.070010
  0
SEQEND
  8
gbl
  0
POLYLINE
  8
gbl
 62
5
 40
0.000000
 41
0.000000
 66
  1
  0
VERTEX
  8
gbl
 10
47.750096
 20
8.820018
  0
VERTEX
  8
gbl
 10
51.200102
 20
12.280025
  0
SEQEND
  8
gbl
  0
POLYLINE
  8
gbl
 62
5
 40
0.000000
 41
0.000000
 66
  1
  0
VERTEX
  8
gbl
 10
47.750096
 20
6.110012
  0
VERTEX
  8
gbl
 10
48.790098
 20
5.070010
  0
SEQEND
  8
gbl
  0
INSERT
  8
gbl
  2
D19
 10
4.500009
 20
3.500007
 41
1.0
 42
1.0
 43
1.0
 50
0.0
  0
INSERT
  8
gbl
  2
D19
 10
56.500113
 20
26.500053
 41
1.0
 42
1.0
 43
1.0
 50
0.0
  0
INSERT
  8
gbl
  2
D19
 10
80.500161
 20
4.500009
 41
1.0
 42
1.0
 43
1.0
 50
0.0
  0
INSERT
  8
gbl
  2
D20
 10
15.120030
 20
26.100052
 41
1.0
 42
1.0
 43
1.0
 50
0.0
  0
INSERT
  8
gbl
  2
D20
 10
20.200040
 20
26.100052
 41
1.0
 42
1.0
 43
1.0
 50
0.0
  0
INSERT
  8
gbl
  2
D20
 10
25.280051
 20
26.100052
 41
1.0
 42
1.0
 43
1.0
 50
0.0
  0
INSERT
  8
gbl
  2
D20
 10
75.100150
 20
26.100052
 41
1.0
 42
1.0
 43
1.0
 50
0.0
  0
INSERT
  8
gbl
  2
D20
 10
80.180160
 20
26.100052
 41
1.0
 42
1.0
 43
1.0
 50
0.0
  0
INSERT
  8
gbl
  2
D20
 10
10.020020
 20
26.100052
 41
1.0
 42
1.0
 43
1.0
 50
0.0
  0
INSERT
  8
gbl
  2
D20
 10
4.950010
 20
26.100052
 41
1.0
 42
1.0
 43
1.0
 50
0.0
  0
INSERT
  8
gbl
  2
D20
 10
30.360061
 20
26.100052
 41
1.0
 42
1.0
 43
1.0
 50
0.0
  0
INSERT
  8
gbl
  2
D20
 10
35.440071
 20
26.100052
 41
1.0
 42
1.0
 43
1.0
 50
0.0
  0
INSERT
  8
gbl
  2
D20
 10
40.520081
 20
26.100052
 41
1.0
 42
1.0
 43
1.0
 50
0.0
  0
INSERT
  8
gbl
  2
D20
 10
45.600091
 20
26.100052
 41
1.0
 42
1.0
 43
1.0
 50
0.0
  0
INSERT
  8
gbl
  2
D20
 10
50.680101
 20
26.100052
 41
1.0
 42
1.0
 43
1.0
 50
0.0
  0
INSERT
  8
gbl
  2
D21
 10
62.000124
 20
21.420043
 41
1.0
 42
1.0
 43
1.0
 50
0.0
  0
INSERT
  8
gbl
  2
D21
 10
68.570137
 20
21.420043
 41
1.0
 42
1.0
 43
1.0
 50
0.0
  0
INSERT
  8
gbl
  2
D22
 10
62.000124
 20
23.920048
 41
1.0
 42
1.0
 43
1.0
 50
0.0
  0
INSERT
  8
gbl
  2
D22
 10
62.000124
 20
26.420053
 41
1.0
 42
1.0
 43
1.0
 50
0.0
  0
INSERT
  8
gbl
  2
D22
 10
62.000124
 20
28.920058
 41
1.0
 42
1.0
 43
1.0
 50
0.0
  0
INSERT
  8
gbl
  2
D22
 10
68.570137
 20
23.920048
 41
1.0
 42
1.0
 43
1.0
 50
0.0
  0
INSERT
  8
gbl
  2
D22
 10
68.570137
 20
26.420053
 41
1.0
 42
1.0
 43
1.0
 50
0.0
  0
INSERT
  8
gbl
  2
D22
 10
68.570137
 20
28.920058
 41
1.0
 42
1.0
 43
1.0
 50
0.0
  0
INSERT
  8
gbl
  2
D23
 10
56.640113
 20
7.610015
 41
1.0
 42
1.0
 43
1.0
 50
0.0
  0
INSERT
  8
gbl
  2
D23
 10
56.640113
 20
5.070010
 41
1.0
 42
1.0
 43
1.0
 50
0.0
  0
INSERT
  8
gbl
  2
D23
 10
54.100108
 20
7.610015
 41
1.0
 42
1.0
 43
1.0
 50
0.0
  0
INSERT
  8
gbl
  2
D23
 10
54.100108
 20
5.070010
 41
1.0
 42
1.0
 43
1.0
 50
0.0
  0
INSERT
  8
gbl
  2
D23
 10
51.560103
 20
7.610015
 41
1.0
 42
1.0
 43
1.0
 50
0.0
  0
INSERT
  8
gbl
  2
D23
 10
51.560103
 20
5.070010
 41
1.0
 42
1.0
 43
1.0
 50
0.0
  0
INSERT
  8
gbl
  2
D23
 10
49.020098
 20
7.610015
 41
1.0
 42
1.0
 43
1.0
 50
0.0
  0
INSERT
  8
gbl
  2
D23
 10
49.020098
 20
5.070010
 41
1.0
 42
1.0
 43
1.0
 50
0.0
  0
INSERT
  8
gbl
  2
D23
 10
46.480093
 20
7.610015
 41
1.0
 42
1.0
 43
1.0
 50
0.0
  0
INSERT
  8
gbl
  2
D23
 10
46.480093
 20
5.070010
 41
1.0
 42
1.0
 43
1.0
 50
0.0
  0
INSERT
  8
gbl
  2
D23
 10
43.940088
 20
7.610015
 41
1.0
 42
1.0
 43
1.0
 50
0.0
  0
INSERT
  8
gbl
  2
D23
 10
43.940088
 20
5.070010
 41
1.0
 42
1.0
 43
1.0
 50
0.0
  0
INSERT
  8
gbl
  2
D23
 10
41.400083
 20
7.610015
 41
1.0
 42
1.0
 43
1.0
 50
0.0
  0
INSERT
  8
gbl
  2
D23
 10
41.400083
 20
5.070010
 41
1.0
 42
1.0
 43
1.0
 50
0.0
  0
INSERT
  8
gbl
  2
D23
 10
38.860078
 20
7.610015
 41
1.0
 42
1.0
 43
1.0
 50
0.0
  0
INSERT
  8
gbl
  2
D23
 10
38.860078
 20
5.070010
 41
1.0
 42
1.0
 43
1.0
 50
0.0
  0
INSERT
  8
gbl
  2
D23
 10
36.320073
 20
7.610015
 41
1.0
 42
1.0
 43
1.0
 50
0.0
  0
INSERT
  8
gbl
  2
D23
 10
36.320073
 20
5.070010
 41
1.0
 42
1.0
 43
1.0
 50
0.0
  0
INSERT
  8
gbl
  2
D23
 10
33.780068
 20
7.610015
 41
1.0
 42
1.0
 43
1.0
 50
0.0
  0
INSERT
  8
gbl
  2
D23
 10
33.780068
 20
5.070010
 41
1.0
 42
1.0
 43
1.0
 50
0.0
  0
INSERT
  8
gbl
  2
D23
 10
31.240062
 20
7.610015
 41
1.0
 42
1.0
 43
1.0
 50
0.0
  0
INSERT
  8
gbl
  2
D23
 10
31.240062
 20
5.070010
 41
1.0
 42
1.0
 43
1.0
 50
0.0
  0
INSERT
  8
gbl
  2
D23
 10
28.700057
 20
7.610015
 41
1.0
 42
1.0
 43
1.0
 50
0.0
  0
INSERT
  8
gbl
  2
D24
 10
28.700057
 20
5.070010
 41
1.0
 42
1.0
 43
1.0
 50
0.0
  0
POLYLINE
  8
gbl
 62
5
 40
0.000000
 41
0.000000
 66
  1
  0
VERTEX
  8
gbl
 10
35.050070
 20
8.690017
  0
VERTEX
  8
gbl
 10
35.050070
 20
8.680017
  0
SEQEND
  8
gbl
  0
POLYLINE
  8
gbl
 62
5
 40
0.000000
 41
0.000000
 66
  1
  0
VERTEX
  8
gbl
 10
35.050070
 20
6.510013
  0
VERTEX
  8
gbl
 10
35.050070
 20
8.680017
  0
SEQEND
  8
gbl
  0
POLYLINE
  8
gbl
 62
5
 40
0.000000
 41
0.000000
 66
  1
  0
VERTEX
  8
gbl
 10
50.280101
 20
3.670007
  0
VERTEX
  8
gbl
 10
50.280101
 20
6.330013
  0
VERTEX
  8
gbl
 10
51.560103
 20
7.610015
  0
SEQEND
  8
gbl
  0
POLYLINE
  8
gbl
 62
5
 40
0.000000
 41
0.000000
 66
  1
  0
VERTEX
  8
gbl
 10
37.600075
 20
6.330013
  0
VERTEX
  8
gbl
 10
37.600075
 20
13.150026
  0
SEQEND
  8
gbl
  0
POLYLINE
  8
gbl
 62
5
 40
0.000000
 41
0.000000
 66
  1
  0
VERTEX
  8
gbl
 10
40.130080
 20
6.350013
  0
VERTEX
  8
gbl
 10
40.130080
 20
12.350025
  0
SEQEND
  8
gbl
  0
POLYLINE
  8
gbl
 62
5
 40
0.000000
 41
0.000000
 66
  1
  0
VERTEX
  8
gbl
 10
42.680085
 20
6.340013
  0
VERTEX
  8
gbl
 10
42.680085
 20
11.550023
  0
SEQEND
  8
gbl
  0
POLYLINE
  8
gbl
 62
5
 40
0.000000
 41
0.000000
 66
  1
  0
VERTEX
  8
gbl
 10
32.500065
 20
6.360013
  0
VERTEX
  8
gbl
 10
32.500065
 20
11.080022
  0
SEQEND
  8
gbl
  0
POLYLINE
  8
gbl
 62
5
 40
0.000000
 41
0.000000
 66
  1
  0
VERTEX
  8
gbl
 10
29.980060
 20
8.480017
  0
VERTEX
  8
gbl
 10
30.000060
 20
8.500017
  0
SEQEND
  8
gbl
  0
POLYLINE
  8
gbl
 62
5
 40
0.000000
 41
0.000000
 66
  1
  0
VERTEX
  8
gbl
 10
29.980060
 20
6.520013
  0
VERTEX
  8
gbl
 10
29.980060
 20
8.480017
  0
SEQEND
  8
gbl
  0
POLYLINE
  8
gbl
 62
5
 40
0.000000
 41
0.000000
 66
  1
  0
VERTEX
  8
gbl
 10
45.200090
 20
6.360013
  0
VERTEX
  8
gbl
 10
45.200090
 20
10.070020
  0
SEQEND
  8
gbl
  0
POLYLINE
  8
gbl
 62
5
 40
0.000000
 41
0.000000
 66
  1
  0
VERTEX
  8
gbl
 10
47.750096
 20
6.110012
  0
VERTEX
  8
gbl
 10
47.750096
 20
8.820018
  0
SEQEND
  8
gbl
  0
POLYLINE
  8
gd1
 62
1
 40
0.000000
 41
0.000000
 66
  1
  0
VERTEX
  8
gd1
 10
4.300009
 20
3.300007
  0
VERTEX
  8
gd1
 10
4.300009
 20
3.700007
  0
VERTEX
  8
gd1
 10
4.700009
 20
3.700007
  0
VERTEX
  8
gd1
 10
4.700009
 20
3.300007
  0
VERTEX
  8
gd1
 10
4.300009
 20
3.300007
  0
SEQEND
  8
gd1
  0
POLYLINE
  8
gd1
 62
1
 40
0.000000
 41
0.000000
 66
  1
  0
VERTEX
  8
gd1
 10
62.000124
 20
21.220042
  0
VERTEX
  8
gd1
 10
61.800124
 20
21.620043
  0
VERTEX
  8
gd1
 10
62.200124
 20
21.620043
  0
VERTEX
  8
gd1
 10
62.000124
 20
21.220042
  0
SEQEND
  8
gd1
  0
POLYLINE
  8
gd1
 62
1
 40
0.000000
 41
0.000000
 66
  1
  0
VERTEX
  8
gd1
 10
62.000124
 20
23.720047
  0
VERTEX
  8
gd1
 10
61.800124
 20
24.120048
  0
VERTEX
  8
gd1
 10
62.200124
 20
24.120048
  0
VERTEX
  8
gd1
 10
62.000124
 20
23.720047
  0
SEQEND
  8
gd1
  0
POLYLINE
  8
gd1
 62
1
 40
0.000000
 41
0.000000
 66
  1
  0
VERTEX
  8
gd1
 10
62.000124
 20
26.220052
  0
VERTEX
  8
gd1
 10
61.800124
 20
26.620053
  0
VERTEX
  8
gd1
 10
62.200124
 20
26.620053
  0
VERTEX
  8
gd1
 10
62.000124
 20
26.220052
  0
SEQEND
  8
gd1
  0
POLYLINE
  8
gd1
 62
1
 40
0.000000
 41
0.000000
 66
  1
  0
VERTEX
  8
gd1
 10
62.000124
 20
28.720057
  0
VERTEX
  8
gd1
 10
61.800124
 20
29.120058
  0
VERTEX
  8
gd1
 10
62.200124
 20
29.120058
  0
VERTEX
  8
gd1
 10
62.000124
 20
28.720057
  0
SEQEND
  8
gd1
  0
POLYLINE
  8
gd1
 62
1
 40
0.000000
 41
0.000000
 66
  1
  0
VERTEX
  8
gd1
 10
56.640113
 20
7.410015
  0
VERTEX
  8
gd1
 10
56.740113
 20
7.510015
  0
VERTEX
  8
gd1
 10
56.840114
 20
7.510015
  0
VERTEX
  8
gd1
 10
56.740113
 20
7.610015
  0
VERTEX
  8
gd1
 10
56.840114
 20
7.720015
  0
VERTEX
  8
gd1
 10
56.740113
 20
7.720015
  0
VERTEX
  8
gd1
 10
56.640113
 20
7.820016
  0
VERTEX
  8
gd1
 10
56.540113
 20
7.720015
  0
VERTEX
  8
gd1
 10
56.440113
 20
7.720015
  0
VERTEX
  8
gd1
 10
56.540113
 20
7.610015
  0
VERTEX
  8
gd1
 10
56.440113
 20
7.510015
  0
VERTEX
  8
gd1
 10
56.540113
 20
7.510015
  0
VERTEX
  8
gd1
 10
56.640113
 20
7.410015
  0
SEQEND
  8
gd1
  0
POLYLINE
  8
gd1
 62
1
 40
0.000000
 41
0.000000
 66
  1
  0
VERTEX
  8
gd1
 10
56.640113
 20
4.870010
  0
VERTEX
  8
gd1
 10
56.740113
 20
4.970010
  0
VERTEX
  8
gd1
 10
56.840114
 20
4.970010
  0
VERTEX
  8
gd1
 10
56.740113
 20
5.070010
  0
VERTEX
  8
gd1
 10
56.840114
 20
5.180010
  0
VERTEX
  8
gd1
 10
56.740113
 20
5.180010
  0
VERTEX
  8
gd1
 10
56.640113
 20
5.280011
  0
VERTEX
  8
gd1
 10
56.540113
 20
5.180010
  0
VERTEX
  8
gd1
 10
56.440113
 20
5.180010
  0
VERTEX
  8
gd1
 10
56.540113
 20
5.070010
  0
VERTEX
  8
gd1
 10
56.440113
 20
4.970010
  0
VERTEX
  8
gd1
 10
56.540113
 20
4.970010
  0
VERTEX
  8
gd1
 10
56.640113
 20
4.870010
  0
SEQEND
  8
gd1
  0
POLYLINE
  8
gd1
 62
1
 40
0.000000
 41
0.000000
 66
  1
  0
VERTEX
  8
gd1
 10
54.100108
 20
7.410015
  0
VERTEX
  8
gd1
 10
54.200108
 20
7.510015
  0
VERTEX
  8
gd1
 10
54.300109
 20
7.510015
  0
VERTEX
  8
gd1
 10
54.200108
 20
7.610015
  0
VERTEX
  8
gd1
 10
54.300109
 20
7.720015
  0
VERTEX
  8
gd1
 10
54.200108
 20
7.720015
  0
VERTEX
  8
gd1
 10
54.100108
 20
7.820016
  0
VERTEX
  8
gd1
 10
54.000108
 20
7.720015
  0
VERTEX
  8
gd1
 10
53.900108
 20
7.720015
  0
VERTEX
  8
gd1
 10
54.000108
 20
7.610015
  0
VERTEX
  8
gd1
 10
53.900108
 20
7.510015
  0
VERTEX
  8
gd1
 10
54.000108
 20
7.510015
  0
VERTEX
  8
gd1
 10
54.100108
 20
7.410015
  0
SEQEND
  8
gd1
  0
POLYLINE
  8
gd1
 62
1
 40
0.000000
 41
0.000000
 66
  1
  0
VERTEX
  8
gd1
 10
54.100108
 20
4.870010
  0
VERTEX
  8
gd1
 10
54.200108
 20
4.970010
  0
VERTEX
  8
gd1
 10
54.300109
 20
4.970010
  0
VERTEX
  8
gd1
 10
54.200108
 20
5.070010
  0
VERTEX
  8
gd1
 10
54.300109
 20
5.180010
  0
VERTEX
  8
gd1
 10
54.200108
 20
5.180010
  0
VERTEX
  8
gd1
 10
54.100108
 20
5.280011
  0
VERTEX
  8
gd1
 10
54.000108
 20
5.180010
  0
VERTEX
  8
gd1
 10
53.900108
 20
5.180010
  0
VERTEX
  8
gd1
 10
54.000108
 20
5.070010
  0
VERTEX
  8
gd1
 10
53.900108
 20
4.970010
  0
VERTEX
  8
gd1
 10
54.000108
 20
4.970010
  0
VERTEX
  8
gd1
 10
54.100108
 20
4.870010
  0
SEQEND
  8
gd1
  0
POLYLINE
  8
gd1
 62
1
 40
0.000000
 41
0.000000
 66
  1
  0
VERTEX
  8
gd1
 10
51.560103
 20
7.410015
  0
VERTEX
  8
gd1
 10
51.660103
 20
7.510015
  0
VERTEX
  8
gd1
 10
51.760104
 20
7.510015
  0
VERTEX
  8
gd1
 10
51.660103
 20
7.610015
  0
VERTEX
  8
gd1
 10
51.760104
 20
7.720015
  0
VERTEX
  8
gd1
 10
51.660103
 20
7.720015
  0
VERTEX
  8
gd1
 10
51.560103
 20
7.820016
  0
VERTEX
  8
gd1
 10
51.460103
 20
7.720015
  0
VERTEX
  8
gd1
 10
51.360103
 20
7.720015
  0
VERTEX
  8
gd1
 10
51.460103
 20
7.610015
  0
VERTEX
  8
gd1
 10
51.360103
 20
7.510015
  0
VERTEX
  8
gd1
 10
51.460103
 20
7.510015
  0
VERTEX
  8
gd1
 10
51.560103
 20
7.410015
  0
SEQEND
  8
gd1
  0
POLYLINE
  8
gd1
 62
1
 40
0.000000
 41
0.000000
 66
  1
  0
VERTEX
  8
gd1
 10
51.560103
 20
4.870010
  0
VERTEX
  8
gd1
 10
51.660103
 20
4.970010
  0
VERTEX
  8
gd1
 10
51.760104
 20
4.970010
  0
VERTEX
  8
gd1
 10
51.660103
 20
5.070010
  0
VERTEX
  8
gd1
 10
51.760104
 20
5.180010
  0
VERTEX
  8
gd1
 10
51.660103
 20
5.180010
  0
VERTEX
  8
gd1
 10
51.560103
 20
5.280011
  0
VERTEX
  8
gd1
 10
51.460103
 20
5.180010
  0
VERTEX
  8
gd1
 10
51.360103
 20
5.180010
  0
VERTEX
  8
gd1
 10
51.460103
 20
5.070010
  0
VERTEX
  8
gd1
 10
51.360103
 20
4.970010
  0
VERTEX
  8
gd1
 10
51.460103
 20
4.970010
  0
VERTEX
  8
gd1
 10
51.560103
 20
4.870010
  0
SEQEND
  8
gd1
  0
POLYLINE
  8
gd1
 62
1
 40
0.000000
 41
0.000000
 66
  1
  0
VERTEX
  8
gd1
 10
49.020098
 20
7.410015
  0
VERTEX
  8
gd1
 10
49.120098
 20
7.510015
  0
VERTEX
  8
gd1
 10
49.220098
 20
7.510015
  0
VERTEX
  8
gd1
 10
49.120098
 20
7.610015
  0
VERTEX
  8
gd1
 10
49.220098
 20
7.720015
  0
VERTEX
  8
gd1
 10
49.120098
 20
7.720015
  0
VERTEX
  8
gd1
 10
49.020098
 20
7.820016
  0
VERTEX
  8
gd1
 10
48.920098
 20
7.720015
  0
VERTEX
  8
gd1
 10
48.820098
 20
7.720015
  0
VERTEX
  8
gd1
 10
48.920098
 20
7.610015
  0
VERTEX
  8
gd1
 10
48.820098
 20
7.510015
  0
VERTEX
  8
gd1
 10
48.920098
 20
7.510015
  0
VERTEX
  8
gd1
 10
49.020098
 20
7.410015
  0
SEQEND
  8
gd1
  0
POLYLINE
  8
gd1
 62
1
 40
0.000000
 41
0.000000
 66
  1
  0
VERTEX
  8
gd1
 10
49.020098
 20
4.870010
  0
VERTEX
  8
gd1
 10
49.120098
 20
4.970010
  0
VERTEX
  8
gd1
 10
49.220098
 20
4.970010
  0
VERTEX
  8
gd1
 10
49.120098
 20
5.070010
  0
VERTEX
  8
gd1
 10
49.220098
 20
5.180010
  0
VERTEX
  8
gd1
 10
49.120098
 20
5.180010
  0
VERTEX
  8
gd1
 10
49.020098
 20
5.280011
  0
VERTEX
  8
gd1
 10
48.920098
 20
5.180010
  0
VERTEX
  8
gd1
 10
48.820098
 20
5.180010
  0
VERTEX
  8
gd1
 10
48.920098
 20
5.070010
  0
VERTEX
  8
gd1
 10
48.820098
 20
4.970010
  0
VERTEX
  8
gd1
 10
48.920098
 20
4.970010
  0
VERTEX
  8
gd1
 10
49.020098
 20
4.870010
  0
SEQEND
  8
gd1
  0
POLYLINE
  8
gd1
 62
1
 40
0.000000
 41
0.000000
 66
  1
  0
VERTEX
  8
gd1
 10
46.480093
 20
7.410015
  0
VERTEX
  8
gd1
 10
46.580093
 20
7.510015
  0
VERTEX
  8
gd1
 10
46.680093
 20
7.510015
  0
VERTEX
  8
gd1
 10
46.580093
 20
7.610015
  0
VERTEX
  8
gd1
 10
46.680093
 20
7.720015
  0
VERTEX
  8
gd1
 10
46.580093
 20
7.720015
  0
VERTEX
  8
gd1
 10
46.480093
 20
7.820016
  0
VERTEX
  8
gd1
 10
46.380093
 20
7.720015
  0
VERTEX
  8
gd1
 10
46.280093
 20
7.720015
  0
VERTEX
  8
gd1
 10
46.380093
 20
7.610015
  0
VERTEX
  8
gd1
 10
46.280093
 20
7.510015
  0
VERTEX
  8
gd1
 10
46.380093
 20
7.510015
  0
VERTEX
  8
gd1
 10
46.480093
 20
7.410015
  0
SEQEND
  8
gd1
  0
POLYLINE
  8
gd1
 62
1
 40
0.000000
 41
0.000000
 66
  1
  0
VERTEX
  8
gd1
 10
46.480093
 20
4.870010
  0
VERTEX
  8
gd1
 10
46.580093
 20
4.970010
  0
VERTEX
  8
gd1
 10
46.680093
 20
4.970010
  0
VERTEX
  8
gd1
 10
46.580093
 20
5.070010
  0
VERTEX
  8
gd1
 10
46.680093
 20
5.180010
  0
VERTEX
  8
gd1
 10
46.580093
 20
5.180010
  0
VERTEX
  8
gd1
 10
46.480093
 20
5.280011
  0
VERTEX
  8
gd1
 10
46.380093
 20
5.180010
  0
VERTEX
  8
gd1
 10
46.280093
 20
5.180010
  0
VERTEX
  8
gd1
 10
46.380093
 20
5.070010
  0
VERTEX
  8
gd1
 10
46.280093
 20
4.970010
  0
VERTEX
  8
gd1
 10
46.380093
 20
4.970010
  0
VERTEX
  8
gd1
 10
46.480093
 20
4.870010
  0
SEQEND
  8
gd1
  0
POLYLINE
  8
gd1
 62
1
 40
0.000000
 41
0.000000
 66
  1
  0
VERTEX
  8
gd1
 10
43.940088
 20
7.410015
  0
VERTEX
  8
gd1
 10
44.040088
 20
7.510015
  0
VERTEX
  8
gd1
 10
44.140088
 20
7.510015
  0
VERTEX
  8
gd1
 10
44.040088
 20
7.610015
  0
VERTEX
  8
gd1
 10
44.140088
 20
7.720015
  0
VERTEX
  8
gd1
 10
44.040088
 20
7.720015
  0
VERTEX
  8
gd1
 10
43.940088
 20
7.820016
  0
VERTEX
  8
gd1
 10
43.840088
 20
7.720015
  0
VERTEX
  8
gd1
 10
43.740087
 20
7.720015
  0
VERTEX
  8
gd1
 10
43.840088
 20
7.610015
  0
VERTEX
  8
gd1
 10
43.740087
 20
7.510015
  0
VERTEX
  8
gd1
 10
43.840088
 20
7.510015
  0
VERTEX
  8
gd1
 10
43.940088
 20
7.410015
  0
SEQEND
  8
gd1
  0
POLYLINE
  8
gd1
 62
1
 40
0.000000
 41
0.000000
 66
  1
  0
VERTEX
  8
gd1
 10
43.940088
 20
4.870010
  0
VERTEX
  8
gd1
 10
44.040088
 20
4.970010
  0
VERTEX
  8
gd1
 10
44.140088
 20
4.970010
  0
VERTEX
  8
gd1
 10
44.040088
 20
5.070010
  0
VERTEX
  8
gd1
 10
44.140088
 20
5.180010
  0
VERTEX
  8
gd1
 10
44.040088
 20
5.180010
  0
VERTEX
  8
gd1
 10
43.940088
 20
5.280011
  0
VERTEX
  8
gd1
 10
43.840088
 20
5.180010
  0
VERTEX
  8
gd1
 10
43.740087
 20
5.180010
  0
VERTEX
  8
gd1
 10
43.840088
 20
5.070010
  0
VERTEX
  8
gd1
 10
43.740087
 20
4.970010
  0
VERTEX
  8
gd1
 10
43.840088
 20
4.970010
  0
VERTEX
  8
gd1
 10
43.940088
 20
4.870010
  0
SEQEND
  8
gd1
  0
POLYLINE
  8
gd1
 62
1
 40
0.000000
 41
0.000000
 66
  1
  0
VERTEX
  8
gd1
 10
41.400083
 20
7.410015
  0
VERTEX
  8
gd1
 10
41.500083
 20
7.510015
  0
VERTEX
  8
gd1
 10
41.600083
 20
7.510015
  0
VERTEX
  8
gd1
 10
41.500083
 20
7.610015
  0
VERTEX
  8
gd1
 10
41.600083
 20
7.720015
  0
VERTEX
  8
gd1
 10
41.500083
 20
7.720015
  0
VERTEX
  8
gd1
 10
41.400083
 20
7.820016
  0
VERTEX
  8
gd1
 10
41.300083
 20
7.720015
  0
VERTEX
  8
gd1
 10
41.200082
 20
7.720015
  0
VERTEX
  8
gd1
 10
41.300083
 20
7.610015
  0
VERTEX
  8
gd1
 10
41.200082
 20
7.510015
  0
VERTEX
  8
gd1
 10
41.300083
 20
7.510015
  0
VERTEX
  8
gd1
 10
41.400083
 20
7.410015
  0
SEQEND
  8
gd1
  0
POLYLINE
  8
gd1
 62
1
 40
0.000000
 41
0.000000
 66
  1
  0
VERTEX
  8
gd1
 10
41.400083
 20
4.870010
  0
VERTEX
  8
gd1
 10
41.500083
 20
4.970010
  0
VERTEX
  8
gd1
 10
41.600083
 20
4.970010
  0
VERTEX
  8
gd1
 10
41.500083
 20
5.070010
  0
VERTEX
  8
gd1
 10
41.600083
 20
5.180010
  0
VERTEX
  8
gd1
 10
41.500083
 20
5.180010
  0
VERTEX
  8
gd1
 10
41.400083
 20
5.280011
  0
VERTEX
  8
gd1
 10
41.300083
 20
5.180010
  0
VERTEX
  8
gd1
 10
41.200082
 20
5.180010
  0
VERTEX
  8
gd1
 10
41.300083
 20
5.070010
  0
VERTEX
  8
gd1
 10
41.200082
 20
4.970010
  0
VERTEX
  8
gd1
 10
41.300083
 20
4.970010
  0
VERTEX
  8
gd1
 10
41.400083
 20
4.870010
  0
SEQEND
  8
gd1
  0
POLYLINE
  8
gd1
 62
1
 40
0.000000
 41
0.000000
 66
  1
  0
VERTEX
  8
gd1
 10
38.860078
 20
7.410015
  0
VERTEX
  8
gd1
 10
38.960078
 20
7.510015
  0
VERTEX
  8
gd1
 10
39.060078
 20
7.510015
  0
VERTEX
  8
gd1
 10
38.960078
 20
7.610015
  0
VERTEX
  8
gd1
 10
39.060078
 20
7.720015
  0
VERTEX
  8
gd1
 10
38.960078
 20
7.720015
  0
VERTEX
  8
gd1
 10
38.860078
 20
7.820016
  0
VERTEX
  8
gd1
 10
38.760078
 20
7.720015
  0
VERTEX
  8
gd1
 10
38.660077
 20
7.720015
  0
VERTEX
  8
gd1
 10
38.760078
 20
7.610015
  0
VERTEX
  8
gd1
 10
38.660077
 20
7.510015
  0
VERTEX
  8
gd1
 10
38.760078
 20
7.510015
  0
VERTEX
  8
gd1
 10
38.860078
 20
7.410015
  0
SEQEND
  8
gd1
  0
POLYLINE
  8
gd1
 62
1
 40
0.000000
 41
0.000000
 66
  1
  0
VERTEX
  8
gd1
 10
38.860078
 20
4.870010
  0
VERTEX
  8
gd1
 10
38.960078
 20
4.970010
  0
VERTEX
  8
gd1
 10
39.060078
 20
4.970010
  0
VERTEX
  8
gd1
 10
38.960078
 20
5.070010
  0
VERTEX
  8
gd1
 10
39.060078
 20
5.180010
  0
VERTEX
  8
gd1
 10
38.960078
 20
5.180010
  0
VERTEX
  8
gd1
 10
38.860078
 20
5.280011
  0
VERTEX
  8
gd1
 10
38.760078
 20
5.180010
  0
VERTEX
  8
gd1
 10
38.660077
 20
5.180010
  0
VERTEX
  8
gd1
 10
38.760078
 20
5.070010
  0
VERTEX
  8
gd1
 10
38.660077
 20
4.970010
  0
VERTEX
  8
gd1
 10
38.760078
 20
4.970010
  0
VERTEX
  8
gd1
 10
38.860078
 20
4.870010
  0
SEQEND
  8
gd1
  0
POLYLINE
  8
gd1
 62
1
 40
0.000000
 41
0.000000
 66
  1
  0
VERTEX
  8
gd1
 10
36.320073
 20
7.410015
  0
VERTEX
  8
gd1
 10
36.420073
 20
7.510015
  0
VERTEX
  8
gd1
 10
36.520073
 20
7.510015
  0
VERTEX
  8
gd1
 10
36.420073
 20
7.610015
  0
VERTEX
  8
gd1
 10
36.520073
 20
7.720015
  0
VERTEX
  8
gd1
 10
36.420073
 20
7.720015
  0
VERTEX
  8
gd1
 10
36.320073
 20
7.820016
  0
VERTEX
  8
gd1
 10
36.220072
 20
7.720015
  0
VERTEX
  8
gd1
 10
36.120072
 20
7.720015
  0
VERTEX
  8
gd1
 10
36.220072
 20
7.610015
  0
VERTEX
  8
gd1
 10
36.120072
 20
7.510015
  0
VERTEX
  8
gd1
 10
36.220072
 20
7.510015
  0
VERTEX
  8
gd1
 10
36.320073
 20
7.410015
  0
SEQEND
  8
gd1
  0
POLYLINE
  8
gd1
 62
1
 40
0.000000
 41
0.000000
 66
  1
  0
VERTEX
  8
gd1
 10
36.320073
 20
4.870010
  0
VERTEX
  8
gd1
 10
36.420073
 20
4.970010
  0
VERTEX
  8
gd1
 10
36.520073
 20
4.970010
  0
VERTEX
  8
gd1
 10
36.420073
 20
5.070010
  0
VERTEX
  8
gd1
 10
36.520073
 20
5.180010
  0
VERTEX
  8
gd1
 10
36.420073
 20
5.180010
  0
VERTEX
  8
gd1
 10
36.320073
 20
5.280011
  0
VERTEX
  8
gd1
 10
36.220072
 20
5.180010
  0
VERTEX
  8
gd1
 10
36.120072
 20
5.180010
  0
VERTEX
  8
gd1
 10
36.220072
 20
5.070010
  0
VERTEX
  8
gd1
 10
36.120072
 20
4.970010
  0
VERTEX
  8
gd1
 10
36.220072
 20
4.970010
  0
VERTEX
  8
gd1
 10
36.320073
 20
4.870010
  0
SEQEND
  8
gd1
  0
POLYLINE
  8
gd1
 62
1
 40
0.000000
 41
0.000000
 66
  1
  0
VERTEX
  8
gd1
 10
33.780068
 20
7.410015
  0
VERTEX
  8
gd1
 10
33.880068
 20
7.510015
  0
VERTEX
  8
gd1
 10
33.980068
 20
7.510015
  0
VERTEX
  8
gd1
 10
33.880068
 20
7.610015
  0
VERTEX
  8
gd1
 10
33.980068
 20
7.720015
  0
VERTEX
  8
gd1
 10
33.880068
 20
7.720015
  0
VERTEX
  8
gd1
 10
33.780068
 20
7.820016
  0
VERTEX
  8
gd1
 10
33.680067
 20
7.720015
  0
VERTEX
  8
gd1
 10
33.580067
 20
7.720015
  0
VERTEX
  8
gd1
 10
33.680067
 20
7.610015
  0
VERTEX
  8
gd1
 10
33.580067
 20
7.510015
  0
VERTEX
  8
gd1
 10
33.680067
 20
7.510015
  0
VERTEX
  8
gd1
 10
33.780068
 20
7.410015
  0
SEQEND
  8
gd1
  0
POLYLINE
  8
gd1
 62
1
 40
0.000000
 41
0.000000
 66
  1
  0
VERTEX
  8
gd1
 10
33.780068
 20
4.870010
  0
VERTEX
  8
gd1
 10
33.880068
 20
4.970010
  0
VERTEX
  8
gd1
 10
33.980068
 20
4.970010
  0
VERTEX
  8
gd1
 10
33.880068
 20
5.070010
  0
VERTEX
  8
gd1
 10
33.980068
 20
5.180010
  0
VERTEX
  8
gd1
 10
33.880068
 20
5.180010
  0
VERTEX
  8
gd1
 10
33.780068
 20
5.280011
  0
VERTEX
  8
gd1
 10
33.680067
 20
5.180010
  0
VERTEX
  8
gd1
 10
33.580067
 20
5.180010
  0
VERTEX
  8
gd1
 10
33.680067
 20
5.070010
  0
VERTEX
  8
gd1
 10
33.580067
 20
4.970010
  0
VERTEX
  8
gd1
 10
33.680067
 20
4.970010
  0
VERTEX
  8
gd1
 10
33.780068
 20
4.870010
  0
SEQEND
  8
gd1
  0
POLYLINE
  8
gd1
 62
1
 40
0.000000
 41
0.000000
 66
  1
  0
VERTEX
  8
gd1
 10
31.240062
 20
7.410015
  0
VERTEX
  8
gd1
 10
31.340063
 20
7.510015
  0
VERTEX
  8
gd1
 10
31.440063
 20
7.510015
  0
VERTEX
  8
gd1
 10
31.340063
 20
7.610015
  0
VERTEX
  8
gd1
 10
31.440063
 20
7.720015
  0
VERTEX
  8
gd1
 10
31.340063
 20
7.720015
  0
VERTEX
  8
gd1
 10
31.240062
 20
7.820016
  0
VERTEX
  8
gd1
 10
31.140062
 20
7.720015
  0
VERTEX
  8
gd1
 10
31.040062
 20
7.720015
  0
VERTEX
  8
gd1
 10
31.140062
 20
7.610015
  0
VERTEX
  8
gd1
 10
31.040062
 20
7.510015
  0
VERTEX
  8
gd1
 10
31.140062
 20
7.510015
  0
VERTEX
  8
gd1
 10
31.240062
 20
7.410015
  0
SEQEND
  8
gd1
  0
POLYLINE
  8
gd1
 62
1
 40
0.000000
 41
0.000000
 66
  1
  0
VERTEX
  8
gd1
 10
31.240062
 20
4.870010
  0
VERTEX
  8
gd1
 10
31.340063
 20
4.970010
  0
VERTEX
  8
gd1
 10
31.440063
 20
4.970010
  0
VERTEX
  8
gd1
 10
31.340063
 20
5.070010
  0
VERTEX
  8
gd1
 10
31.440063
 20
5.180010
  0
VERTEX
  8
gd1
 10
31.340063
 20
5.180010
  0
VERTEX
  8
gd1
 10
31.240062
 20
5.280011
  0
VERTEX
  8
gd1
 10
31.140062
 20
5.180010
  0
VERTEX
  8
gd1
 10
31.040062
 20
5.180010
  0
VERTEX
  8
gd1
 10
31.140062
 20
5.070010
  0
VERTEX
  8
gd1
 10
31.040062
 20
4.970010
  0
VERTEX
  8
gd1
 10
31.140062
 20
4.970010
  0
VERTEX
  8
gd1
 10
31.240062
 20
4.870010
  0
SEQEND
  8
gd1
  0
POLYLINE
  8
gd1
 62
1
 40
0.000000
 41
0.000000
 66
  1
  0
VERTEX
  8
gd1
 10
28.700057
 20
7.410015
  0
VERTEX
  8
gd1
 10
28.800058
 20
7.510015
  0
VERTEX
  8
gd1
 10
28.900058
 20
7.510015
  0
VERTEX
  8
gd1
 10
28.800058
 20
7.610015
  0
VERTEX
  8
gd1
 10
28.900058
 20
7.720015
  0
VERTEX
  8
gd1
 10
28.800058
 20
7.720015
  0
VERTEX
  8
gd1
 10
28.700057
 20
7.820016
  0
VERTEX
  8
gd1
 10
28.600057
 20
7.720015
  0
VERTEX
  8
gd1
 10
28.500057
 20
7.720015
  0
VERTEX
  8
gd1
 10
28.600057
 20
7.610015
  0
VERTEX
  8
gd1
 10
28.500057
 20
7.510015
  0
VERTEX
  8
gd1
 10
28.600057
 20
7.510015
  0
VERTEX
  8
gd1
 10
28.700057
 20
7.410015
  0
SEQEND
  8
gd1
  0
POLYLINE
  8
gd1
 62
1
 40
0.000000
 41
0.000000
 66
  1
  0
VERTEX
  8
gd1
 10
28.700057
 20
4.870010
  0
VERTEX
  8
gd1
 10
28.800058
 20
4.970010
  0
VERTEX
  8
gd1
 10
28.900058
 20
4.970010
  0
VERTEX
  8
gd1
 10
28.800058
 20
5.070010
  0
VERTEX
  8
gd1
 10
28.900058
 20
5.180010
  0
VERTEX
  8
gd1
 10
28.800058
 20
5.180010
  0
VERTEX
  8
gd1
 10
28.700057
 20
5.280011
  0
VERTEX
  8
gd1
 10
28.600057
 20
5.180010
  0
VERTEX
  8
gd1
 10
28.500057
 20
5.180010
  0
VERTEX
  8
gd1
 10
28.600057
 20
5.070010
  0
VERTEX
  8
gd1
 10
28.500057
 20
4.970010
  0
VERTEX
  8
gd1
 10
28.600057
 20
4.970010
  0
VERTEX
  8
gd1
 10
28.700057
 20
4.870010
  0
SEQEND
  8
gd1
  0
POLYLINE
  8
gd1
 62
1
 40
0.000000
 41
0.000000
 66
  1
  0
VERTEX
  8
gd1
 10
56.300113
 20
26.300053
  0
VERTEX
  8
gd1
 10
56.300113
 20
26.700053
  0
VERTEX
  8
gd1
 10
56.700113
 20
26.700053
  0
VERTEX
  8
gd1
 10
56.700113
 20
26.300053
  0
VERTEX
  8
gd1
 10
56.300113
 20
26.300053
  0
SEQEND
  8
gd1
  0
POLYLINE
  8
gd1
 62
1
 40
0.000000
 41
0.000000
 66
  1
  0
VERTEX
  8
gd1
 10
68.570137
 20
21.220042
  0
VERTEX
  8
gd1
 10
68.370137
 20
21.620043
  0
VERTEX
  8
gd1
 10
68.780138
 20
21.620043
  0
VERTEX
  8
gd1
 10
68.570137
 20
21.220042
  0
SEQEND
  8
gd1
  0
POLYLINE
  8
gd1
 62
1
 40
0.000000
 41
0.000000
 66
  1
  0
VERTEX
  8
gd1
 10
68.570137
 20
23.720047
  0
VERTEX
  8
gd1
 10
68.370137
 20
24.120048
  0
VERTEX
  8
gd1
 10
68.780138
 20
24.120048
  0
VERTEX
  8
gd1
 10
68.570137
 20
23.720047
  0
SEQEND
  8
gd1
  0
POLYLINE
  8
gd1
 62
1
 40
0.000000
 41
0.000000
 66
  1
  0
VERTEX
  8
gd1
 10
68.570137
 20
26.220052
  0
VERTEX
  8
gd1
 10
68.370137
 20
26.620053
  0
VERTEX
  8
gd1
 10
68.780138
 20
26.620053
  0
VERTEX
  8
gd1
 10
68.570137
 20
26.220052
  0
SEQEND
  8
gd1
  0
POLYLINE
  8
gd1
 62
1
 40
0.000000
 41
0.000000
 66
  1
  0
VERTEX
  8
gd1
 10
68.570137
 20
28.720057
  0
VERTEX
  8
gd1
 10
68.370137
 20
29.120058
  0
VERTEX
  8
gd1
 10
68.780138
 20
29.120058
  0
VERTEX
  8
gd1
 10
68.570137
 20
28.720057
  0
SEQEND
  8
gd1
  0
POLYLINE
  8
gd1
 62
1
 40
0.000000
 41
0.000000
 66
  1
  0
VERTEX
  8
gd1
 10
80.300161
 20
4.300009
  0
VERTEX
  8
gd1
 10
80.300161
 20
4.700009
  0
VERTEX
  8
gd1
 10
80.700161
 20
4.700009
  0
VERTEX
  8
gd1
 10
80.700161
 20
4.300009
  0
VERTEX
  8
gd1
 10
80.300161
 20
4.300009
  0
SEQEND
  8
gd1
  0
POLYLINE
  8
gd1
 62
1
 40
0.000000
 41
0.000000
 66
  1
  0
VERTEX
  8
gd1
 10
15.320031
 20
26.100052
  0
VERTEX
  8
gd1
 10
15.320031
 20
26.100052
  0
VERTEX
  8
gd1
 10
15.320031
 20
26.100052
 42
1.000000
  0
VERTEX
  8
gd1
 10
14.920030
 20
26.100052
  0
VERTEX
  8
gd1
 10
14.920030
 20
26.100052
  0
VERTEX
  8
gd1
 10
14.920030
 20
26.100052
 42
1.000000
  0
VERTEX
  8
gd1
 10
15.320031
 20
26.100052
  0
VERTEX
  8
gd1
 10
15.320031
 20
26.100052
  0
SEQEND
  8
gd1
  0
POLYLINE
  8
gd1
 62
1
 40
0.000000
 41
0.000000
 66
  1
  0
VERTEX
  8
gd1
 10
20.400041
 20
26.100052
  0
VERTEX
  8
gd1
 10
20.400041
 20
26.100052
  0
VERTEX
  8
gd1
 10
20.400041
 20
26.100052
 42
1.000000
  0
VERTEX
  8
gd1
 10
20.000040
 20
26.100052
  0
VERTEX
  8
gd1
 10
20.000040
 20
26.100052
  0
VERTEX
  8
gd1
 10
20.000040
 20
26.100052
 42
1.000000
  0
VERTEX
  8
gd1
 10
20.400041
 20
26.100052
  0
VERTEX
  8
gd1
 10
20.400041
 20
26.100052
  0
SEQEND
  8
gd1
  0
POLYLINE
  8
gd1
 62
1
 40
0.000000
 41
0.000000
 66
  1
  0
VERTEX
  8
gd1
 10
25.480051
 20
26.100052
  0
VERTEX
  8
gd1
 10
25.480051
 20
26.100052
  0
VERTEX
  8
gd1
 10
25.480051
 20
26.100052
 42
1.000000
  0
VERTEX
  8
gd1
 10
25.080050
 20
26.100052
  0
VERTEX
  8
gd1
 10
25.080050
 20
26.100052
  0
VERTEX
  8
gd1
 10
25.080050
 20
26.100052
 42
1.000000
  0
VERTEX
  8
gd1
 10
25.480051
 20
26.100052
  0
VERTEX
  8
gd1
 10
25.480051
 20
26.100052
  0
SEQEND
  8
gd1
  0
POLYLINE
  8
gd1
 62
1
 40
0.000000
 41
0.000000
 66
  1
  0
VERTEX
  8
gd1
 10
75.300151
 20
26.100052
  0
VERTEX
  8
gd1
 10
75.300151
 20
26.100052
  0
VERTEX
  8
gd1
 10
75.300151
 20
26.100052
 42
1.000000
  0
VERTEX
  8
gd1
 10
74.900150
 20
26.100052
  0
VERTEX
  8
gd1
 10
74.900150
 20
26.100052
  0
VERTEX
  8
gd1
 10
74.900150
 20
26.100052
 42
1.000000
  0
VERTEX
  8
gd1
 10
75.300151
 20
26.100052
  0
VERTEX
  8
gd1
 10
75.300151
 20
26.100052
  0
SEQEND
  8
gd1
  0
POLYLINE
  8
gd1
 62
1
 40
0.000000
 41
0.000000
 66
  1
  0
VERTEX
  8
gd1
 10
80.380161
 20
26.100052
  0
VERTEX
  8
gd1
 10
80.380161
 20
26.100052
  0
VERTEX
  8
gd1
 10
80.380161
 20
26.100052
 42
1.000000
  0
VERTEX
  8
gd1
 10
79.980160
 20
26.100052
  0
VERTEX
  8
gd1
 10
79.980160
 20
26.100052
  0
VERTEX
  8
gd1
 10
79.980160
 20
26.100052
 42
1.000000
  0
VERTEX
  8
gd1
 10
80.380161
 20
26.100052
  0
VERTEX
  8
gd1
 10
80.380161
 20
26.100052
  0
SEQEND
  8
gd1
  0
POLYLINE
  8
gd1
 62
1
 40
0.000000
 41
0.000000
 66
  1
  0
VERTEX
  8
gd1
 10
10.230020
 20
26.100052
  0
VERTEX
  8
gd1
 10
10.230020
 20
26.100052
  0
VERTEX
  8
gd1
 10
10.230020
 20
26.100052
 42
1.000000
  0
VERTEX
  8
gd1
 10
9.830020
 20
26.100052
  0
VERTEX
  8
gd1
 10
9.830020
 20
26.100052
  0
VERTEX
  8
gd1
 10
9.830020
 20
26.100052
 42
1.000000
  0
VERTEX
  8
gd1
 10
10.230020
 20
26.100052
  0
VERTEX
  8
gd1
 10
10.230020
 20
26.100052
  0
SEQEND
  8
gd1
  0
POLYLINE
  8
gd1
 62
1
 40
0.000000
 41
0.000000
 66
  1
  0
VERTEX
  8
gd1
 10
5.150010
 20
26.100052
  0
VERTEX
  8
gd1
 10
5.150010
 20
26.100052
  0
VERTEX
  8
gd1
 10
5.150010
 20
26.100052
 42
1.000000
  0
VERTEX
  8
gd1
 10
4.750010
 20
26.100052
  0
VERTEX
  8
gd1
 10
4.750010
 20
26.100052
  0
VERTEX
  8
gd1
 10
4.750010
 20
26.100052
 42
1.000000
  0
VERTEX
  8
gd1
 10
5.150010
 20
26.100052
  0
VERTEX
  8
gd1
 10
5.150010
 20
26.100052
  0
SEQEND
  8
gd1
  0
POLYLINE
  8
gd1
 62
1
 40
0.000000
 41
0.000000
 66
  1
  0
VERTEX
  8
gd1
 10
30.560061
 20
26.100052
  0
VERTEX
  8
gd1
 10
30.560061
 20
26.100052
  0
VERTEX
  8
gd1
 10
30.560061
 20
26.100052
 42
1.000000
  0
VERTEX
  8
gd1
 10
30.160060
 20
26.100052
  0
VERTEX
  8
gd1
 10
30.160060
 20
26.100052
  0
VERTEX
  8
gd1
 10
30.160060
 20
26.100052
 42
1.000000
  0
VERTEX
  8
gd1
 10
30.560061
 20
26.100052
  0
VERTEX
  8
gd1
 10
30.560061
 20
26.100052
  0
SEQEND
  8
gd1
  0
POLYLINE
  8
gd1
 62
1
 40
0.000000
 41
0.000000
 66
  1
  0
VERTEX
  8
gd1
 10
35.640071
 20
26.100052
  0
VERTEX
  8
gd1
 10
35.640071
 20
26.100052
  0
VERTEX
  8
gd1
 10
35.640071
 20
26.100052
 42
1.000000
  0
VERTEX
  8
gd1
 10
35.240070
 20
26.100052
  0
VERTEX
  8
gd1
 10
35.240070
 20
26.100052
  0
VERTEX
  8
gd1
 10
35.240070
 20
26.100052
 42
1.000000
  0
VERTEX
  8
gd1
 10
35.640071
 20
26.100052
  0
VERTEX
  8
gd1
 10
35.640071
 20
26.100052
  0
SEQEND
  8
gd1
  0
POLYLINE
  8
gd1
 62
1
 40
0.000000
 41
0.000000
 66
  1
  0
VERTEX
  8
gd1
 10
40.720081
 20
26.100052
  0
VERTEX
  8
gd1
 10
40.720081
 20
26.100052
  0
VERTEX
  8
gd1
 10
40.720081
 20
26.100052
 42
1.000000
  0
VERTEX
  8
gd1
 10
40.320081
 20
26.100052
  0
VERTEX
  8
gd1
 10
40.320081
 20
26.100052
  0
VERTEX
  8
gd1
 10
40.320081
 20
26.100052
 42
1.000000
  0
VERTEX
  8
gd1
 10
40.720081
 20
26.100052
  0
VERTEX
  8
gd1
 10
40.720081
 20
26.100052
  0
SEQEND
  8
gd1
  0
POLYLINE
  8
gd1
 62
1
 40
0.000000
 41
0.000000
 66
  1
  0
VERTEX
  8
gd1
 10
45.800092
 20
26.100052
  0
VERTEX
  8
gd1
 10
45.800092
 20
26.100052
  0
VERTEX
  8
gd1
 10
45.800092
 20
26.100052
 42
1.000000
  0
VERTEX
  8
gd1
 10
45.400091
 20
26.100052
  0
VERTEX
  8
gd1
 10
45.400091
 20
26.100052
  0
VERTEX
  8
gd1
 10
45.400091
 20
26.100052
 42
1.000000
  0
VERTEX
  8
gd1
 10
45.800092
 20
26.100052
  0
VERTEX
  8
gd1
 10
45.800092
 20
26.100052
  0
SEQEND
  8
gd1
  0
POLYLINE
  8
gd1
 62
1
 40
0.000000
 41
0.000000
 66
  1
  0
VERTEX
  8
gd1
 10
50.880102
 20
26.100052
  0
VERTEX
  8
gd1
 10
50.880102
 20
26.100052
  0
VERTEX
  8
gd1
 10
50.880102
 20
26.100052
 42
1.000000
  0
VERTEX
  8
gd1
 10
50.480101
 20
26.100052
  0
VERTEX
  8
gd1
 10
50.480101
 20
26.100052
  0
VERTEX
  8
gd1
 10
50.480101
 20
26.100052
 42
1.000000
  0
VERTEX
  8
gd1
 10
50.880102
 20
26.100052
  0
VERTEX
  8
gd1
 10
50.880102
 20
26.100052
  0
SEQEND
  8
gd1
  0
POLYLINE
  8
gg1
 62
1
 40
0.000000
 41
0.000000
 66
  1
  0
VERTEX
  8
gg1
 10
2.900006
 20
3.500007
  0
VERTEX
  8
gg1
 10
6.100012
 20
3.500007
  0
SEQEND
  8
gg1
  0
POLYLINE
  8
gg1
 62
1
 40
0.000000
 41
0.000000
 66
  1
  0
VERTEX
  8
gg1
 10
4.500009
 20
1.900004
  0
VERTEX
  8
gg1
 10
4.500009
 20
5.100010
  0
SEQEND
  8
gg1
  0
POLYLINE
  8
gg1
 62
1
 40
0.000000
 41
0.000000
 66
  1
  0
VERTEX
  8
gg1
 10
14.520029
 20
26.100052
  0
VERTEX
  8
gg1
 10
15.720031
 20
26.100052
  0
SEQEND
  8
gg1
  0
POLYLINE
  8
gg1
 62
1
 40
0.000000
 41
0.000000
 66
  1
  0
VERTEX
  8
gg1
 10
15.120030
 20
25.500051
  0
VERTEX
  8
gg1
 10
15.120030
 20
26.700053
  0
SEQEND
  8
gg1
  0
POLYLINE
  8
gg1
 62
1
 40
0.000000
 41
0.000000
 66
  1
  0
VERTEX
  8
gg1
 10
19.600039
 20
26.100052
  0
VERTEX
  8
gg1
 10
20.800042
 20
26.100052
  0
SEQEND
  8
gg1
  0
POLYLINE
  8
gg1
 62
1
 40
0.000000
 41
0.000000
 66
  1
  0
VERTEX
  8
gg1
 10
20.200040
 20
25.500051
  0
VERTEX
  8
gg1
 10
20.200040
 20
26.700053
  0
SEQEND
  8
gg1
  0
POLYLINE
  8
gg1
 62
1
 40
0.000000
 41
0.000000
 66
  1
  0
VERTEX
  8
gg1
 10
24.680049
 20
26.100052
  0
VERTEX
  8
gg1
 10
25.880052
 20
26.100052
  0
SEQEND
  8
gg1
  0
POLYLINE
  8
gg1
 62
1
 40
0.000000
 41
0.000000
 66
  1
  0
VERTEX
  8
gg1
 10
25.280051
 20
25.500051
  0
VERTEX
  8
gg1
 10
25.280051
 20
26.700053
  0
SEQEND
  8
gg1
  0
POLYLINE
  8
gg1
 62
1
 40
0.000000
 41
0.000000
 66
  1
  0
VERTEX
  8
gg1
 10
61.470123
 20
21.420043
  0
VERTEX
  8
gg1
 10
62.530125
 20
21.420043
  0
SEQEND
  8
gg1
  0
POLYLINE
  8
gg1
 62
1
 40
0.000000
 41
0.000000
 66
  1
  0
VERTEX
  8
gg1
 10
62.000124
 20
20.890042
  0
VERTEX
  8
gg1
 10
62.000124
 20
21.950044
  0
SEQEND
  8
gg1
  0
POLYLINE
  8
gg1
 62
1
 40
0.000000
 41
0.000000
 66
  1
  0
VERTEX
  8
gg1
 10
61.470123
 20
23.920048
  0
VERTEX
  8
gg1
 10
62.530125
 20
23.920048
  0
SEQEND
  8
gg1
  0
POLYLINE
  8
gg1
 62
1
 40
0.000000
 41
0.000000
 66
  1
  0
VERTEX
  8
gg1
 10
62.000124
 20
23.390047
  0
VERTEX
  8
gg1
 10
62.000124
 20
24.450049
  0
SEQEND
  8
gg1
  0
POLYLINE
  8
gg1
 62
1
 40
0.000000
 41
0.000000
 66
  1
  0
VERTEX
  8
gg1
 10
61.470123
 20
26.420053
  0
VERTEX
  8
gg1
 10
62.530125
 20
26.420053
  0
SEQEND
  8
gg1
  0
POLYLINE
  8
gg1
 62
1
 40
0.000000
 41
0.000000
 66
  1
  0
VERTEX
  8
gg1
 10
62.000124
 20
25.890052
  0
VERTEX
  8
gg1
 10
62.000124
 20
26.950054
  0
SEQEND
  8
gg1
  0
POLYLINE
  8
gg1
 62
1
 40
0.000000
 41
0.000000
 66
  1
  0
VERTEX
  8
gg1
 10
61.470123
 20
28.920058
  0
VERTEX
  8
gg1
 10
62.530125
 20
28.920058
  0
SEQEND
  8
gg1
  0
POLYLINE
  8
gg1
 62
1
 40
0.000000
 41
0.000000
 66
  1
  0
VERTEX
  8
gg1
 10
62.000124
 20
28.390057
  0
VERTEX
  8
gg1
 10
62.000124
 20
29.450059
  0
SEQEND
  8
gg1
  0
POLYLINE
  8
gg1
 62
1
 40
0.000000
 41
0.000000
 66
  1
  0
VERTEX
  8
gg1
 10
56.190112
 20
7.610015
  0
VERTEX
  8
gg1
 10
57.090114
 20
7.610015
  0
SEQEND
  8
gg1
  0
POLYLINE
  8
gg1
 62
1
 40
0.000000
 41
0.000000
 66
  1
  0
VERTEX
  8
gg1
 10
56.640113
 20
7.160014
  0
VERTEX
  8
gg1
 10
56.640113
 20
8.060016
  0
SEQEND
  8
gg1
  0
POLYLINE
  8
gg1
 62
1
 40
0.000000
 41
0.000000
 66
  1
  0
VERTEX
  8
gg1
 10
56.190112
 20
5.070010
  0
VERTEX
  8
gg1
 10
57.090114
 20
5.070010
  0
SEQEND
  8
gg1
  0
POLYLINE
  8
gg1
 62
1
 40
0.000000
 41
0.000000
 66
  1
  0
VERTEX
  8
gg1
 10
56.640113
 20
4.620009
  0
VERTEX
  8
gg1
 10
56.640113
 20
5.520011
  0
SEQEND
  8
gg1
  0
POLYLINE
  8
gg1
 62
1
 40
0.000000
 41
0.000000
 66
  1
  0
VERTEX
  8
gg1
 10
53.650107
 20
7.610015
  0
VERTEX
  8
gg1
 10
54.550109
 20
7.610015
  0
SEQEND
  8
gg1
  0
POLYLINE
  8
gg1
 62
1
 40
0.000000
 41
0.000000
 66
  1
  0
VERTEX
  8
gg1
 10
54.100108
 20
7.160014
  0
VERTEX
  8
gg1
 10
54.100108
 20
8.060016
  0
SEQEND
  8
gg1
  0
POLYLINE
  8
gg1
 62
1
 40
0.000000
 41
0.000000
 66
  1
  0
VERTEX
  8
gg1
 10
53.650107
 20
5.070010
  0
VERTEX
  8
gg1
 10
54.550109
 20
5.070010
  0
SEQEND
  8
gg1
  0
POLYLINE
  8
gg1
 62
1
 40
0.000000
 41
0.000000
 66
  1
  0
VERTEX
  8
gg1
 10
54.100108
 20
4.620009
  0
VERTEX
  8
gg1
 10
54.100108
 20
5.520011
  0
SEQEND
  8
gg1
  0
POLYLINE
  8
gg1
 62
1
 40
0.000000
 41
0.000000
 66
  1
  0
VERTEX
  8
gg1
 10
51.110102
 20
7.610015
  0
VERTEX
  8
gg1
 10
52.010104
 20
7.610015
  0
SEQEND
  8
gg1
  0
POLYLINE
  8
gg1
 62
1
 40
0.000000
 41
0.000000
 66
  1
  0
VERTEX
  8
gg1
 10
51.560103
 20
7.160014
  0
VERTEX
  8
gg1
 10
51.560103
 20
8.060016
  0
SEQEND
  8
gg1
  0
POLYLINE
  8
gg1
 62
1
 40
0.000000
 41
0.000000
 66
  1
  0
VERTEX
  8
gg1
 10
51.110102
 20
5.070010
  0
VERTEX
  8
gg1
 10
52.010104
 20
5.070010
  0
SEQEND
  8
gg1
  0
POLYLINE
  8
gg1
 62
1
 40
0.000000
 41
0.000000
 66
  1
  0
VERTEX
  8
gg1
 10
51.560103
 20
4.620009
  0
VERTEX
  8
gg1
 10
51.560103
 20
5.520011
  0
SEQEND
  8
gg1
  0
POLYLINE
  8
gg1
 62
1
 40
0.000000
 41
0.000000
 66
  1
  0
VERTEX
  8
gg1
 10
48.570097
 20
7.610015
  0
VERTEX
  8
gg1
 10
49.470099
 20
7.610015
  0
SEQEND
  8
gg1
  0
POLYLINE
  8
gg1
 62
1
 40
0.000000
 41
0.000000
 66
  1
  0
VERTEX
  8
gg1
 10
49.020098
 20
7.160014
  0
VERTEX
  8
gg1
 10
49.020098
 20
8.060016
  0
SEQEND
  8
gg1
  0
POLYLINE
  8
gg1
 62
1
 40
0.000000
 41
0.000000
 66
  1
  0
VERTEX
  8
gg1
 10
48.570097
 20
5.070010
  0
VERTEX
  8
gg1
 10
49.470099
 20
5.070010
  0
SEQEND
  8
gg1
  0
POLYLINE
  8
gg1
 62
1
 40
0.000000
 41
0.000000
 66
  1
  0
VERTEX
  8
gg1
 10
49.020098
 20
4.620009
  0
VERTEX
  8
gg1
 10
49.020098
 20
5.520011
  0
SEQEND
  8
gg1
  0
POLYLINE
  8
gg1
 62
1
 40
0.000000
 41
0.000000
 66
  1
  0
VERTEX
  8
gg1
 10
46.030092
 20
7.610015
  0
VERTEX
  8
gg1
 10
46.930094
 20
7.610015
  0
SEQEND
  8
gg1
  0
POLYLINE
  8
gg1
 62
1
 40
0.000000
 41
0.000000
 66
  1
  0
VERTEX
  8
gg1
 10
46.480093
 20
7.160014
  0
VERTEX
  8
gg1
 10
46.480093
 20
8.060016
  0
SEQEND
  8
gg1
  0
POLYLINE
  8
gg1
 62
1
 40
0.000000
 41
0.000000
 66
  1
  0
VERTEX
  8
gg1
 10
46.030092
 20
5.070010
  0
VERTEX
  8
gg1
 10
46.930094
 20
5.070010
  0
SEQEND
  8
gg1
  0
POLYLINE
  8
gg1
 62
1
 40
0.000000
 41
0.000000
 66
  1
  0
VERTEX
  8
gg1
 10
46.480093
 20
4.620009
  0
VERTEX
  8
gg1
 10
46.480093
 20
5.520011
  0
SEQEND
  8
gg1
  0
POLYLINE
  8
gg1
 62
1
 40
0.000000
 41
0.000000
 66
  1
  0
VERTEX
  8
gg1
 10
43.490087
 20
7.610015
  0
VERTEX
  8
gg1
 10
44.390089
 20
7.610015
  0
SEQEND
  8
gg1
  0
POLYLINE
  8
gg1
 62
1
 40
0.000000
 41
0.000000
 66
  1
  0
VERTEX
  8
gg1
 10
43.940088
 20
7.160014
  0
VERTEX
  8
gg1
 10
43.940088
 20
8.060016
  0
SEQEND
  8
gg1
  0
POLYLINE
  8
gg1
 62
1
 40
0.000000
 41
0.000000
 66
  1
  0
VERTEX
  8
gg1
 10
43.490087
 20
5.070010
  0
VERTEX
  8
gg1
 10
44.390089
 20
5.070010
  0
SEQEND
  8
gg1
  0
POLYLINE
  8
gg1
 62
1
 40
0.000000
 41
0.000000
 66
  1
  0
VERTEX
  8
gg1
 10
43.940088
 20
4.620009
  0
VERTEX
  8
gg1
 10
43.940088
 20
5.520011
  0
SEQEND
  8
gg1
  0
POLYLINE
  8
gg1
 62
1
 40
0.000000
 41
0.000000
 66
  1
  0
VERTEX
  8
gg1
 10
40.950082
 20
7.610015
  0
VERTEX
  8
gg1
 10
41.850084
 20
7.610015
  0
SEQEND
  8
gg1
  0
POLYLINE
  8
gg1
 62
1
 40
0.000000
 41
0.000000
 66
  1
  0
VERTEX
  8
gg1
 10
41.400083
 20
7.160014
  0
VERTEX
  8
gg1
 10
41.400083
 20
8.060016
  0
SEQEND
  8
gg1
  0
POLYLINE
  8
gg1
 62
1
 40
0.000000
 41
0.000000
 66
  1
  0
VERTEX
  8
gg1
 10
40.950082
 20
5.070010
  0
VERTEX
  8
gg1
 10
41.850084
 20
5.070010
  0
SEQEND
  8
gg1
  0
POLYLINE
  8
gg1
 62
1
 40
0.000000
 41
0.000000
 66
  1
  0
VERTEX
  8
gg1
 10
41.400083
 20
4.620009
  0
VERTEX
  8
gg1
 10
41.400083
 20
5.520011
  0
SEQEND
  8
gg1
  0
POLYLINE
  8
gg1
 62
1
 40
0.000000
 41
0.000000
 66
  1
  0
VERTEX
  8
gg1
 10
38.410077
 20
7.610015
  0
VERTEX
  8
gg1
 10
39.310079
 20
7.610015
  0
SEQEND
  8
gg1
  0
POLYLINE
  8
gg1
 62
1
 40
0.000000
 41
0.000000
 66
  1
  0
VERTEX
  8
gg1
 10
38.860078
 20
7.160014
  0
VERTEX
  8
gg1
 10
38.860078
 20
8.060016
  0
SEQEND
  8
gg1
  0
POLYLINE
  8
gg1
 62
1
 40
0.000000
 41
0.000000
 66
  1
  0
VERTEX
  8
gg1
 10
38.410077
 20
5.070010
  0
VERTEX
  8
gg1
 10
39.310079
 20
5.070010
  0
SEQEND
  8
gg1
  0
POLYLINE
  8
gg1
 62
1
 40
0.000000
 41
0.000000
 66
  1
  0
VERTEX
  8
gg1
 10
38.860078
 20
4.620009
  0
VERTEX
  8
gg1
 10
38.860078
 20
5.520011
  0
SEQEND
  8
gg1
  0
POLYLINE
  8
gg1
 62
1
 40
0.000000
 41
0.000000
 66
  1
  0
VERTEX
  8
gg1
 10
35.870072
 20
7.610015
  0
VERTEX
  8
gg1
 10
36.770074
 20
7.610015
  0
SEQEND
  8
gg1
  0
POLYLINE
  8
gg1
 62
1
 40
0.000000
 41
0.000000
 66
  1
  0
VERTEX
  8
gg1
 10
36.320073
 20
7.160014
  0
VERTEX
  8
gg1
 10
36.320073
 20
8.060016
  0
SEQEND
  8
gg1
  0
POLYLINE
  8
gg1
 62
1
 40
0.000000
 41
0.000000
 66
  1
  0
VERTEX
  8
gg1
 10
35.870072
 20
5.070010
  0
VERTEX
  8
gg1
 10
36.770074
 20
5.070010
  0
SEQEND
  8
gg1
  0
POLYLINE
  8
gg1
 62
1
 40
0.000000
 41
0.000000
 66
  1
  0
VERTEX
  8
gg1
 10
36.320073
 20
4.620009
  0
VERTEX
  8
gg1
 10
36.320073
 20
5.520011
  0
SEQEND
  8
gg1
  0
POLYLINE
  8
gg1
 62
1
 40
0.000000
 41
0.000000
 66
  1
  0
VERTEX
  8
gg1
 10
33.330067
 20
7.610015
  0
VERTEX
  8
gg1
 10
34.230068
 20
7.610015
  0
SEQEND
  8
gg1
  0
POLYLINE
  8
gg1
 62
1
 40
0.000000
 41
0.000000
 66
  1
  0
VERTEX
  8
gg1
 10
33.780068
 20
7.160014
  0
VERTEX
  8
gg1
 10
33.780068
 20
8.060016
  0
SEQEND
  8
gg1
  0
POLYLINE
  8
gg1
 62
1
 40
0.000000
 41
0.000000
 66
  1
  0
VERTEX
  8
gg1
 10
33.330067
 20
5.070010
  0
VERTEX
  8
gg1
 10
34.230068
 20
5.070010
  0
SEQEND
  8
gg1
  0
POLYLINE
  8
gg1
 62
1
 40
0.000000
 41
0.000000
 66
  1
  0
VERTEX
  8
gg1
 10
33.780068
 20
4.620009
  0
VERTEX
  8
gg1
 10
33.780068
 20
5.520011
  0
SEQEND
  8
gg1
  0
POLYLINE
  8
gg1
 62
1
 40
0.000000
 41
0.000000
 66
  1
  0
VERTEX
  8
gg1
 10
30.790062
 20
7.610015
  0
VERTEX
  8
gg1
 10
31.690063
 20
7.610015
  0
SEQEND
  8
gg1
  0
POLYLINE
  8
gg1
 62
1
 40
0.000000
 41
0.000000
 66
  1
  0
VERTEX
  8
gg1
 10
31.240062
 20
7.160014
  0
VERTEX
  8
gg1
 10
31.240062
 20
8.060016
  0
SEQEND
  8
gg1
  0
POLYLINE
  8
gg1
 62
1
 40
0.000000
 41
0.000000
 66
  1
  0
VERTEX
  8
gg1
 10
30.790062
 20
5.070010
  0
VERTEX
  8
gg1
 10
31.690063
 20
5.070010
  0
SEQEND
  8
gg1
  0
POLYLINE
  8
gg1
 62
1
 40
0.000000
 41
0.000000
 66
  1
  0
VERTEX
  8
gg1
 10
31.240062
 20
4.620009
  0
VERTEX
  8
gg1
 10
31.240062
 20
5.520011
  0
SEQEND
  8
gg1
  0
POLYLINE
  8
gg1
 62
1
 40
0.000000
 41
0.000000
 66
  1
  0
VERTEX
  8
gg1
 10
28.250057
 20
7.610015
  0
VERTEX
  8
gg1
 10
29.150058
 20
7.610015
  0
SEQEND
  8
gg1
  0
POLYLINE
  8
gg1
 62
1
 40
0.000000
 41
0.000000
 66
  1
  0
VERTEX
  8
gg1
 10
28.700057
 20
7.160014
  0
VERTEX
  8
gg1
 10
28.700057
 20
8.060016
  0
SEQEND
  8
gg1
  0
POLYLINE
  8
gg1
 62
1
 40
0.000000
 41
0.000000
 66
  1
  0
VERTEX
  8
gg1
 10
28.250057
 20
5.070010
  0
VERTEX
  8
gg1
 10
29.150058
 20
5.070010
  0
SEQEND
  8
gg1
  0
POLYLINE
  8
gg1
 62
1
 40
0.000000
 41
0.000000
 66
  1
  0
VERTEX
  8
gg1
 10
28.700057
 20
4.620009
  0
VERTEX
  8
gg1
 10
28.700057
 20
5.520011
  0
SEQEND
  8
gg1
  0
POLYLINE
  8
gg1
 62
1
 40
0.000000
 41
0.000000
 66
  1
  0
VERTEX
  8
gg1
 10
54.900110
 20
26.500053
  0
VERTEX
  8
gg1
 10
58.100116
 20
26.500053
  0
SEQEND
  8
gg1
  0
POLYLINE
  8
gg1
 62
1
 40
0.000000
 41
0.000000
 66
  1
  0
VERTEX
  8
gg1
 10
56.500113
 20
24.900050
  0
VERTEX
  8
gg1
 10
56.500113
 20
28.100056
  0
SEQEND
  8
gg1
  0
POLYLINE
  8
gg1
 62
1
 40
0.000000
 41
0.000000
 66
  1
  0
VERTEX
  8
gg1
 10
68.040136
 20
21.420043
  0
VERTEX
  8
gg1
 10
69.110138
 20
21.420043
  0
SEQEND
  8
gg1
  0
POLYLINE
  8
gg1
 62
1
 40
0.000000
 41
0.000000
 66
  1
  0
VERTEX
  8
gg1
 10
68.570137
 20
20.890042
  0
VERTEX
  8
gg1
 10
68.570137
 20
21.950044
  0
SEQEND
  8
gg1
  0
POLYLINE
  8
gg1
 62
1
 40
0.000000
 41
0.000000
 66
  1
  0
VERTEX
  8
gg1
 10
68.040136
 20
23.920048
  0
VERTEX
  8
gg1
 10
69.110138
 20
23.920048
  0
SEQEND
  8
gg1
  0
POLYLINE
  8
gg1
 62
1
 40
0.000000
 41
0.000000
 66
  1
  0
VERTEX
  8
gg1
 10
68.570137
 20
23.390047
  0
VERTEX
  8
gg1
 10
68.570137
 20
24.450049
  0
SEQEND
  8
gg1
  0
POLYLINE
  8
gg1
 62
1
 40
0.000000
 41
0.000000
 66
  1
  0
VERTEX
  8
gg1
 10
68.040136
 20
26.420053
  0
VERTEX
  8
gg1
 10
69.110138
 20
26.420053
  0
SEQEND
  8
gg1
  0
POLYLINE
  8
gg1
 62
1
 40
0.000000
 41
0.000000
 66
  1
  0
VERTEX
  8
gg1
 10
68.570137
 20
25.890052
  0
VERTEX
  8
gg1
 10
68.570137
 20
26.950054
  0
SEQEND
  8
gg1
  0
POLYLINE
  8
gg1
 62
1
 40
0.000000
 41
0.000000
 66
  1
  0
VERTEX
  8
gg1
 10
68.040136
 20
28.920058
  0
VERTEX
  8
gg1
 10
69.110138
 20
28.920058
  0
SEQEND
  8
gg1
  0
POLYLINE
  8
gg1
 62
1
 40
0.000000
 41
0.000000
 66
  1
  0
VERTEX
  8
gg1
 10
68.570137
 20
28.390057
  0
VERTEX
  8
gg1
 10
68.570137
 20
29.450059
  0
SEQEND
  8
gg1
  0
POLYLINE
  8
gg1
 62
1
 40
0.000000
 41
0.000000
 66
  1
  0
VERTEX
  8
gg1
 10
74.500149
 20
26.100052
  0
VERTEX
  8
gg1
 10
75.700151
 20
26.100052
  0
SEQEND
  8
gg1
  0
POLYLINE
  8
gg1
 62
1
 40
0.000000
 41
0.000000
 66
  1
  0
VERTEX
  8
gg1
 10
75.100150
 20
25.500051
  0
VERTEX
  8
gg1
 10
75.100150
 20
26.700053
  0
SEQEND
  8
gg1
  0
POLYLINE
  8
gg1
 62
1
 40
0.000000
 41
0.000000
 66
  1
  0
VERTEX
  8
gg1
 10
79.580159
 20
26.100052
  0
VERTEX
  8
gg1
 10
80.780162
 20
26.100052
  0
SEQEND
  8
gg1
  0
POLYLINE
  8
gg1
 62
1
 40
0.000000
 41
0.000000
 66
  1
  0
VERTEX
  8
gg1
 10
80.180160
 20
25.500051
  0
VERTEX
  8
gg1
 10
80.180160
 20
26.700053
  0
SEQEND
  8
gg1
  0
POLYLINE
  8
gg1
 62
1
 40
0.000000
 41
0.000000
 66
  1
  0
VERTEX
  8
gg1
 10
9.430019
 20
26.100052
  0
VERTEX
  8
gg1
 10
10.620021
 20
26.100052
  0
SEQEND
  8
gg1
  0
POLYLINE
  8
gg1
 62
1
 40
0.000000
 41
0.000000
 66
  1
  0
VERTEX
  8
gg1
 10
10.020020
 20
25.500051
  0
VERTEX
  8
gg1
 10
10.020020
 20
26.700053
  0
SEQEND
  8
gg1
  0
POLYLINE
  8
gg1
 62
1
 40
0.000000
 41
0.000000
 66
  1
  0
VERTEX
  8
gg1
 10
4.340009
 20
26.100052
  0
VERTEX
  8
gg1
 10
5.550011
 20
26.100052
  0
SEQEND
  8
gg1
  0
POLYLINE
  8
gg1
 62
1
 40
0.000000
 41
0.000000
 66
  1
  0
VERTEX
  8
gg1
 10
4.950010
 20
25.500051
  0
VERTEX
  8
gg1
 10
4.950010
 20
26.700053
  0
SEQEND
  8
gg1
  0
POLYLINE
  8
gg1
 62
1
 40
0.000000
 41
0.000000
 66
  1
  0
VERTEX
  8
gg1
 10
29.760060
 20
26.100052
  0
VERTEX
  8
gg1
 10
30.960062
 20
26.100052
  0
SEQEND
  8
gg1
  0
POLYLINE
  8
gg1
 62
1
 40
0.000000
 41
0.000000
 66
  1
  0
VERTEX
  8
gg1
 10
30.360061
 20
25.500051
  0
VERTEX
  8
gg1
 10
30.360061
 20
26.700053
  0
SEQEND
  8
gg1
  0
POLYLINE
  8
gg1
 62
1
 40
0.000000
 41
0.000000
 66
  1
  0
VERTEX
  8
gg1
 10
34.840070
 20
26.100052
  0
VERTEX
  8
gg1
 10
36.040072
 20
26.100052
  0
SEQEND
  8
gg1
  0
POLYLINE
  8
gg1
 62
1
 40
0.000000
 41
0.000000
 66
  1
  0
VERTEX
  8
gg1
 10
35.440071
 20
25.500051
  0
VERTEX
  8
gg1
 10
35.440071
 20
26.700053
  0
SEQEND
  8
gg1
  0
POLYLINE
  8
gg1
 62
1
 40
0.000000
 41
0.000000
 66
  1
  0
VERTEX
  8
gg1
 10
39.920080
 20
26.100052
  0
VERTEX
  8
gg1
 10
41.120082
 20
26.100052
  0
SEQEND
  8
gg1
  0
POLYLINE
  8
gg1
 62
1
 40
0.000000
 41
0.000000
 66
  1
  0
VERTEX
  8
gg1
 10
40.520081
 20
25.500051
  0
VERTEX
  8
gg1
 10
40.520081
 20
26.700053
  0
SEQEND
  8
gg1
  0
POLYLINE
  8
gg1
 62
1
 40
0.000000
 41
0.000000
 66
  1
  0
VERTEX
  8
gg1
 10
45.000090
 20
26.100052
  0
VERTEX
  8
gg1
 10
46.200092
 20
26.100052
  0
SEQEND
  8
gg1
  0
POLYLINE
  8
gg1
 62
1
 40
0.000000
 41
0.000000
 66
  1
  0
VERTEX
  8
gg1
 10
45.600091
 20
25.500051
  0
VERTEX
  8
gg1
 10
45.600091
 20
26.700053
  0
SEQEND
  8
gg1
  0
POLYLINE
  8
gg1
 62
1
 40
0.000000
 41
0.000000
 66
  1
  0
VERTEX
  8
gg1
 10
50.080100
 20
26.100052
  0
VERTEX
  8
gg1
 10
51.280103
 20
26.100052
  0
SEQEND
  8
gg1
  0
POLYLINE
  8
gg1
 62
1
 40
0.000000
 41
0.000000
 66
  1
  0
VERTEX
  8
gg1
 10
50.680101
 20
25.500051
  0
VERTEX
  8
gg1
 10
50.680101
 20
26.700053
  0
SEQEND
  8
gg1
  0
POLYLINE
  8
gg1
 62
1
 40
0.000000
 41
0.000000
 66
  1
  0
VERTEX
  8
gg1
 10
78.900158
 20
4.500009
  0
VERTEX
  8
gg1
 10
82.100164
 20
4.500009
  0
SEQEND
  8
gg1
  0
POLYLINE
  8
gg1
 62
1
 40
0.000000
 41
0.000000
 66
  1
  0
VERTEX
  8
gg1
 10
80.500161
 20
2.900006
  0
VERTEX
  8
gg1
 10
80.500161
 20
6.100012
  0
SEQEND
  8
gg1
  0
ENDSEC
  0
EOF
