G04*
G04 #@! TF.GenerationSoftware,Altium Limited,Altium Designer,21.1.1 (26)*
G04*
G04 Layer_Physical_Order=1*
G04 Layer_Color=255*
%FSLAX42Y42*%
%MOMM*%
G71*
G04*
G04 #@! TF.SameCoordinates,281B101C-6917-4EE5-BD1B-C9311E42025A*
G04*
G04*
G04 #@! TF.FilePolarity,Positive*
G04*
G01*
G75*
%ADD14O,8.00X3.50*%
%ADD15C,0.76*%
%ADD16C,3.61*%
%ADD17C,0.64*%
%ADD18C,3.56*%
%ADD19C,4.00*%
%ADD20O,3.50X5.00*%
%ADD21R,1.59X1.59*%
%ADD22C,1.59*%
%ADD23C,1.50*%
%ADD24R,1.50X1.50*%
D14*
X772Y762D02*
D03*
D15*
X3632Y1934D02*
X4014Y2316D01*
Y2611D01*
X4015Y2612D01*
X3036Y2610D02*
X3038Y2608D01*
Y1712D02*
X3372Y1377D01*
X3038Y1712D02*
Y2608D01*
X5068Y2328D02*
Y2612D01*
X4205Y2042D02*
X4783D01*
X5068Y2328D01*
X3886Y1724D02*
X4205Y2042D01*
X6272Y1185D02*
X6857Y1770D01*
X5600Y1600D02*
X6150Y2150D01*
X6078Y1382D02*
X6605Y1910D01*
X6857Y1770D02*
Y2131D01*
X6605Y2400D02*
X6857Y2652D01*
X6605Y1910D02*
Y2400D01*
X6150Y2650D02*
X6200D01*
X5310Y1810D02*
X6150Y2650D01*
Y2150D02*
X6200D01*
X4378Y1383D02*
X4595Y1600D01*
X4902Y1062D02*
X5025Y1185D01*
X4805Y1382D02*
X6078D01*
X4902Y761D02*
Y1062D01*
X4648Y761D02*
Y1226D01*
X4805Y1382D01*
X4595Y1600D02*
X5600D01*
X4403Y1810D02*
X5310D01*
X4378Y778D02*
Y1383D01*
X5025Y1185D02*
X6272D01*
X4138Y1545D02*
X4403Y1810D01*
X4138Y764D02*
Y1545D01*
X3886Y761D02*
Y1724D01*
X3372Y767D02*
Y1377D01*
X3632Y761D02*
Y1934D01*
X772Y762D02*
X1352D01*
X1960Y155D01*
X5192D02*
X5410Y372D01*
X1960Y155D02*
X5192D01*
X5410Y372D02*
Y507D01*
X2020Y2612D02*
X2027Y2605D01*
Y2075D02*
Y2605D01*
D16*
X5738Y847D02*
X6730D01*
X2503D02*
X2780D01*
X6927Y415D02*
X8018Y1505D01*
X7510Y1628D02*
Y2580D01*
X6730Y847D02*
X7510Y1628D01*
X8018Y1505D02*
Y2576D01*
X5730Y415D02*
X6927D01*
X1002Y2348D02*
X2503Y847D01*
X1002Y2348D02*
Y2612D01*
D17*
X4138Y764D02*
X4140Y761D01*
X4378Y778D02*
X4394Y761D01*
X3124D02*
Y978D01*
X3372Y767D02*
X3378Y761D01*
X2027Y2075D02*
X3124Y978D01*
D18*
X2282Y418D02*
X2790D01*
X497Y2203D02*
X2282Y418D01*
X497Y2203D02*
Y2609D01*
X495Y2612D02*
X497Y2609D01*
D19*
X450Y350D02*
D03*
X5650Y2650D02*
D03*
X8050Y450D02*
D03*
D20*
X1512Y2610D02*
D03*
X2020D02*
D03*
X2528D02*
D03*
X7510D02*
D03*
X8018D02*
D03*
X1002D02*
D03*
X495D02*
D03*
X3036D02*
D03*
X3544D02*
D03*
X4052D02*
D03*
X4560D02*
D03*
X5068D02*
D03*
D21*
X6200Y2142D02*
D03*
X6857D02*
D03*
D22*
X6200Y2392D02*
D03*
Y2642D02*
D03*
Y2892D02*
D03*
X6857Y2392D02*
D03*
Y2642D02*
D03*
Y2892D02*
D03*
D23*
X5664Y761D02*
D03*
Y507D02*
D03*
X5410Y761D02*
D03*
Y507D02*
D03*
X5156Y761D02*
D03*
Y507D02*
D03*
X4902Y761D02*
D03*
Y507D02*
D03*
X4648Y761D02*
D03*
Y507D02*
D03*
X4394Y761D02*
D03*
Y507D02*
D03*
X4140Y761D02*
D03*
Y507D02*
D03*
X3886Y761D02*
D03*
Y507D02*
D03*
X3632Y761D02*
D03*
Y507D02*
D03*
X3378Y761D02*
D03*
Y507D02*
D03*
X3124Y761D02*
D03*
Y507D02*
D03*
X2870Y761D02*
D03*
D24*
Y507D02*
D03*
M02*
