G04*
G04 #@! TF.GenerationSoftware,Altium Limited,Altium Designer,21.1.1 (26)*
G04*
G04 Layer_Color=2752767*
%FSLAX44Y44*%
%MOMM*%
G71*
G04*
G04 #@! TF.SameCoordinates,3C77BDBD-CB03-4F6D-911F-F831D2F562CC*
G04*
G04*
G04 #@! TF.FilePolarity,Positive*
G04*
G01*
G75*
%ADD21C,0.0508*%
%ADD22C,0.0677*%
D21*
X42968Y32968D02*
Y37032D01*
X47032D01*
Y32968D01*
X42968D01*
X620000Y212173D02*
X617968Y216237D01*
X622032D01*
X620000Y212173D01*
Y237173D02*
X617968Y241237D01*
X622032D01*
X620000Y237173D01*
Y262173D02*
X617968Y266237D01*
X622032D01*
X620000Y262173D01*
Y287173D02*
X617968Y291237D01*
X622032D01*
X620000Y287173D01*
X566400Y74118D02*
X567416Y75134D01*
X568432D01*
X567416Y76150D01*
X568432Y77166D01*
X567416D01*
X566400Y78182D01*
X565384Y77166D01*
X564368D01*
X565384Y76150D01*
X564368Y75134D01*
X565384D01*
X566400Y74118D01*
Y48718D02*
X567416Y49734D01*
X568432D01*
X567416Y50750D01*
X568432Y51766D01*
X567416D01*
X566400Y52782D01*
X565384Y51766D01*
X564368D01*
X565384Y50750D01*
X564368Y49734D01*
X565384D01*
X566400Y48718D01*
X541000Y74118D02*
X542016Y75134D01*
X543032D01*
X542016Y76150D01*
X543032Y77166D01*
X542016D01*
X541000Y78182D01*
X539984Y77166D01*
X538968D01*
X539984Y76150D01*
X538968Y75134D01*
X539984D01*
X541000Y74118D01*
Y48718D02*
X542016Y49734D01*
X543032D01*
X542016Y50750D01*
X543032Y51766D01*
X542016D01*
X541000Y52782D01*
X539984Y51766D01*
X538968D01*
X539984Y50750D01*
X538968Y49734D01*
X539984D01*
X541000Y48718D01*
X515600Y74118D02*
X516616Y75134D01*
X517632D01*
X516616Y76150D01*
X517632Y77166D01*
X516616D01*
X515600Y78182D01*
X514584Y77166D01*
X513568D01*
X514584Y76150D01*
X513568Y75134D01*
X514584D01*
X515600Y74118D01*
Y48718D02*
X516616Y49734D01*
X517632D01*
X516616Y50750D01*
X517632Y51766D01*
X516616D01*
X515600Y52782D01*
X514584Y51766D01*
X513568D01*
X514584Y50750D01*
X513568Y49734D01*
X514584D01*
X515600Y48718D01*
X490200Y74118D02*
X491216Y75134D01*
X492232D01*
X491216Y76150D01*
X492232Y77166D01*
X491216D01*
X490200Y78182D01*
X489184Y77166D01*
X488168D01*
X489184Y76150D01*
X488168Y75134D01*
X489184D01*
X490200Y74118D01*
Y48718D02*
X491216Y49734D01*
X492232D01*
X491216Y50750D01*
X492232Y51766D01*
X491216D01*
X490200Y52782D01*
X489184Y51766D01*
X488168D01*
X489184Y50750D01*
X488168Y49734D01*
X489184D01*
X490200Y48718D01*
X464800Y74118D02*
X465816Y75134D01*
X466832D01*
X465816Y76150D01*
X466832Y77166D01*
X465816D01*
X464800Y78182D01*
X463784Y77166D01*
X462768D01*
X463784Y76150D01*
X462768Y75134D01*
X463784D01*
X464800Y74118D01*
Y48718D02*
X465816Y49734D01*
X466832D01*
X465816Y50750D01*
X466832Y51766D01*
X465816D01*
X464800Y52782D01*
X463784Y51766D01*
X462768D01*
X463784Y50750D01*
X462768Y49734D01*
X463784D01*
X464800Y48718D01*
X439400Y74118D02*
X440416Y75134D01*
X441432D01*
X440416Y76150D01*
X441432Y77166D01*
X440416D01*
X439400Y78182D01*
X438384Y77166D01*
X437368D01*
X438384Y76150D01*
X437368Y75134D01*
X438384D01*
X439400Y74118D01*
Y48718D02*
X440416Y49734D01*
X441432D01*
X440416Y50750D01*
X441432Y51766D01*
X440416D01*
X439400Y52782D01*
X438384Y51766D01*
X437368D01*
X438384Y50750D01*
X437368Y49734D01*
X438384D01*
X439400Y48718D01*
X414000Y74118D02*
X415016Y75134D01*
X416032D01*
X415016Y76150D01*
X416032Y77166D01*
X415016D01*
X414000Y78182D01*
X412984Y77166D01*
X411968D01*
X412984Y76150D01*
X411968Y75134D01*
X412984D01*
X414000Y74118D01*
Y48718D02*
X415016Y49734D01*
X416032D01*
X415016Y50750D01*
X416032Y51766D01*
X415016D01*
X414000Y52782D01*
X412984Y51766D01*
X411968D01*
X412984Y50750D01*
X411968Y49734D01*
X412984D01*
X414000Y48718D01*
X388600Y74118D02*
X389616Y75134D01*
X390632D01*
X389616Y76150D01*
X390632Y77166D01*
X389616D01*
X388600Y78182D01*
X387584Y77166D01*
X386568D01*
X387584Y76150D01*
X386568Y75134D01*
X387584D01*
X388600Y74118D01*
Y48718D02*
X389616Y49734D01*
X390632D01*
X389616Y50750D01*
X390632Y51766D01*
X389616D01*
X388600Y52782D01*
X387584Y51766D01*
X386568D01*
X387584Y50750D01*
X386568Y49734D01*
X387584D01*
X388600Y48718D01*
X363200Y74118D02*
X364216Y75134D01*
X365232D01*
X364216Y76150D01*
X365232Y77166D01*
X364216D01*
X363200Y78182D01*
X362184Y77166D01*
X361168D01*
X362184Y76150D01*
X361168Y75134D01*
X362184D01*
X363200Y74118D01*
Y48718D02*
X364216Y49734D01*
X365232D01*
X364216Y50750D01*
X365232Y51766D01*
X364216D01*
X363200Y52782D01*
X362184Y51766D01*
X361168D01*
X362184Y50750D01*
X361168Y49734D01*
X362184D01*
X363200Y48718D01*
X337800Y74118D02*
X338816Y75134D01*
X339832D01*
X338816Y76150D01*
X339832Y77166D01*
X338816D01*
X337800Y78182D01*
X336784Y77166D01*
X335768D01*
X336784Y76150D01*
X335768Y75134D01*
X336784D01*
X337800Y74118D01*
Y48718D02*
X338816Y49734D01*
X339832D01*
X338816Y50750D01*
X339832Y51766D01*
X338816D01*
X337800Y52782D01*
X336784Y51766D01*
X335768D01*
X336784Y50750D01*
X335768Y49734D01*
X336784D01*
X337800Y48718D01*
X312400Y74118D02*
X313416Y75134D01*
X314432D01*
X313416Y76150D01*
X314432Y77166D01*
X313416D01*
X312400Y78182D01*
X311384Y77166D01*
X310368D01*
X311384Y76150D01*
X310368Y75134D01*
X311384D01*
X312400Y74118D01*
Y48718D02*
X313416Y49734D01*
X314432D01*
X313416Y50750D01*
X314432Y51766D01*
X313416D01*
X312400Y52782D01*
X311384Y51766D01*
X310368D01*
X311384Y50750D01*
X310368Y49734D01*
X311384D01*
X312400Y48718D01*
X287000Y74118D02*
X288016Y75134D01*
X289032D01*
X288016Y76150D01*
X289032Y77166D01*
X288016D01*
X287000Y78182D01*
X285984Y77166D01*
X284968D01*
X285984Y76150D01*
X284968Y75134D01*
X285984D01*
X287000Y74118D01*
Y48718D02*
X288016Y49734D01*
X289032D01*
X288016Y50750D01*
X289032Y51766D01*
X288016D01*
X287000Y52782D01*
X285984Y51766D01*
X284968D01*
X285984Y50750D01*
X284968Y49734D01*
X285984D01*
X287000Y48718D01*
X562968Y262968D02*
Y267032D01*
X567032D01*
Y262968D01*
X562968D01*
X685750Y212173D02*
X683718Y216237D01*
X687782D01*
X685750Y212173D01*
Y237173D02*
X683718Y241237D01*
X687782D01*
X685750Y237173D01*
Y262173D02*
X683718Y266237D01*
X687782D01*
X685750Y262173D01*
Y287173D02*
X683718Y291237D01*
X687782D01*
X685750Y287173D01*
X802968Y42968D02*
Y47032D01*
X807032D01*
Y42968D01*
X802968D01*
D22*
X153232Y261000D02*
G03*
X153232Y261000I-2032J0D01*
G01*
X204032D02*
G03*
X204032Y261000I-2032J0D01*
G01*
X254832D02*
G03*
X254832Y261000I-2032J0D01*
G01*
X753032D02*
G03*
X753032Y261000I-2032J0D01*
G01*
X803832D02*
G03*
X803832Y261000I-2032J0D01*
G01*
X102282D02*
G03*
X102282Y261000I-2032J0D01*
G01*
X51482D02*
G03*
X51482Y261000I-2032J0D01*
G01*
X305632D02*
G03*
X305632Y261000I-2032J0D01*
G01*
X356432D02*
G03*
X356432Y261000I-2032J0D01*
G01*
X407232D02*
G03*
X407232Y261000I-2032J0D01*
G01*
X458032D02*
G03*
X458032Y261000I-2032J0D01*
G01*
X508832D02*
G03*
X508832Y261000I-2032J0D01*
G01*
M02*
