G04*
G04 #@! TF.GenerationSoftware,Altium Limited,Altium Designer,21.1.1 (26)*
G04*
G04 Layer_Physical_Order=2*
G04 Layer_Color=16711680*
%FSLAX42Y42*%
%MOMM*%
G71*
G04*
G04 #@! TF.SameCoordinates,281B101C-6917-4EE5-BD1B-C9311E42025A*
G04*
G04*
G04 #@! TF.FilePolarity,Positive*
G04*
G01*
G75*
%ADD14O,8.00X3.50*%
%ADD15C,0.76*%
%ADD17C,0.64*%
%ADD19C,4.00*%
%ADD20O,3.50X5.00*%
%ADD21R,1.59X1.59*%
%ADD22C,1.59*%
%ADD23C,1.50*%
%ADD24R,1.50X1.50*%
%ADD25C,0.51*%
D14*
X755Y1160D02*
D03*
Y1562D02*
D03*
D15*
X3533Y896D02*
Y2599D01*
X3505Y869D02*
X3533Y896D01*
Y2599D02*
X3544Y2610D01*
X6468Y2512D02*
X6857Y2902D01*
X5120Y1228D02*
X6233D01*
X4940Y1428D02*
X5878D01*
X4740Y1628D02*
X5423D01*
X4625Y1848D02*
X5275D01*
X4268Y1155D02*
X4740Y1628D01*
X5156Y507D02*
X5410Y761D01*
X2525Y1833D02*
X3250Y1108D01*
X5156Y507D02*
X5165Y498D01*
X5156Y507D02*
Y507D01*
X6050Y2900D02*
X6200D01*
X6468Y2017D02*
Y2512D01*
X6000Y2850D02*
X6050Y2900D01*
X6000Y2573D02*
Y2850D01*
X5878Y1428D02*
X6468Y2017D01*
X5423Y1628D02*
X6195Y2400D01*
X5275Y1848D02*
X6000Y2573D01*
X6195Y2400D02*
X6200D01*
X4560Y2105D02*
Y2718D01*
X2175Y367D02*
X5033D01*
X6233Y1228D02*
X6710Y1705D01*
Y2355D01*
X6747Y2393D01*
X6856D01*
X980Y1562D02*
X2175Y367D01*
X1512Y2538D02*
X3000Y1049D01*
X2525Y1833D02*
Y2609D01*
X2528Y2612D01*
X1512Y2538D02*
Y2612D01*
X4513Y2068D02*
X4523D01*
X3760Y1315D02*
X4513Y2068D01*
X4013Y1235D02*
X4625Y1848D01*
X4523Y2068D02*
X4560Y2105D01*
X755Y1160D02*
X980D01*
X755Y1562D02*
X980D01*
X1990Y150D02*
X5120D01*
X980Y1160D02*
X1990Y150D01*
X5120D02*
X5165Y195D01*
Y498D01*
D17*
X3505Y651D02*
X3632Y524D01*
X4268Y634D02*
X4394Y507D01*
X3250Y636D02*
X3378Y507D01*
X3124D02*
Y526D01*
X3632Y507D02*
Y524D01*
X3760Y633D02*
X3886Y507D01*
X4013Y635D02*
X4140Y507D01*
X3000Y850D02*
Y1049D01*
X2998Y652D02*
X3124Y526D01*
X4879Y507D02*
X4902D01*
X4520Y1007D02*
X4940Y1428D01*
X4520Y636D02*
X4648Y507D01*
X4775Y882D02*
X5120Y1228D01*
X4775Y611D02*
X4879Y507D01*
D19*
X450Y350D02*
D03*
X5650Y2650D02*
D03*
X8050Y450D02*
D03*
D20*
X1512Y2610D02*
D03*
X2020D02*
D03*
X2528D02*
D03*
X7510D02*
D03*
X8018D02*
D03*
X1002D02*
D03*
X495D02*
D03*
X3036D02*
D03*
X3544D02*
D03*
X4052D02*
D03*
X4560D02*
D03*
X5068D02*
D03*
D21*
X6200Y2142D02*
D03*
X6857D02*
D03*
D22*
X6200Y2392D02*
D03*
Y2642D02*
D03*
Y2892D02*
D03*
X6857Y2392D02*
D03*
Y2642D02*
D03*
Y2892D02*
D03*
D23*
X5664Y761D02*
D03*
Y507D02*
D03*
X5410Y761D02*
D03*
Y507D02*
D03*
X5156Y761D02*
D03*
Y507D02*
D03*
X4902Y761D02*
D03*
Y507D02*
D03*
X4648Y761D02*
D03*
Y507D02*
D03*
X4394Y761D02*
D03*
Y507D02*
D03*
X4140Y761D02*
D03*
Y507D02*
D03*
X3886Y761D02*
D03*
Y507D02*
D03*
X3632Y761D02*
D03*
Y507D02*
D03*
X3378Y761D02*
D03*
Y507D02*
D03*
X3124Y761D02*
D03*
Y507D02*
D03*
X2870Y761D02*
D03*
D24*
Y507D02*
D03*
D25*
X3505Y869D02*
X3505Y868D01*
Y651D02*
Y868D01*
X5028Y367D02*
Y633D01*
X5156Y761D01*
X3760Y633D02*
Y1315D01*
X4013Y635D02*
Y1235D01*
X4268Y634D02*
Y1155D01*
X3250Y636D02*
Y1108D01*
X2998Y848D02*
X3000Y850D01*
X2998Y652D02*
Y848D01*
X4520Y636D02*
Y1007D01*
X4775Y611D02*
Y882D01*
M02*
