G04*
G04 #@! TF.GenerationSoftware,Altium Limited,Altium Designer,21.1.1 (26)*
G04*
G04 Layer_Physical_Order=2*
G04 Layer_Color=16711680*
%FSLAX44Y44*%
%MOMM*%
G71*
G04*
G04 #@! TF.SameCoordinates,3C77BDBD-CB03-4F6D-911F-F831D2F562CC*
G04*
G04*
G04 #@! TF.FilePolarity,Positive*
G04*
G01*
G75*
%ADD10O,8.0000X3.5000*%
%ADD11C,0.7620*%
%ADD12C,0.5080*%
%ADD13C,0.6350*%
%ADD14C,4.0000*%
%ADD15O,3.5000X5.0000*%
%ADD16R,1.5900X1.5900*%
%ADD17C,1.5900*%
%ADD18C,1.5000*%
%ADD19R,1.5000X1.5000*%
D10*
X75500Y116000D02*
D03*
Y156250D02*
D03*
D11*
X98000D02*
X224250Y30000D01*
X502780D01*
X353250Y89639D02*
Y259850D01*
X350464Y86853D02*
X353250Y89639D01*
Y259850D02*
X354400Y261000D01*
X646750Y251250D02*
X685750Y290250D01*
X512000Y122750D02*
X623250D01*
X494000Y142750D02*
X587750D01*
X474000Y162750D02*
X542250D01*
X462500Y184750D02*
X527500D01*
X426750Y115500D02*
X474000Y162750D01*
X515600Y50750D02*
X541000Y76150D01*
X252500Y183250D02*
X325000Y110750D01*
X515600Y50750D02*
X516500Y49850D01*
X515600Y50750D02*
Y50750D01*
X605000Y290000D02*
X620000D01*
X646750Y201750D02*
Y251250D01*
X600000Y285000D02*
X605000Y290000D01*
X600000Y257250D02*
Y285000D01*
X587750Y142750D02*
X646750Y201750D01*
X542250Y162750D02*
X619500Y240000D01*
X527500Y184750D02*
X600000Y257250D01*
X619500Y240000D02*
X620000D01*
X456000Y210470D02*
Y271769D01*
X623250Y122750D02*
X671000Y170500D01*
Y235547D01*
X674720Y239267D01*
X685597D01*
X151200Y253750D02*
X300000Y104950D01*
X252500Y183250D02*
Y260950D01*
X252800Y261250D01*
X151200Y253750D02*
Y261250D01*
X451250Y206750D02*
X452280D01*
X376000Y131500D02*
X451250Y206750D01*
X401250Y123500D02*
X462500Y184750D01*
X452280Y206750D02*
X456000Y210470D01*
X75500Y116000D02*
X98000D01*
X75500Y156250D02*
X98000D01*
X199000Y15000D02*
X512036D01*
X98000Y116000D02*
X199000Y15000D01*
X512036D02*
X516500Y19464D01*
Y49850D01*
D12*
X502780Y30000D02*
Y63330D01*
X350464Y86853D02*
X350500Y86816D01*
Y65118D02*
Y86816D01*
X502780Y63330D02*
X515600Y76150D01*
X376000Y63350D02*
Y131500D01*
X401250Y63500D02*
Y123500D01*
X426750Y63400D02*
Y115500D01*
X325000Y63550D02*
Y110750D01*
X299820Y84820D02*
X300000Y85000D01*
X299820Y65180D02*
Y84820D01*
X452000Y63550D02*
Y100750D01*
X477500Y61128D02*
Y88250D01*
D13*
X350500Y65118D02*
X363200Y52418D01*
X426750Y63400D02*
X439400Y50750D01*
X325000Y63550D02*
X337800Y50750D01*
X312400D02*
Y52600D01*
X363200Y50750D02*
Y52418D01*
X376000Y63350D02*
X388600Y50750D01*
X401250Y63500D02*
X414000Y50750D01*
X300000Y85000D02*
Y104950D01*
X299820Y65180D02*
X312400Y52600D01*
X487879Y50750D02*
X490200D01*
X452000Y100750D02*
X494000Y142750D01*
X452000Y63550D02*
X464800Y50750D01*
X477500Y88250D02*
X512000Y122750D01*
X477500Y61128D02*
X487879Y50750D01*
D14*
X45000Y35000D02*
D03*
X565000Y265000D02*
D03*
X805000Y45000D02*
D03*
D15*
X151200Y261000D02*
D03*
X202000D02*
D03*
X252800D02*
D03*
X751000D02*
D03*
X801800D02*
D03*
X100250D02*
D03*
X49450D02*
D03*
X303600D02*
D03*
X354400D02*
D03*
X405200D02*
D03*
X456000D02*
D03*
X506800D02*
D03*
D16*
X620000Y214205D02*
D03*
X685750D02*
D03*
D17*
X620000Y239205D02*
D03*
Y264205D02*
D03*
Y289205D02*
D03*
X685750Y239205D02*
D03*
Y264205D02*
D03*
Y289205D02*
D03*
D18*
X566400Y76150D02*
D03*
Y50750D02*
D03*
X541000Y76150D02*
D03*
Y50750D02*
D03*
X515600Y76150D02*
D03*
Y50750D02*
D03*
X490200Y76150D02*
D03*
Y50750D02*
D03*
X464800Y76150D02*
D03*
Y50750D02*
D03*
X439400Y76150D02*
D03*
Y50750D02*
D03*
X414000Y76150D02*
D03*
Y50750D02*
D03*
X388600Y76150D02*
D03*
Y50750D02*
D03*
X363200Y76150D02*
D03*
Y50750D02*
D03*
X337800Y76150D02*
D03*
Y50750D02*
D03*
X312400Y76150D02*
D03*
Y50750D02*
D03*
X287000Y76150D02*
D03*
D19*
Y50750D02*
D03*
M02*
