G04*
G04 #@! TF.GenerationSoftware,Altium Limited,Altium Designer,21.1.1 (26)*
G04*
G04 Layer_Physical_Order=1*
G04 Layer_Color=255*
%FSLAX44Y44*%
%MOMM*%
G71*
G04*
G04 #@! TF.SameCoordinates,65E10137-90F4-4A2F-8919-124282B39340*
G04*
G04*
G04 #@! TF.FilePolarity,Positive*
G04*
G01*
G75*
%ADD10O,8.0000X3.5000*%
%ADD11C,0.7620*%
%ADD12C,3.6068*%
%ADD13C,0.6350*%
%ADD14C,3.5560*%
%ADD15C,4.0000*%
%ADD16O,3.5000X5.0000*%
%ADD17R,1.5900X1.5900*%
%ADD18C,1.5900*%
%ADD19C,1.5000*%
%ADD20R,1.5000X1.5000*%
D10*
X77250Y76250D02*
D03*
D11*
X363200Y193450D02*
X401388Y231638D01*
Y261088D01*
X401550Y261250D01*
X303600Y261000D02*
X303750Y260850D01*
Y171250D02*
X337250Y137750D01*
X303750Y171250D02*
Y260850D01*
X506800Y232800D02*
Y261250D01*
X420500Y204250D02*
X478250D01*
X506800Y232800D01*
X388600Y172350D02*
X420500Y204250D01*
X627250Y118500D02*
X685750Y177000D01*
X560000Y160000D02*
X615000Y215000D01*
X607750Y138250D02*
X660500Y191000D01*
X685750Y177000D02*
Y213070D01*
X660500Y240000D02*
X685750Y265250D01*
X660500Y191000D02*
Y240000D01*
X615000Y265000D02*
X620000D01*
X531000Y181000D02*
X615000Y265000D01*
Y215000D02*
X620000D01*
X437750Y138250D02*
X459500Y160000D01*
X490200Y106200D02*
X502500Y118500D01*
X480500Y138250D02*
X607750D01*
X490200Y76150D02*
Y106200D01*
X464800Y76150D02*
Y122550D01*
X480500Y138250D01*
X459500Y160000D02*
X560000D01*
X440250Y181000D02*
X531000D01*
X437750Y77800D02*
Y138250D01*
X502500Y118500D02*
X627250D01*
X413750Y154500D02*
X440250Y181000D01*
X413750Y76400D02*
Y154500D01*
X388600Y76150D02*
Y172350D01*
X337250Y76700D02*
Y137750D01*
X363200Y76150D02*
Y193450D01*
X77250Y76250D02*
X135250D01*
X196000Y15500D01*
X519250D02*
X541000Y37250D01*
X196000Y15500D02*
X519250D01*
X541000Y37250D02*
Y50750D01*
X202000Y261250D02*
X202750Y260500D01*
Y207500D02*
Y260500D01*
D12*
X573770Y84750D02*
X673000D01*
X250250D02*
X278000D01*
X692746Y41496D02*
X801750Y150500D01*
X751000Y162750D02*
Y258034D01*
X673000Y84750D02*
X751000Y162750D01*
X801750Y150500D02*
Y257615D01*
X573000Y41496D02*
X692746D01*
X100250Y234750D02*
X250250Y84750D01*
X100250Y234750D02*
Y261215D01*
D13*
X413750Y76400D02*
X414000Y76150D01*
X437750Y77800D02*
X439400Y76150D01*
X312400D02*
Y97850D01*
X337250Y76700D02*
X337800Y76150D01*
X202750Y207500D02*
X312400Y97850D01*
D14*
X228250Y41750D02*
X279000D01*
X49730Y220270D02*
X228250Y41750D01*
X49730Y220270D02*
Y260935D01*
X49450Y261215D02*
X49730Y260935D01*
D15*
X45000Y35000D02*
D03*
X565000Y265000D02*
D03*
X805000Y45000D02*
D03*
D16*
X151200Y261000D02*
D03*
X202000D02*
D03*
X252800D02*
D03*
X751000D02*
D03*
X801800D02*
D03*
X100250D02*
D03*
X49450D02*
D03*
X303600D02*
D03*
X354400D02*
D03*
X405200D02*
D03*
X456000D02*
D03*
X506800D02*
D03*
D17*
X620000Y214205D02*
D03*
X685750D02*
D03*
D18*
X620000Y239205D02*
D03*
Y264205D02*
D03*
Y289205D02*
D03*
X685750Y239205D02*
D03*
Y264205D02*
D03*
Y289205D02*
D03*
D19*
X566400Y76150D02*
D03*
Y50750D02*
D03*
X541000Y76150D02*
D03*
Y50750D02*
D03*
X515600Y76150D02*
D03*
Y50750D02*
D03*
X490200Y76150D02*
D03*
Y50750D02*
D03*
X464800Y76150D02*
D03*
Y50750D02*
D03*
X439400Y76150D02*
D03*
Y50750D02*
D03*
X414000Y76150D02*
D03*
Y50750D02*
D03*
X388600Y76150D02*
D03*
Y50750D02*
D03*
X363200Y76150D02*
D03*
Y50750D02*
D03*
X337800Y76150D02*
D03*
Y50750D02*
D03*
X312400Y76150D02*
D03*
Y50750D02*
D03*
X287000Y76150D02*
D03*
D20*
Y50750D02*
D03*
M02*
