G04*
G04 #@! TF.GenerationSoftware,Altium Limited,Altium Designer,21.1.1 (26)*
G04*
G04 Layer_Color=2752767*
%FSLAX42Y42*%
%MOMM*%
G71*
G04*
G04 #@! TF.SameCoordinates,281B101C-6917-4EE5-BD1B-C9311E42025A*
G04*
G04*
G04 #@! TF.FilePolarity,Positive*
G04*
G01*
G75*
%ADD26C,0.05*%
%ADD27C,0.07*%
D26*
X430Y330D02*
Y370D01*
X470D01*
Y330D01*
X430D01*
X6200Y2122D02*
X6180Y2162D01*
X6220D01*
X6200Y2122D01*
Y2372D02*
X6180Y2412D01*
X6220D01*
X6200Y2372D01*
Y2622D02*
X6180Y2662D01*
X6220D01*
X6200Y2622D01*
Y2872D02*
X6180Y2912D01*
X6220D01*
X6200Y2872D01*
X5664Y741D02*
X5674Y751D01*
X5684D01*
X5674Y761D01*
X5684Y772D01*
X5674D01*
X5664Y782D01*
X5654Y772D01*
X5644D01*
X5654Y761D01*
X5644Y751D01*
X5654D01*
X5664Y741D01*
Y487D02*
X5674Y497D01*
X5684D01*
X5674Y507D01*
X5684Y518D01*
X5674D01*
X5664Y528D01*
X5654Y518D01*
X5644D01*
X5654Y507D01*
X5644Y497D01*
X5654D01*
X5664Y487D01*
X5410Y741D02*
X5420Y751D01*
X5430D01*
X5420Y761D01*
X5430Y772D01*
X5420D01*
X5410Y782D01*
X5400Y772D01*
X5390D01*
X5400Y761D01*
X5390Y751D01*
X5400D01*
X5410Y741D01*
Y487D02*
X5420Y497D01*
X5430D01*
X5420Y507D01*
X5430Y518D01*
X5420D01*
X5410Y528D01*
X5400Y518D01*
X5390D01*
X5400Y507D01*
X5390Y497D01*
X5400D01*
X5410Y487D01*
X5156Y741D02*
X5166Y751D01*
X5176D01*
X5166Y761D01*
X5176Y772D01*
X5166D01*
X5156Y782D01*
X5146Y772D01*
X5136D01*
X5146Y761D01*
X5136Y751D01*
X5146D01*
X5156Y741D01*
Y487D02*
X5166Y497D01*
X5176D01*
X5166Y507D01*
X5176Y518D01*
X5166D01*
X5156Y528D01*
X5146Y518D01*
X5136D01*
X5146Y507D01*
X5136Y497D01*
X5146D01*
X5156Y487D01*
X4902Y741D02*
X4912Y751D01*
X4922D01*
X4912Y761D01*
X4922Y772D01*
X4912D01*
X4902Y782D01*
X4892Y772D01*
X4882D01*
X4892Y761D01*
X4882Y751D01*
X4892D01*
X4902Y741D01*
Y487D02*
X4912Y497D01*
X4922D01*
X4912Y507D01*
X4922Y518D01*
X4912D01*
X4902Y528D01*
X4892Y518D01*
X4882D01*
X4892Y507D01*
X4882Y497D01*
X4892D01*
X4902Y487D01*
X4648Y741D02*
X4658Y751D01*
X4668D01*
X4658Y761D01*
X4668Y772D01*
X4658D01*
X4648Y782D01*
X4638Y772D01*
X4628D01*
X4638Y761D01*
X4628Y751D01*
X4638D01*
X4648Y741D01*
Y487D02*
X4658Y497D01*
X4668D01*
X4658Y507D01*
X4668Y518D01*
X4658D01*
X4648Y528D01*
X4638Y518D01*
X4628D01*
X4638Y507D01*
X4628Y497D01*
X4638D01*
X4648Y487D01*
X4394Y741D02*
X4404Y751D01*
X4414D01*
X4404Y761D01*
X4414Y772D01*
X4404D01*
X4394Y782D01*
X4384Y772D01*
X4374D01*
X4384Y761D01*
X4374Y751D01*
X4384D01*
X4394Y741D01*
Y487D02*
X4404Y497D01*
X4414D01*
X4404Y507D01*
X4414Y518D01*
X4404D01*
X4394Y528D01*
X4384Y518D01*
X4374D01*
X4384Y507D01*
X4374Y497D01*
X4384D01*
X4394Y487D01*
X4140Y741D02*
X4150Y751D01*
X4160D01*
X4150Y761D01*
X4160Y772D01*
X4150D01*
X4140Y782D01*
X4130Y772D01*
X4120D01*
X4130Y761D01*
X4120Y751D01*
X4130D01*
X4140Y741D01*
Y487D02*
X4150Y497D01*
X4160D01*
X4150Y507D01*
X4160Y518D01*
X4150D01*
X4140Y528D01*
X4130Y518D01*
X4120D01*
X4130Y507D01*
X4120Y497D01*
X4130D01*
X4140Y487D01*
X3886Y741D02*
X3896Y751D01*
X3906D01*
X3896Y761D01*
X3906Y772D01*
X3896D01*
X3886Y782D01*
X3876Y772D01*
X3866D01*
X3876Y761D01*
X3866Y751D01*
X3876D01*
X3886Y741D01*
Y487D02*
X3896Y497D01*
X3906D01*
X3896Y507D01*
X3906Y518D01*
X3896D01*
X3886Y528D01*
X3876Y518D01*
X3866D01*
X3876Y507D01*
X3866Y497D01*
X3876D01*
X3886Y487D01*
X3632Y741D02*
X3642Y751D01*
X3652D01*
X3642Y761D01*
X3652Y772D01*
X3642D01*
X3632Y782D01*
X3622Y772D01*
X3612D01*
X3622Y761D01*
X3612Y751D01*
X3622D01*
X3632Y741D01*
Y487D02*
X3642Y497D01*
X3652D01*
X3642Y507D01*
X3652Y518D01*
X3642D01*
X3632Y528D01*
X3622Y518D01*
X3612D01*
X3622Y507D01*
X3612Y497D01*
X3622D01*
X3632Y487D01*
X3378Y741D02*
X3388Y751D01*
X3398D01*
X3388Y761D01*
X3398Y772D01*
X3388D01*
X3378Y782D01*
X3368Y772D01*
X3358D01*
X3368Y761D01*
X3358Y751D01*
X3368D01*
X3378Y741D01*
Y487D02*
X3388Y497D01*
X3398D01*
X3388Y507D01*
X3398Y518D01*
X3388D01*
X3378Y528D01*
X3368Y518D01*
X3358D01*
X3368Y507D01*
X3358Y497D01*
X3368D01*
X3378Y487D01*
X3124Y741D02*
X3134Y751D01*
X3144D01*
X3134Y761D01*
X3144Y772D01*
X3134D01*
X3124Y782D01*
X3114Y772D01*
X3104D01*
X3114Y761D01*
X3104Y751D01*
X3114D01*
X3124Y741D01*
Y487D02*
X3134Y497D01*
X3144D01*
X3134Y507D01*
X3144Y518D01*
X3134D01*
X3124Y528D01*
X3114Y518D01*
X3104D01*
X3114Y507D01*
X3104Y497D01*
X3114D01*
X3124Y487D01*
X2870Y741D02*
X2880Y751D01*
X2890D01*
X2880Y761D01*
X2890Y772D01*
X2880D01*
X2870Y782D01*
X2860Y772D01*
X2850D01*
X2860Y761D01*
X2850Y751D01*
X2860D01*
X2870Y741D01*
Y487D02*
X2880Y497D01*
X2890D01*
X2880Y507D01*
X2890Y518D01*
X2880D01*
X2870Y528D01*
X2860Y518D01*
X2850D01*
X2860Y507D01*
X2850Y497D01*
X2860D01*
X2870Y487D01*
X5630Y2630D02*
Y2670D01*
X5670D01*
Y2630D01*
X5630D01*
X6857Y2122D02*
X6837Y2162D01*
X6878D01*
X6857Y2122D01*
Y2372D02*
X6837Y2412D01*
X6878D01*
X6857Y2372D01*
Y2622D02*
X6837Y2662D01*
X6878D01*
X6857Y2622D01*
Y2872D02*
X6837Y2912D01*
X6878D01*
X6857Y2872D01*
X8030Y430D02*
Y470D01*
X8070D01*
Y430D01*
X8030D01*
D27*
X1532Y2610D02*
G03*
X1532Y2610I-20J0D01*
G01*
X2040D02*
G03*
X2040Y2610I-20J0D01*
G01*
X2548D02*
G03*
X2548Y2610I-20J0D01*
G01*
X7530D02*
G03*
X7530Y2610I-20J0D01*
G01*
X8038D02*
G03*
X8038Y2610I-20J0D01*
G01*
X1023D02*
G03*
X1023Y2610I-20J0D01*
G01*
X515D02*
G03*
X515Y2610I-20J0D01*
G01*
X3056D02*
G03*
X3056Y2610I-20J0D01*
G01*
X3564D02*
G03*
X3564Y2610I-20J0D01*
G01*
X4072D02*
G03*
X4072Y2610I-20J0D01*
G01*
X4580D02*
G03*
X4580Y2610I-20J0D01*
G01*
X5088D02*
G03*
X5088Y2610I-20J0D01*
G01*
M02*
